<svg version="1.0" xmlns="http://www.w3.org/2000/svg"
 width="238.000000pt" height="515.000000pt" viewBox="0 0 238.000000 515.000000"
 preserveAspectRatio="xMidYMid meet">

<g transform="translate(0.000000,515.000000) scale(0.100000,-0.100000)"
fill="#FFFFFF" stroke="none">
<path d="M10 2575 l0 -2575 1185 0 1185 0 0 2575 0 2575 -1185 0 -1185 0 0
-2575z m1210 1803 l0 -541 208 7 c162 5 225 4 290 -8 221 -39 356 -171 397
-389 38 -199 0 -402 -100 -542 -65 -92 -132 -140 -252 -182 l-78 -28 -727 -3
-728 -3 0 1116 0 1115 495 0 495 0 0 -542z m930 19 l0 -524 -47 43 c-57 52
-164 107 -253 129 -40 10 -129 19 -232 22 l-168 6 0 423 0 424 350 0 350 0 0
-523z m-3 -4164 c-2 -2 -335 -2 -740 -1 l-736 3 448 1110 c433 1070 450 1110
477 1117 16 3 68 11 115 17 146 19 300 83 394 164 l40 35 3 -1221 c1 -671 1
-1222 -1 -1224z m-827 2223 c0 -2 -202 -502 -448 -1112 l-448 -1109 -97 -3
-97 -3 0 1116 0 1115 545 0 c300 0 545 -2 545 -4z"/>
</g>
</svg>
