<svg xmlns="http://www.w3.org/2000/svg" viewBox="0 0 392.36 222.75">
  <style>
    .outline {
      fill: none;
      stroke: currentColor;
      stroke-width: 15px;
      stroke-miterlimit: 10;
    }
    .fill {
      fill: currentColor;
      stroke: currentColor;
      stroke-miterlimit: 10;
    }
  </style>
  <g>
    <circle class="outline" cx="111.37" cy="111.37" r="103.87"/>
    <circle class="outline" cx="280.99" cy="111.37" r="103.87"/>
    <path class="fill" d="M96.97 130.15c.88 1.69 2.05 3.06 3.5 4.11 1.45 1.05 3.16 1.83 5.13 2.33 1.96.51 3.99.76 6.09.76 1.42 0 2.94-.12 4.57-.36 1.62-.24 3.15-.69 4.57-1.37 1.42-.68 2.6-1.61 3.55-2.79.95-1.18 1.42-2.69 1.42-4.52 0-1.96-.63-3.55-1.88-4.77-1.25-1.22-2.89-2.23-4.92-3.04-2.03-.81-4.33-1.52-6.9-2.13-2.57-.61-5.18-1.29-7.82-2.03-2.71-.68-5.35-1.5-7.92-2.49-2.57-.98-4.87-2.25-6.9-3.81-2.03-1.56-3.67-3.5-4.92-5.84-1.25-2.33-1.88-5.16-1.88-8.48 0-3.72.79-6.95 2.39-9.69 1.59-2.74 3.67-5.02 6.24-6.85 2.57-1.83 5.48-3.18 8.73-4.06 3.25-.88 6.5-1.32 9.74-1.32 3.79 0 7.43.42 10.91 1.27 3.48.85 6.58 2.22 9.29 4.11 2.71 1.9 4.85 4.31 6.45 7.26 1.59 2.94 2.39 6.51 2.39 10.71h-15.43c-.14-2.17-.59-3.96-1.37-5.38-.78-1.42-1.81-2.54-3.1-3.35-1.29-.81-2.76-1.39-4.42-1.73-1.66-.34-3.47-.51-5.43-.51-1.29 0-2.57.14-3.86.41-1.29.27-2.45.75-3.5 1.42-1.05.68-1.91 1.52-2.59 2.54-.68 1.02-1.02 2.3-1.02 3.86 0 1.42.27 2.57.81 3.45.54.88 1.61 1.69 3.2 2.44 1.59.75 3.79 1.49 6.6 2.23 2.81.75 6.48 1.69 11.01 2.84 1.35.27 3.23.76 5.63 1.47 2.4.71 4.79 1.84 7.16 3.4 2.37 1.56 4.42 3.64 6.14 6.24 1.73 2.61 2.59 5.94 2.59 10 0 3.32-.64 6.4-1.93 9.24-1.29 2.84-3.2 5.3-5.73 7.36-2.54 2.06-5.68 3.67-9.44 4.82-3.76 1.15-8.1 1.73-13.04 1.73-4 0-7.87-.49-11.62-1.47-3.76-.98-7.07-2.52-9.95-4.62-2.88-2.1-5.16-4.77-6.85-8.02-1.69-3.25-2.5-7.11-2.44-11.57h15.43c0 2.44.44 4.5 1.32 6.19z"/>
    <path class="fill" d="M313.21 75.54v13.4h-35.02v16.75h30.35v12.38h-30.35v29.94h-15.94v-72.48h50.96z"/>
  </g>
</svg>