<svg id="Layer_2" enable-background="new 0 0 512 512" viewBox="0 0 512 512" xmlns="http://www.w3.org/2000/svg"><g style="fill:none;stroke:currentColor;stroke-linecap:round;stroke-linejoin:round;stroke-miterlimit:10;stroke-width:15"><g><g><path d="m297.532 266.376-18.735 108.871 81.953 83.713c7.981 8.177 8.3 21.126.733 29.687-8.07 9.13-22.054 9.88-31.054 1.666l-92.932-85.641c-6.116-5.636-9.415-13.696-9.007-22.003l3.949-68.108-103.923 43.467v98.599c0 12.012-9.737 21.749-21.749 21.749-12.685 0-22.968-10.283-22.968-22.968v-116.896c0-8.791 4.879-16.855 12.665-20.936l91.991-43.194 3.156-38.14"/><path d="m225.376 163.845 37.238 55.042 80.931 19.898c9.135 2.246 15.077 11.054 13.74 20.366-1.506 10.479-11.566 17.496-21.921 15.289l-95.74-21.232-55.518-71.96c-5.41-7.013-8.83-15.355-9.898-24.147l-.852-7.017c-1.256-10.336 2.151-20.695 9.295-28.268l17.16-18.19"/><path d="m350.945 213.885-40.685-15.928-27.558-63.672c-3.323-7.678-9.04-14.075-16.297-18.237l-21.662-12.422"/></g><g><path d="m362.085 244.239 18.668-32.121c4.642-13.181 5.379-26.816.605-40.579l-4.33-13.185"/><path d="m432.279 189.514-12.455 3.184c-14.141 3.357-25.227 11.279-33.837 21.088l-28.702 45.365"/><ellipse cx="430.018" cy="128.57" rx="64.939" ry="52.891" transform="matrix(.482 -.876 .876 .482 110.214 443.484)"/></g><path d="m234.032 289.847-1.593 24.714"/><circle cx="221.182" cy="63.861" r="44.103"/></g><circle cx="77.336" cy="189.514" r="19.161"/></g></svg>