<svg version="1.0" xmlns="http://www.w3.org/2000/svg"
 width="512.000000pt" height="512.000000pt" viewBox="0 0 512.000000 512.000000"
 preserveAspectRatio="xMidYMid meet">

<g transform="translate(0.000000,512.000000) scale(0.100000,-0.100000)"
fill="currentColor" stroke="none">
<path d="M345 4635 l-25 -24 0 -366 0 -366 25 -24 24 -25 241 0 241 0 24 25
c24 24 25 27 25 185 l0 161 83 -3 82 -3 3 -497 2 -498 -85 0 -85 0 0 159 c0
141 -2 161 -19 182 l-19 24 -252 0 -252 0 -19 -24 c-18 -22 -19 -44 -19 -386
0 -351 1 -363 21 -389 l20 -26 248 0 c311 0 291 -12 291 172 l0 126 134 4
c126 3 136 5 160 27 l26 24 0 264 0 263 110 0 110 0 0 -139 c0 -133 1 -141 24
-168 l24 -28 198 -3 c218 -4 256 0 285 29 18 18 19 36 19 387 l0 369 -23 21
c-22 21 -31 22 -249 22 -292 0 -272 14 -276 -184 l-3 -146 -110 0 -109 0 0
260 0 261 -25 24 c-23 24 -29 25 -160 25 l-135 0 0 130 c0 126 -1 132 -25 155
l-24 25 -241 0 -241 0 -24 -25z m403 -393 l2 -263 -137 3 -138 3 -3 250 c-1
137 0 255 3 263 3 10 36 12 137 10 l133 -3 3 -263z m1092 -542 l0 -260 -120 0
-120 0 0 260 0 260 120 0 120 0 0 -260z m-1090 -550 l0 -260 -140 0 -140 0 0
260 0 260 140 0 140 0 0 -260z"/>
<path d="M2274 3766 c-52 -23 -62 -91 -18 -125 24 -19 40 -21 155 -21 l129 0
0 -730 0 -731 25 -24 c30 -30 64 -32 99 -4 l26 20 0 785 c0 493 -4 792 -10
804 -5 10 -24 23 -41 29 -47 16 -326 14 -365 -3z"/>
<path d="M3324 3459 c-31 -9 -59 -32 -87 -73 -11 -15 -38 -21 -158 -32 -288
-27 -292 -29 -265 -164 46 -225 172 -470 303 -590 66 -60 177 -117 262 -133
61 -12 64 -13 107 -74 l44 -62 0 -130 c0 -118 -2 -131 -17 -131 -33 0 -96 -45
-114 -80 -17 -31 -19 -60 -19 -261 0 -223 0 -226 23 -247 23 -22 27 -22 408
-22 374 0 386 1 407 20 21 20 22 27 22 254 0 225 -1 234 -22 266 -27 38 -81
70 -120 70 l-28 0 0 133 1 132 45 60 c42 56 48 60 106 72 149 30 273 119 371
265 99 148 159 291 193 458 27 134 23 137 -265 164 -121 11 -145 16 -154 32
-20 35 -55 62 -93 73 -62 17 -299 14 -334 -4 -52 -27 -52 -106 0 -132 16 -8
71 -13 158 -13 l132 0 0 -92 c0 -250 -78 -500 -219 -705 l-46 -68 -164 0 -165
0 -48 70 c-133 195 -204 412 -215 668 l-6 127 152 0 c148 0 153 1 176 25 30
29 32 74 6 106 -19 23 -24 24 -183 26 -89 1 -177 -2 -194 -8z m-100 -351 c8
-124 32 -240 79 -370 l35 -97 -31 16 c-120 60 -235 224 -307 438 -16 49 -29
90 -27 91 2 2 173 20 218 23 26 1 26 1 33 -101z m1292 91 c60 -6 110 -12 112
-13 7 -7 -54 -171 -94 -251 -51 -105 -123 -198 -191 -247 -77 -56 -86 -56 -62
0 52 120 99 339 99 460 0 45 4 62 13 62 8 0 63 -5 123 -11z m-596 -1024 l0
-105 -115 0 -115 0 0 105 0 105 115 0 115 0 0 -105z m170 -410 l0 -155 -280 0
-280 0 0 155 0 155 280 0 280 0 0 -155z"/>
<path d="M341 2354 c-20 -26 -21 -38 -21 -389 0 -342 1 -364 19 -386 l19 -24
252 0 252 0 19 24 c17 21 19 41 19 182 l0 159 85 0 85 0 -2 -497 -3 -498 -82
-3 -83 -3 0 161 c0 158 -1 161 -25 185 l-24 25 -241 0 -241 0 -24 -25 -25 -24
0 -366 0 -366 25 -24 24 -25 241 0 241 0 24 25 c24 23 25 29 25 155 l0 130
135 0 c131 0 137 1 160 25 l25 24 0 261 0 260 109 0 110 0 3 -146 c4 -198 -17
-184 277 -184 290 0 271 -13 271 188 l0 142 309 0 c317 0 362 5 381 40 6 11
10 123 10 264 0 233 -1 247 -20 266 -28 28 -81 26 -108 -3 -21 -22 -22 -32
-22 -215 l0 -192 -275 0 -275 0 0 145 c0 205 10 199 -304 193 l-198 -3 -24
-28 c-23 -27 -24 -35 -24 -168 l0 -139 -110 0 -110 0 0 263 c0 330 14 305
-180 309 l-135 3 -3 130 c-4 188 17 175 -293 175 l-248 0 -20 -26z m409 -384
l0 -260 -140 0 -140 0 0 260 0 260 140 0 140 0 0 -260z m1090 -550 l0 -260
-120 0 -120 0 0 260 0 260 120 0 120 0 0 -260z m-1092 -542 l-3 -263 -135 0
-135 0 -3 250 c-1 137 0 255 3 262 3 10 40 13 140 13 l135 0 -2 -262z"/>
</g>
</svg>
