<?xml version="1.0" encoding="UTF-8"?><svg id="b" xmlns="http://www.w3.org/2000/svg" viewBox="0 0 182.92 131.5616"><g id="c"><polygon points="156.4551 92.6889 21.819 91.6845 27.4954 37.6774 162.1315 38.6817 156.4551 92.6889" style="fill:#065f46; stroke-width:0px;"/><path d="M138.0734,86.3812l-96.713-.82c.5137-4.8873-3.30808-8.8675-8.53608-8.89l2.51129-23.893c5.228.0226,9.8825-3.9211,10.3962-8.8084l96.713.82c-.5137,4.8873,3.3081,8.8675,8.5361,8.89l-2.5113,23.8929c-5.228-.0225-9.8825,3.9212-10.3962,8.8085Z" style="fill:#327b67; stroke-width:0px;"/><path d="M108.9084,65.256c-.9188,8.7425-9.245,15.7971-18.5969,15.7568-9.352-.0402-16.1883-7.1601-15.2694-15.9026.9188-8.7425,9.245-15.797,18.5969-15.7568,9.352.0403,16.18832,7.1601,15.2694,15.9026Z" style="fill:#065f46; stroke-width:0px;"/><path d="M88.6255,74.9445c-2.5574-.3692-4.8766-1.2242-6.7789-2.5112l2.9168-3.8992c2.5027,1.4384,5.4045,2.1616,8.01892,2.1745,1.093.0054,2.10208-.3752,2.19468-1.2556.1164-1.1072-.4278-1.2389-3.7003-2.0456-4.5201-1.0956-7.78438-2.1376-7.3882-5.9072.3827-3.6415,3.1636-5.5895,6.7961-6.1461l.3375-3.2118,4.6461.0208-.3296,3.1357c2.4181.2704,4.6624.9957,6.4072,2.0684l-2.7688,4.0318c-2.2292-1.1423-4.9296-1.823-6.9381-1.8324-1.0129-.0011-1.9199.374-2.0148,1.277-.064.6085.2701.8484,3.3614,1.6183,4.6851,1.2381,7.9934,2.3689,7.5754,6.3456-.3815,3.6301-3.1844,5.7881-7.3724,6.2595l-.33.0222-.3255,3.0977-4.6461-.0208.3386-3.2216Z" style="fill:#347c68; stroke-width:0px;"/><polygon points="162.0946 39.0332 165.5174 6.4668 4.4185 6.1295 9.7738 22.7082 .9957 38.6959 162.0946 39.0332" style="fill:#ffce00; stroke-width:0px;"/><polygon points="182.92 92.0013 21.8211 91.664 18.39832 124.2304 179.4972 124.5677 174.0398 108.5502 182.92 92.0013" style="fill:#ffce00; stroke-width:0px;"/><polygon points="162.0946 39.0332 165.5174 6.4668 4.4185 6.1295 9.7738 22.7082 .9957 38.6959 162.0946 39.0332" style="fill:#ffce00; stroke-width:0px;"/><polygon points="182.92 92.0013 21.8211 91.664 18.39832 124.2304 179.4972 124.5677 174.0398 108.5502 182.92 92.0013" style="fill:#ffce00; stroke-width:0px;"/><polygon points="138.3472 6.4361 80.7231 6.3155 48.2176 38.8209 105.8418 38.9416 138.3472 6.4361" style="fill:#ffe163; stroke-width:0px;"/><polygon points="136.9674 91.9234 79.34332 91.8028 46.8378 124.3083 104.4619 124.4289 136.9674 91.9234" style="fill:#ffe163; stroke-width:0px;"/><path d="M41.79492,19.61137c-1.14941-1.06836-2.58105-1.60449-4.11328-1.60547-2.66016-.00293-4.81055,2.01855-5.11133,4.8877-.26953,2.55859,1.06152,4.05078,3.74316,4.05371,1.19434.00195,2.41895-.28516,3.75977-.81836l-1.10938,4.11523c-1.14062.35352-2.48926.53027-4.02148.52832-4.64258-.00488-7.27051-3.10059-6.78711-7.70508.23926-2.26953,1.2002-4.33789,2.72559-5.98145,1.80371-1.93359,4.37305-2.99902,7.39258-2.99512,1.91602.00195,3.44336.4707,4.7041,1.13965l-1.18262,4.38086Z" style="fill:#065f46; stroke-width:0px;"/><path d="M49.58789,14.48051l5.38574.00586,1.75391,15.91113-4.37207-.00488-.33789-3.00293-5.63477-.00684-1.84766,3.00098-4.6875-.00488,9.74023-15.89844ZM51.78125,23.85161l-.35352-3.7168c-.0498-.60059-.07715-1.20215-.03613-1.80176-.46582,1-.7793,1.62305-.91699,1.86719l-2.09668,3.64746,3.40332.00391Z" style="fill:#065f46; stroke-width:0px;"/><path d="M63.23633,26.97856c1.12695.00098,1.84277-.59863,1.92969-1.42188.09863-.93457-.69824-1.29102-2.04102-2.02637-2.00391-1.0918-3.0957-2.07324-2.88477-4.07617.32715-3.11426,2.90723-5.35742,6.33301-5.35352,1.78027.00195,3.38281.62598,4.71875,1.85156l-2.17773,3.13574c-1.02637-.95898-1.92188-1.44922-2.75586-1.4502-.90137-.00098-1.59277.57617-1.66699,1.28711-.0918.86914.98047,1.18164,2.33789,1.9834,1.9541,1.1377,2.78809,2.20703,2.57129,4.27539-.35059,3.33691-3.04785,5.625-7.2627,5.62012-2.16309-.00195-3.96094-.91602-5.2832-2.69629l2.56543-3.17969c1.1416,1.3584,2.24121,2.04883,3.61621,2.05078Z" style="fill:#065f46; stroke-width:0px;"/><path d="M74.75196,14.50981l4.32715.00488-1.63672,6.13867,5.63379.00684,1.61523-6.13965,4.34961.00488-4.21875,15.9043-4.34961-.00488,1.71973-6.49609-5.6123-.00586-1.71875,6.49609-4.32715-.00488,4.21777-15.9043Z" style="fill:#065f46; stroke-width:0px;"/><path d="M98.28711,28.99907c-1.39453-1.31445-2.10449-3.3623-1.87012-5.58691.24707-2.35742,1.21191-4.44922,2.85449-6.1377,1.9209-1.97754,4.58398-3.08789,7.49121-3.08398,4.89062.00586,7.79102,3.0791,7.33301,7.43945-.24805,2.35742-1.2373,4.46973-2.87695,6.1377-1.9707,2.02246-4.54102,3.10938-7.47266,3.10547-2.32031-.00195-4.125-.62598-5.45898-1.87402ZM100.92871,22.95024c-.25684,2.44629,1.1084,4.02832,3.47559,4.03125,2.5918.00293,4.87402-2.19727,5.16602-4.97852.24316-2.31445-1.25586-3.91699-3.4873-3.91895-2.65918-.00391-4.86719,2.12891-5.1543,4.86621Z" style="fill:#065f46; stroke-width:0px;"/><path d="M118.77637,14.55961l4.91309.00586,2.57812,7.85742c.18457.60059.50391,1.42383.65039,2.60352l.04199-.39941c.07422-.71191.24512-1.46875.43945-2.24805l2.05957-7.80762,4.30469.00488-4.21777,15.9043-4.7334-.00488-2.75391-8.10254c-.22559-.64551-.52051-1.49121-.67383-2.60352l-.04688.44531c-.08203.77832-.24902,1.5127-.41113,2.20117l-2.06445,8.05273-4.30371-.00488,4.21777-15.9043Z" style="fill:#065f46; stroke-width:0px;"/><path d="M46.57227,103.96586l-6.80664-.00781.96777-3.625,12.57617.01367-.16309.4668-11.11621,15.27344-4.55273-.00488,9.09473-12.11621Z" style="fill:#065f46; stroke-width:0px;"/><path d="M56.29981,113.23247c1.78027.00195,2.92969-1.06348,3.11035-2.77637.16797-1.60156-.96582-2.60547-3.08496-2.60742-.96875-.00098-1.98145.19727-3.03809.59668l2.99219-8.09473,8.6543.00977-1,3.29102-5.58887-.00586-.82129,2.24707c.64453-.13281,1.16992-.19922,1.64258-.19824,2.81738.00293,4.4873,1.91797,4.19238,4.7207-.37402,3.55957-3.12207,6.11523-7.17871,6.11133-2.16406-.00293-4.06348-.58301-5.67188-1.78613l1.7041-3.3584c1.38477,1.20312,2.66797,1.84961,4.08789,1.85059Z" style="fill:#065f46; stroke-width:0px;"/><path d="M86.48926,105.36918c-1.14941-1.06934-2.58008-1.60547-4.1123-1.60645-2.66016-.00293-4.81055,2.01855-5.1123,4.88867-.26855,2.55859,1.06152,4.0498,3.74316,4.05273,1.19434.00195,2.41895-.28516,3.76074-.81836l-1.10938,4.11621c-1.1416.35352-2.49023.53027-4.02246.52832-4.64258-.00488-7.27051-3.10156-6.78613-7.70605.23828-2.26953,1.2002-4.33691,2.72559-5.98145,1.80273-1.93457,4.37207-2.99902,7.3916-2.99512,1.91602.00195,3.44434.4707,4.7041,1.13867l-1.18262,4.38281Z" style="fill:#065f46; stroke-width:0px;"/><path d="M89.4043,114.69438c-1.39453-1.31445-2.10352-3.3623-1.87012-5.58594.24805-2.3584,1.21191-4.44922,2.85449-6.1377,1.9209-1.97852,4.58496-3.08691,7.49219-3.08398,4.89062.00586,7.79004,3.0791,7.33203,7.43945-.24805,2.35742-1.23633,4.4707-2.87695,6.13672-1.9707,2.02344-4.54102,3.11035-7.47168,3.10742-2.32129-.00293-4.12598-.62793-5.45996-1.87598ZM92.0459,108.64653c-.25684,2.44629,1.10938,4.02734,3.47559,4.03027,2.5918.00293,4.87402-2.19629,5.16602-4.97656.24316-2.31445-1.25488-3.91797-3.48633-3.9209-2.65918-.00293-4.86719,2.13086-5.15527,4.86719Z" style="fill:#065f46; stroke-width:0px;"/><path d="M114.01856,100.26079l-2.12402,7.98535c-.25586.93262-.44824,1.68945-.5166,2.33496-.14258,1.35742.58496,2.1582,1.98242,2.16016,2.52441.00293,3.06934-2.17578,4.26465-6.69141l1.53223-5.7832,4.32617.00488-2.39062,9.03125c-.40918,1.5332-.78223,2.93555-1.63184,4.15723-1.41016,2.04688-3.76074,3.17773-6.75781,3.1748-3.85352-.00488-6.14746-1.98828-5.83203-4.99121.09863-.93359.44043-2.46973,1.00293-4.60449l1.81738-6.7832,4.32715.00488Z" style="fill:#065f46; stroke-width:0px;"/><path d="M122.50586,116.17875l4.21777-15.90332,4.28223.00488c1.87109.00195,3.33203.04785,4.46777.60449,1.54297.75879,2.25488,2.13965,2.05371,4.05176-.27344,2.60352-2.12012,4.51465-5.00879,4.97852l3.26172,6.2793-4.91309-.00586-2.47168-6.07715-1.6084,6.07227-4.28125-.00488ZM130.42188,107.55473c1.71289.00195,2.72168-.79785,2.87305-2.24414.14746-1.40137-.6748-1.93652-2.47754-1.93848l-.63086-.00098-1.11621,4.18262,1.35156.00098Z" style="fill:#065f46; stroke-width:0px;"/><path d="M142.89649,103.98637l-3.60547-.00391.99609-3.69141,11.38086.0127-.99609,3.69141-3.44824-.00391-3.24512,12.21191-4.32715-.00488,3.24512-12.21191Z" style="fill:#065f46; stroke-width:0px;"/><path d="M178.36232,131.5616h-.00292l-165.7813-.3477c-.3535-.001-.6904-.1514-.9277-.415-.2363-.2637-.3496-.6153-.3125-.9668l9.0918-85.7295-19.1826-.0401C.5566,44.0616-.001,43.5,0,42.8096c.001-.6894.5605-1.2471,1.25-1.2471h.0029l20.56941.043c.35349.001.69039.1514.92769.4151.23631.2636.3496.6142.3125.9667l-9.0918,85.7295,164.3945.3448c.6905.0009,1.24812.5625,1.24712,1.2529-.001.6895-.56062,1.2471-1.25,1.2471Z" style="fill:#065f46; stroke-width:0px;"/><path d="M162.3769,88.3272c-.0439,0-.0878-.002-.1328-.0068-.6865-.0723-1.1845-.6875-1.1123-1.3741L169.9717,2.8448,5.5156,2.5c-.6904-.0009-1.248-.5625-1.2471-1.2529.001-.6894.5606-1.2471,1.25-1.2471h.003l165.84081.3477c.35348.001.69038.1514.92678.415.2363.2627.3505.6133.3134.9659l-8.9843,85.4795c-.0674.6416-.6104,1.1191-1.2413,1.1191Z" style="fill:#065f46; stroke-width:0px;"/></g></svg>