<svg id="Layer_1" enable-background="new 0 0 254.387 237.183" height="512" viewBox="0 0 254.387 237.183" width="512" xmlns="http://www.w3.org/2000/svg"><g><path d="m45.837 138.892c.143 2.45 1.377 4.573 3.199 5.936-6.077 11.091-19.159 19.393-26.983 22.424l.02.052c-7.967 2.955-15.066 9.481-19.021 18.52-7.121 16.275-1.36 34.516 12.868 40.742s31.535-1.922 38.657-18.197c3.955-9.039 3.931-18.682.695-26.539l.052-.021c-3.114-7.881-5.917-23.35-1.716-35.394.07.002.138.01.208.01.157 0 .316-.004.475-.014 4.411-.258 7.777-4.043 7.519-8.453-.195-3.335-.334-6.516-.425-9.562l4.478-10.235-4.214-1.844-.378.863c.1-8.854.671-16.257 1.546-22.411l-15.506-4.598c-2.106 13.116-2.606 29.374-1.474 48.721zm1.23 16.491c-.497 5.603-.066 11.182.764 16.069-1.816-1.54-3.861-2.835-6.122-3.824s-4.6-1.613-6.964-1.901c4.154-2.708 8.544-6.176 12.322-10.344zm3.297 51.143c-6.093 13.926-20.717 21.025-32.599 15.826-11.881-5.199-16.591-20.758-10.498-34.683 6.093-13.926 20.717-21.026 32.599-15.827s16.591 20.758 10.498 34.684z"/><path d="m68.207 224.819c0 6.83 5.537 12.363 12.363 12.363 6.828 0 12.365-5.533 12.365-12.363v-44.553h-24.728z"/><path d="m97.57 224.819c0 6.83 5.537 12.363 12.363 12.363 6.828 0 12.365-5.533 12.365-12.363v-44.553h-24.728z"/><path d="m192.844 56.967c-.333-.313-.665-.595-.997-.878.239-.457.438-.943.589-1.457 1.244-4.239-1.184-8.685-5.423-9.929-4.207-1.235-8.239-2.191-12.12-2.941-4.296 3.521-9.784 5.637-15.758 5.637-6.687 0-12.762-2.655-17.24-6.959-5.602.723-10.511 1.889-14.702 3.227-4.19-1.338-9.099-2.504-14.7-3.227-4.478 4.304-10.553 6.959-17.239 6.959-5.974 0-11.462-2.117-15.758-5.637-3.882.75-7.914 1.706-12.121 2.941-4.239 1.244-6.667 5.689-5.423 9.929.151.514.35 1 .589 1.457-.332.283-.664.565-.997.878-6.412 6.025-10.94 15.874-13.57 29.448l15.448 4.581c1.278-7.222 2.992-12.474 4.786-16.206v101.476h24.729v-41.719h4.635v41.719h24.729v-113.236c1.243-.707 2.87-1.541 4.89-2.394 2.017.853 3.649 1.689 4.899 2.401v113.229h24.729v-41.719h4.635v41.719h24.728v-101.475c1.794 3.731 3.508 8.983 4.786 16.205l15.448-4.581c-2.632-13.573-7.16-23.423-13.572-29.448z"/><path d="m161.451 224.819c0 6.83 5.537 12.363 12.365 12.363 6.826 0 12.363-5.533 12.363-12.363v-44.553h-24.728z"/><path d="m132.087 224.819c0 6.83 5.537 12.363 12.365 12.363 6.826 0 12.363-5.533 12.363-12.363v-44.553h-24.729v44.553z"/><circle cx="95.252" cy="22.5" r="22.5"/><circle cx="159.133" cy="22.5" r="22.5"/><path d="m232.313 167.304.02-.052c-7.824-3.031-20.906-11.333-26.984-22.425 1.821-1.363 3.055-3.486 3.198-5.935 1.132-19.347.632-35.605-1.475-48.72l-15.506 4.598c.875 6.153 1.445 13.555 1.546 22.408l-.376-.86-4.214 1.844 4.477 10.232c-.091 3.046-.23 6.229-.425 9.565-.258 4.41 3.108 8.195 7.519 8.453.159.01.317.014.475.014.07 0 .139-.008.209-.01 4.201 12.044 1.398 27.513-1.716 35.394l.052.021c-3.236 7.857-3.26 17.499.695 26.539 7.121 16.275 24.428 24.423 38.657 18.197 14.228-6.225 19.99-24.466 12.868-40.742-3.954-9.04-11.053-15.566-19.02-18.521zm-24.993-11.921c3.778 4.168 8.168 7.637 12.321 10.344-2.363.288-4.703.912-6.964 1.901s-4.306 2.284-6.122 3.824c.83-4.888 1.262-10.466.765-16.069zm29.302 66.969c-11.882 5.199-26.506-1.901-32.599-15.826-6.093-13.926-1.384-29.485 10.499-34.684 11.881-5.199 26.506 1.902 32.599 15.827 6.092 13.925 1.382 29.484-10.499 34.683z"/></g></svg>