<svg id="Layer_1" enable-background="new 0 0 511.999 511.999" height="512" viewBox="0 0 511.999 511.999" width="512" xmlns="http://www.w3.org/2000/svg"><path d="m416.618 161.019c0-88.713-71.743-160.671-160.375-161.019-194.609 4.895-221.052 275.483-33.008 318.786v55.753h-54.783c-8.408 0-15.225 6.816-15.225 15.225v34.275c0 8.408 6.816 15.225 15.225 15.225h54.783v57.51c0 8.408 6.816 15.225 15.225 15.225h34.275c8.408 0 15.225-6.816 15.225-15.225v-57.51h54.783c8.408 0 15.225-6.816 15.225-15.225v-34.275c0-8.408-6.816-15.225-15.225-15.225h-54.783v-55.753c73.418-14.98 128.658-79.922 128.658-157.767zm-161.021 95.117c-52.531 0-95.116-42.585-95.116-95.116 5.01-126.169 185.241-126.133 190.232.001 0 52.53-42.585 95.115-95.116 95.115z"/></svg>