<?xml version="1.0" encoding="utf-8"?><!-- Uploaded to: SVG Repo, www.svgrepo.com, Generator: SVG Repo Mixer Tools -->
<svg width="800px" height="800px" viewBox="0 0 400 400" fill="none" xmlns="http://www.w3.org/2000/svg">
<path d="M85.6021 48.2364C82.7167 51.5825 83.0902 56.634 86.4363 59.5193C89.7823 62.4047 94.8338 62.0312 97.7192 58.6851L85.6021 48.2364ZM106.257 57.854C109.387 54.7358 109.397 49.6705 106.279 46.5403C103.16 43.4102 98.0951 43.4005 94.965 46.5188L106.257 57.854ZM97.7192 58.6851C104.118 51.2645 114.244 50 127.454 50V34C114.74 34 97.2775 34.6968 85.6021 48.2364L97.7192 58.6851ZM127.454 50C136.049 50 142.087 53.648 146.058 59.066C150.193 64.7074 152.3 72.6317 151.741 80.9406C151.184 89.2112 148.024 97.2374 142.445 103.107C136.994 108.842 128.835 112.955 117.228 112.955V128.955C132.999 128.955 145.423 123.199 154.043 114.13C162.534 105.196 166.933 93.4829 167.705 82.0148C168.474 70.5848 165.679 58.7703 158.963 49.6076C152.084 40.2214 141.323 34 127.454 34V50ZM117.228 112.955C110.425 112.955 106.04 110.603 103.054 107.289C99.876 103.761 97.7365 98.503 96.9425 92.0777C96.1541 85.6977 96.7718 78.7151 98.5533 72.4038C100.356 66.0163 103.174 60.9257 106.257 57.854L94.965 46.5188C89.3647 52.0977 85.4494 59.9286 83.1549 68.0573C80.839 76.2621 79.9944 85.3904 81.0633 94.04C82.1266 102.644 85.1638 111.335 91.1662 117.998C97.3606 124.874 106.159 128.955 117.228 128.955V112.955Z" fill="#000000" fill-opacity="0.9"/>
<path d="M104.01 150.071C133.154 176.342 175.474 190.454 215.084 184.895" stroke="#000000" stroke-opacity="0.9" stroke-width="16" stroke-linecap="round" stroke-linejoin="round"/>
<path d="M103.484 150.138C90.9714 170.279 81.4289 204.269 77.4844 227.138C70.3195 268.666 131.169 274.929 118.861 296.722C114.172 305.026 59.3938 370.487 69.1447 354.788" stroke="#000000" stroke-opacity="0.9" stroke-width="16" stroke-linecap="round" stroke-linejoin="round"/>
<path d="M79.9941 232.627C84.6257 236.455 141.638 256.942 146.687 273.636C150.953 287.743 137.819 367.091 137.819 354.324" stroke="#000000" stroke-opacity="0.9" stroke-width="16" stroke-linecap="round" stroke-linejoin="round"/>
<path d="M295.826 85.2289C305.113 87.3634 311.842 94.4968 315.048 102.917C329.359 140.505 274.406 167.63 249.275 146.632C227.212 128.203 268.656 75.3836 298.757 84.1771" stroke="#000000" stroke-opacity="0.9" stroke-width="16" stroke-linecap="round" stroke-linejoin="round"/>
<path d="M241.93 130.345C236.31 155.534 224.653 173.631 204.298 191.325" stroke="#000000" stroke-opacity="0.9" stroke-width="16" stroke-linecap="round" stroke-linejoin="round"/>
<path d="M277.286 152.616C249.768 163.866 222.98 175.089 201.264 193.966" stroke="#000000" stroke-opacity="0.9" stroke-width="16" stroke-linecap="round" stroke-linejoin="round"/>
</svg>