<svg id="Layer_2" enable-background="new 0 0 512 512" viewBox="0 0 512 512" xmlns="http://www.w3.org/2000/svg"><g style="fill:none;stroke:currentColor;stroke-linecap:round;stroke-linejoin:round;stroke-miterlimit:10;stroke-width:15"><g><circle cx="230.414" cy="148.114" r="37.525"/><path d="m242.159 204.778 47.081.136 36.219-36.918c6.487-6.612 17.191-6.432 23.452.393 5.815 6.339 5.647 16.121-.382 22.257l-48.292 49.151h-77.039"/><path d="m198.092 309.862-3.875-80.698c-.863-17.973 4.132-35.74 14.234-50.63"/><path d="m304.843 314.04 57.621 29.237c7.713 4.042 13.899 10.486 17.622 18.357l40.646 85.928c6.255 13.223-3.39 28.456-18.019 28.456-7.526 0-14.411-4.239-17.799-10.96l-44.263-87.803-88.284-35.671 3.24 65.893c.335 6.817-2.372 13.431-7.391 18.056l-76.264 70.281c-7.386 6.741-18.862 6.125-25.484-1.367l-1.25-1.25c-7.066-7.982-5.641-18.911 1.852-26.113l67.254-65.698-11.404-64.296"/><path d="m272.226 239.797 2.271 58.845"/><g><path d="m338.211 162.301-13.236-27.466c-6.82-9.219-15.746-15.995-27.294-19.084l-10.952-3.124"/><path d="m333.326 89.423-3.568 9.928c-4.226 11.153-3.944 22.332-1.241 32.696l15.171 32.548"/><path d="m336.509 72.04c-.199 16.583-7.745 31.352-21.359 38.318-21.34 10.92-49.508-1.468-62.915-27.669s-6.976-56.293 14.364-67.213c21.34-10.92 49.508 1.468 62.915 27.669.621 1.214 1.2 2.436 1.736 3.664"/></g></g><path d="m114.008 126.345c2.964-3.604 6.1-7.15 9.402-10.626"/><path d="m299.599 43.249c49.092 2.174 90.033 23.323 107.097 60.544 28.39 61.926-20.061 144.891-108.219 185.307s-182.639 22.98-211.03-38.946c-14.195-30.963-9.18-67.186 10.404-100.72"/></g></svg>