<svg id="Layer_1" enable-background="new 0 0 64 64" height="512" viewBox="0 0 64 64" width="512" xmlns="http://www.w3.org/2000/svg"><g><g id="LINE_28_"><g><path d="m41 59c-.552 0-1-.447-1-1v-52c0-.553.448-1 1-1s1 .447 1 1v52c0 .553-.448 1-1 1z"/></g></g><g id="LINE_29_"><g><path d="m45 15.667h-4c-.552 0-1-.447-1-1s.448-1 1-1h4c.552 0 1 .447 1 1s-.448 1-1 1z"/></g></g><g id="LINE_30_"><g><path d="m45 11.333h-4c-.552 0-1-.447-1-1s.448-1 1-1h4c.552 0 1 .447 1 1s-.448 1-1 1z"/></g></g><g id="LINE_31_"><g><path d="m45 28.667h-4c-.552 0-1-.447-1-1s.448-1 1-1h4c.552 0 1 .447 1 1s-.448 1-1 1z"/></g></g><g id="LINE_32_"><g><path d="m45 24.333h-4c-.552 0-1-.447-1-1s.448-1 1-1h4c.552 0 1 .447 1 1s-.448 1-1 1z"/></g></g><g id="LINE_33_"><g><path d="m45 41.667h-4c-.552 0-1-.447-1-1s.448-1 1-1h4c.552 0 1 .447 1 1s-.448 1-1 1z"/></g></g><g id="LINE_34_"><g><path d="m45 37.333h-4c-.552 0-1-.447-1-1s.448-1 1-1h4c.552 0 1 .447 1 1s-.448 1-1 1z"/></g></g><g id="LINE_35_"><g><path d="m45 54.667h-4c-.552 0-1-.447-1-1s.448-1 1-1h4c.552 0 1 .447 1 1s-.448 1-1 1z"/></g></g><g id="LINE_36_"><g><path d="m45 50.333h-4c-.552 0-1-.447-1-1s.448-1 1-1h4c.552 0 1 .447 1 1s-.448 1-1 1z"/></g></g><g id="LINE_37_"><g><path d="m49 46h-8c-.552 0-1-.447-1-1s.448-1 1-1h8c.552 0 1 .447 1 1s-.448 1-1 1z"/></g></g><g id="LINE_38_"><g><path d="m49 20h-8c-.552 0-1-.447-1-1s.448-1 1-1h8c.552 0 1 .447 1 1s-.448 1-1 1z"/></g></g><g id="LINE_39_"><g><path d="m49 33h-8c-.552 0-1-.447-1-1s.448-1 1-1h8c.552 0 1 .447 1 1s-.448 1-1 1z"/></g></g><g id="LINE_40_"><g><path d="m49 7h-8c-.552 0-1-.447-1-1s.448-1 1-1h8c.552 0 1 .447 1 1s-.448 1-1 1z"/></g></g><g id="LINE_41_"><g><path d="m49 59h-8c-.552 0-1-.447-1-1s.448-1 1-1h8c.552 0 1 .447 1 1s-.448 1-1 1z"/></g></g><g id="ARC_18_"><g><path d="m35 29c-.552 0-1-.447-1-1 0-2.757-2.243-5-5-5-.552 0-1-.447-1-1s.448-1 1-1c3.86 0 7 3.141 7 7 0 .553-.448 1-1 1z"/></g></g><g id="LINE_42_"><g><path d="m35 40.612c-.552 0-1-.447-1-1v-11.612c0-.553.448-1 1-1s1 .447 1 1v11.612c0 .553-.448 1-1 1z"/></g></g><g id="LINE_43_"><g><path d="m29 23h-8c-.552 0-1-.447-1-1s.448-1 1-1h8c.552 0 1 .447 1 1s-.448 1-1 1z"/></g></g><g id="ARC_19_"><g><path d="m15 29c-.552 0-1-.447-1-1 0-3.859 3.14-7 7-7 .552 0 1 .447 1 1s-.448 1-1 1c-2.757 0-5 2.243-5 5 0 .553-.448 1-1 1z"/></g></g><g id="LINE_44_"><g><path d="m15 40.612c-.552 0-1-.447-1-1v-11.612c0-.553.448-1 1-1s1 .447 1 1v11.612c0 .553-.448 1-1 1z"/></g></g><g id="ARC_20_"><g><path d="m33 42.547c-1.491 0-3-1.008-3-2.935 0-.553.448-1 1-1s1 .447 1 1c0 .89.833.935 1 .935s1-.045 1-.935c0-.553.448-1 1-1s1 .447 1 1c0 1.927-1.509 2.935-3 2.935z"/></g></g><g id="ARC_21_"><g><path d="m17 42.547c-1.491 0-3-1.008-3-2.935 0-.553.448-1 1-1s1 .447 1 1c0 .89.833.935 1 .935s1-.045 1-.935c0-.553.448-1 1-1s1 .447 1 1c0 1.927-1.509 2.935-3 2.935z"/></g></g><g id="LINE_45_"><g><path d="m19 41c-.552 0-1-.447-1-1v-12c0-.553.448-1 1-1s1 .447 1 1v12c0 .553-.448 1-1 1z"/></g></g><g id="LINE_46_"><g><path d="m31 41c-.552 0-1-.447-1-1v-12c0-.553.448-1 1-1s1 .447 1 1v12c0 .553-.448 1-1 1z"/></g></g><g id="LINE_47_"><g><path d="m19 56c-.552 0-1-.447-1-1v-15c0-.553.448-1 1-1s1 .447 1 1v15c0 .553-.448 1-1 1z"/></g></g><g id="LINE_48_"><g><path d="m31 56c-.552 0-1-.447-1-1v-15c0-.553.448-1 1-1s1 .447 1 1v15c0 .553-.448 1-1 1z"/></g></g><g id="LINE_49_"><g><path d="m25 56c-.552 0-1-.447-1-1v-15c0-.553.448-1 1-1s1 .447 1 1v15c0 .553-.448 1-1 1z"/></g></g><g id="ARC_22_"><g><path d="m28 58.902c-1.025 0-1.989-.344-2.714-.968-.829-.712-1.286-1.754-1.286-2.934 0-.553.448-1 1-1s1 .447 1 1c0 1.403 1.077 1.902 2 1.902s2-.499 2-1.902c0-.553.448-1 1-1s1 .447 1 1c0 2.562-2.012 3.902-4 3.902z"/></g></g><g id="ARC_23_"><g><path d="m22 58.902c-1.025 0-1.989-.344-2.714-.968-.829-.712-1.286-1.754-1.286-2.934 0-.553.448-1 1-1s1 .447 1 1c0 1.403 1.077 1.902 2 1.902s2-.499 2-1.902c0-.553.448-1 1-1s1 .447 1 1c0 2.562-2.012 3.902-4 3.902z"/></g></g><g id="CIRCLE_4_"><g><path d="m25 19c-3.794 0-7-3.206-7-7s3.206-7 7-7 7 3.206 7 7-3.206 7-7 7zm0-12c-2.71 0-5 2.29-5 5s2.29 5 5 5 5-2.29 5-5-2.29-5-5-5z"/></g></g></g></svg>