<svg id="Layer_1" enable-background="new 0 0 512 512" height="512" viewBox="0 0 512 512" width="512" xmlns="http://www.w3.org/2000/svg"><path clip-rule="evenodd" d="m451.764 102.828-78.828 78.825c26.617 35.641 40.842 78.604 40.842 123.46 0 55.228-21.545 107.238-60.599 146.288-39.055 39.05-91.06 60.599-146.288 60.599s-107.24-21.547-146.292-60.599c-39.052-39.052-60.599-91.06-60.599-146.288 0-55.229 21.545-107.24 60.598-146.292 39.051-39.051 91.066-60.599 146.292-60.599 44.856 0 87.813 14.229 123.458 40.84l78.823-78.826h-31.271c-16.629 0-30.118-13.49-30.118-30.118s13.49-30.118 30.119-30.118h103.981c16.629 0 30.118 13.49 30.118 30.118v103.981c0 16.628-13.489 30.118-30.118 30.118s-30.118-13.49-30.118-30.118zm-141.178 305.989c27.722-27.72 42.955-64.501 42.955-103.703 0-39.199-15.235-75.982-42.955-103.698-27.717-27.713-64.499-42.957-103.695-42.957-39.204 0-75.986 15.236-103.709 42.956-27.717 27.715-42.947 64.503-42.947 103.699 0 39.199 15.228 75.984 42.947 103.703 27.72 27.72 64.506 42.951 103.708 42.951 39.195 0 75.981-15.238 103.696-42.951z" fill-rule="evenodd"/></svg>