<svg width="340" height="311" viewBox="0 0 340 311" fill="none" xmlns="http://www.w3.org/2000/svg">
<path d="M338.022 41.0441C335.856 35.516 331.417 31.3876 327.418 27.1706C323.156 22.7056 319.052 17.9925 314.525 13.811C310.086 9.70028 304.854 7.1134 298.742 8.19422C292.93 9.22189 287.927 13.1022 283.347 16.575C278.486 20.2782 273.818 24.2294 269.432 28.4818C265.328 32.4507 261.365 37.1106 259.691 42.6919C259.075 44.7473 258.916 46.7317 259.128 48.6276C259.498 52.313 261.241 55.715 263.76 58.8157C271.37 68.171 280.212 76.6581 287.117 86.5804C290.428 91.3466 292.93 96.3787 294.339 102.031C295.836 108.037 296.646 114.239 297.862 120.316C298.478 123.364 299.13 126.411 299.817 129.441C300.733 133.428 301.719 137.414 302.794 141.366C302.494 141.454 302.177 141.578 301.842 141.667C284.21 147.195 266.121 151.164 248.876 157.932C243.979 159.846 239.787 158.092 235.718 155.824C225.432 150.065 214.704 145.157 203.678 141.118C198.2 139.098 197.918 137.29 201.67 133.251C212.379 121.698 222.93 109.969 233.481 98.2745C234.961 96.6444 237.48 94.9081 235.947 92.4806C234.714 90.5848 232.16 91.6301 230.152 92.0377C225.167 93.0653 220.182 94.1107 213.929 95.4219C216.395 91.9668 218.157 89.876 219.478 87.5372C220.394 85.9071 222.842 84.277 220.993 82.0799C219.566 80.379 217.628 81.7787 215.885 82.1862C211.076 83.2848 206.232 84.153 200.437 85.3224C202.639 81.7256 204.418 79.1032 205.88 76.3214C206.778 74.6559 209.068 73.0081 207.13 70.811C205.439 68.8974 203.29 70.12 201.282 70.4744C196.333 71.3426 191.683 73.9649 186.028 73.5928C188.019 70.2972 189.534 67.4091 191.454 64.8045C192.687 63.1744 194.906 61.7924 193.162 59.6307C191.612 57.6994 189.216 58.8688 187.49 59.6839C182.523 62.0759 177.556 64.521 172.853 67.4268C157.793 76.7113 144.987 88.6889 133.978 102.527C132.111 104.883 128.817 107.772 133.872 111.103C136.109 112.556 139.844 115.231 137.272 118.881C134.841 122.318 131.565 124.586 126.562 122.531C119.763 119.749 112.7 117.588 105.672 115.391C88.3042 109.933 70.8836 104.671 53.4983 99.2668C39.1074 94.8195 24.7342 90.3013 10.3609 85.7299C8.26478 85.0743 6.34482 84.3302 5.04137 86.793C3.54415 89.5748 6.13345 90.7619 7.61305 91.6301C14.5179 95.5991 19.5908 101.765 25.6325 106.744C38.0153 116.932 51.2613 125.915 63.5385 136.281C73.5786 144.75 83.6364 153.29 94.0993 161.281C96.8823 163.407 97.5517 166.189 95.8079 169.29C92.8839 174.535 89.59 179.584 87.0007 184.988C85.574 187.965 84.112 188.337 81.1175 187.682C56.3871 182.171 31.6213 176.838 6.87325 171.54C4.86522 171.115 2.54014 170.743 0.91962 172.426C-0.788968 174.198 0.285505 176.129 0.937234 178.22C4.01974 187.664 6.89087 197.161 9.67393 206.693C15.6276 227.14 21.0175 247.765 27.6405 267.999C29.6485 274.112 29.1025 278.081 24.9984 282.262C19.0976 288.287 15.0111 295.569 11.1888 302.993C10.1847 304.96 8.42331 307.139 10.449 309.371C12.4041 311.533 14.694 311.179 17.3361 310.133C41.2916 300.53 65.2823 291.015 89.3258 281.624C93.2186 280.101 93.6765 278.116 92.4083 274.307C89.6429 265.961 87.353 257.439 84.9575 248.969C84.4995 247.339 83.3193 245.337 86.1905 244.469C91.6685 242.821 101.832 246.312 105.742 251.043C121.437 269.913 137.237 288.659 152.843 307.6C155.485 310.824 157.546 310.984 160.981 308.822C173.487 300.902 186.363 293.584 198.711 285.434C202.744 282.776 205.985 282.386 210.248 283.928C218.527 286.94 227.158 288.517 235.806 289.917C239.47 290.519 244.684 292.823 246.674 289.137C249.017 284.778 243.68 282.794 240.738 280.437C240.368 280.136 239.999 279.87 239.699 279.516C225.995 263.499 208.927 250.865 195.223 234.901C189.727 228.505 184.954 228.558 178.084 232.35C168.678 237.559 166.758 236.708 159.959 229.851C157.194 227.07 156.824 225.298 160.241 222.799C166.582 218.157 173.698 214.011 178.666 208.129C186.504 198.862 196.297 198.295 206.813 198.525C207.042 198.525 207.289 198.525 207.518 198.525C225.52 200.811 240.509 194.149 255.147 184.156C271.528 172.958 288.79 163.088 305.946 152.705C306.422 154.265 306.898 155.806 307.391 157.348C308.342 160.324 309.346 163.301 310.368 166.26C311.002 168.032 312.746 169.237 314.648 168.705C315.74 168.404 316.674 167.465 317.043 166.331C317.431 165.817 317.678 165.144 317.713 164.329C317.748 163.177 317.766 162.025 317.766 160.874C317.783 155.558 317.59 150.278 317.607 144.98C317.66 138.478 317.907 131.975 318.365 125.472C318.47 123.824 318.611 122.159 318.734 120.493C319.668 109.437 321.148 98.3631 323.42 87.484C324.6 81.761 326.15 76.0734 328.916 70.8996C331.434 66.1865 334.658 61.8632 336.789 56.9552C338.991 51.9232 340.048 46.3242 337.952 41.0618L338.022 41.0441ZM299.5 97.5481C299.588 96.8571 299.623 96.2015 299.623 95.5813C300.451 97.9025 301.05 100.294 301.578 102.704C300.187 101.074 299.271 99.4085 299.482 97.5658L299.5 97.5481ZM28.944 281.04C31.3924 279.108 33.1009 279.587 35.5141 280.508C33.0657 282.067 31.3571 281.607 28.944 281.04ZM45.6071 191.19C44.9025 191.65 43.8633 191.332 43.4934 190.02C43.053 188.479 41.3621 186.884 43.0178 185.307C43.3172 185.024 45.5366 184.315 45.8713 185.839C46.2236 187.416 48.0907 189.081 45.6071 191.208V191.19ZM100.458 242.892C103.893 243.317 104.439 245.373 106.676 247.056C103.223 246.631 102.695 244.575 100.458 242.892ZM205.809 276.805C204.47 276.415 203.132 276.025 201.529 275.565C203.766 273.102 204.823 274.909 205.809 276.805ZM167.146 110.394C166.336 111.705 165.12 112.059 162.989 111.368C164.451 110.04 165.384 109.03 166.864 109.225C167.022 109.26 167.287 110.146 167.146 110.394ZM166.811 106.159C164.38 108.25 161.914 108.197 159.818 106.266C157.669 104.281 157.405 101.818 159.642 99.5325C161.897 97.2292 164.521 97.7607 166.512 99.4971C168.661 101.375 168.749 103.944 166.811 106.177V106.159Z" fill="currentColor"/>
<path d="M67.4665 21.164C72.3104 23.4851 77.8413 22.7764 81.9278 19.3213C85.8911 15.9725 86.807 10.0723 84.5876 5.50097C82.2097 0.557538 75.8333 -1.32061 71.0246 0.965062C69.862 0.53982 68.541 0.610694 67.308 1.24856C59.8219 5.11117 59.769 17.4963 67.4489 21.1817L67.4665 21.164Z" fill="currentColor"/>
</svg>
