<svg id="Layer_2" enable-background="new 0 0 512 512" viewBox="0 0 512 512" xmlns="http://www.w3.org/2000/svg"><g style="fill:none;stroke:currentColor;stroke-linecap:round;stroke-linejoin:round;stroke-miterlimit:10;stroke-width:15"><g><circle cx="123.044" cy="58.782" r="38.919"/><path d="m114.967 135.123 23.872 40.051 51.456 15.149c9.215 2.713 14.271 12.599 11.077 21.659-2.967 8.414-12.003 13.031-20.559 10.505l-68.54-20.235-35.399-61.424"/><path d="m237.825 314.156-12.883-28.296-88.452-36.996 3.361 72.489c.348 7.07-2.46 13.93-7.666 18.727l-77.04 74.337c-8.674 7.917-22.152 7.194-29.929-1.605-7.293-8.251-6.985-20.731.707-28.612l71.111-69.164-16.836-94.924-4.018-83.697c-.895-18.641 4.286-37.068 14.763-52.512"/><path d="m213.104 235.079 37.748 21.098c5.853 3.271 10.425 8.428 12.973 14.63l9.036 21.998"/><g><path d="m199.185 192.57 12.953-28.846c2.76-11.569 2.174-23.177-3.088-34.403l-4.835-10.777"/><path d="m253.748 140.018-10.26 3.8c-11.672 4.096-20.354 11.786-26.772 20.853l-15.693 33.776"/><ellipse cx="246.427" cy="88.63" rx="55.272" ry="45.017" transform="matrix(.388 -.922 .922 .388 69.188 281.419)"/></g><path d="m147.002 90.934c11.062 4.24 19.333 14.799 21.566 23.661l11.258 44.68 26.647 23.525"/></g><path d="m50.204 466.376 444.145-273.517"/><path d="m90.539 479.611 407.022-250.656"/><path d="m170.126 486.492 324.223-199.674"/><path d="m291.203 476.596 203.146-124.291"/><path d="m371.48 489.549 122.869-71.757"/><path d="m135.535 451.901 34.591 34.591"/><path d="m176.063 426.943 59.55 59.549"/><path d="m218.317 403.71 82.783 82.782"/><path d="m257.12 377.025 114.36 112.524"/><path d="m297.649 352.067 134.425 134.425"/><path d="m339.124 328.055 158.437 158.437"/><path d="m380.13 303.574 114.219 114.218"/><path d="m420.808 278.764 73.541 73.541"/><path d="m460.656 253.126 33.693 33.692"/></g></svg>