<svg id="Layer_1" enable-background="new 0 0 152.859 318.268" height="512" viewBox="0 0 152.859 318.268" width="512" xmlns="http://www.w3.org/2000/svg"><g><path d="m32.331 84.439c19.285.503 29.799-23.194 29.799-23.194l-9.43-5.345c.747-1.214 1.286-2.131 1.578-2.636.096-.065.184-.158.25-.274.174-.307.137-.655-.082-.78l-29.543-16.744c-.219-.123-.537.023-.711.328-.066.119-.101.242-.109.356-.283.51-.793 1.443-1.451 2.707l-9.427-5.344s-16.707 23.719-2.522 40.258c-.42 4.341-.183 8.446 1.076 11.917-.109.061-.688 6.725-5.383 7.016-.066-.03-3.932.487-3.932.487s-2.209 1.612-2.34 1.816c-.027.021-.049.049-.068.082-.076.135-.031.307.104.383l15.536 8.807c.135.075.307.029.382-.107.02-.034.029-.068.036-.101.106-.217.356-2.941.356-2.941s-1.541-3.584-1.603-3.624c-1.633-3.156 1.059-6.163 2.475-7.499 4.551 13.46 10.916 24.44 17.27 33.019l12.347-10.306c-5.394-7.409-10.784-16.835-14.608-28.281zm18.3-25.276 6.427 3.644s-11.424 20.242-22.834 16.747c6.834-6.508 12.751-14.78 16.407-20.391zm-38.802 7.697c-8.859-7.992 2.641-28.197 2.641-28.197l6.426 3.643c-2.936 6.02-6.993 15.347-9.067 24.554z"/><path d="m54.616 305.905c0 6.83 5.537 12.363 12.363 12.363 6.828 0 12.365-5.533 12.365-12.363v-54.803h-24.728z"/><path d="m83.98 305.905c0 6.83 5.537 12.363 12.363 12.363 6.828 0 12.365-5.533 12.365-12.363v-54.803h-24.728z"/><circle cx="81.662" cy="103.585" r="22.5"/><path d="m145.413 91.748 4.057 4.422 3.389-3.11-5.802-6.324c.264-.861.531-1.719.78-2.599 1.199-4.253-1.276-8.672-5.528-9.871-2.114-.596-4.268-.284-6.048.702l-2.669-2.909c-9.068-9.884-11.741-26.825-11.324-35.8l-.056-.002c.516-8.482-2.585-17.612-9.255-24.883-12.01-13.09-31.023-15.19-42.467-4.691s-10.985 29.623 1.025 42.713c6.671 7.271 15.501 11.145 23.995 11.359l-.002.056c8.978.356 25.626 4.474 34.695 14.358l2.841 3.096c-.249.478-.454.989-.606 1.528-3.827 13.57-9.944 24.535-16.052 32.925l12.347 10.307c6.079-8.208 12.178-18.602 16.68-31.277zm-70.509-45.461c-10.276-11.201-10.861-27.446-1.304-36.214 9.556-8.767 25.691-6.789 35.967 4.412s10.862 27.447 1.305 36.214c-9.556 8.768-25.692 6.788-35.968-4.412zm33.106 11.856c2.142-1.039 4.153-2.386 5.972-4.055 1.818-1.668 3.334-3.556 4.553-5.602.799 4.893 2.197 10.31 4.483 15.45-4.925-2.718-10.201-4.578-15.008-5.793z"/><path d="m98.392 131.784h-33.46c-2.986-2.357-9.175-7.704-15.708-16.037l-12.332 10.294c7.091 8.974 13.865 14.938 17.724 18v103.061h24.729v-31.469h4.635v31.469h24.729v-103.061c3.859-3.063 10.633-9.027 17.723-18l-12.332-10.294c-6.532 8.332-12.722 13.678-15.708 16.037z"/></g></svg>