<svg id="Layer_1" enable-background="new 0 0 192.189 277.877" height="512" viewBox="0 0 192.189 277.877" width="512" xmlns="http://www.w3.org/2000/svg"><g><path d="m43.224 252.036c-3.876-.587-7.789-1.963-11.462-4.175-13.021-7.842-18.17-23.262-11.478-34.372 6.691-11.109 22.728-13.768 35.749-5.925 13.021 7.842 18.171 23.262 11.48 34.371-3.759 6.242-10.469 9.815-17.936 10.358l.569 4.555c1.869-.151 3.702-.455 5.469-.927l.014.054c8.713-2.194 25.847-2.945 37.337 3.976l2.373-3.94c-4.866-2.931-8.979-7.404-12.278-12.245l.032.475-3.731 2.307c1.089 1.591 2.264 3.156 3.541 4.657-5.492-1.218-11.079-1.511-16.033-1.32 1.762-1.601 3.31-3.462 4.584-5.576 1.273-2.114 2.194-4.353 2.785-6.659.86 1.789 1.842 3.632 2.937 5.473l2.013-2.025 2.041-.18c-3.474-5.769-5.808-11.737-6.863-16.052l-.054.013c-1.9-8.282-7.453-16.165-15.906-21.256-15.218-9.166-34.051-5.811-42.063 7.492-8.013 13.304-2.172 31.519 13.046 40.685 4.365 2.629 9.027 4.219 13.645 4.847l-1.058-2.821z"/><path d="m49.849 266.008 1.563 2.354 3.023-1.868-.167-2.5-2.648.233z"/><path d="m63.639 263.372-.07 3.613 4.538.235 1.644-2.751-2.955-1.681z"/><path d="m18.306 34.864c-2.658 1.041-4.867 2.686-6.623 4.937-1.755 2.248-2.815 3.982-3.183 5.194-.644 2.135-.187 4.177 1.373 6.13 1.558 1.95 3.506 3.279 5.842 3.985 2.039.614 4.234.955 6.583 1.023 2.352.068 4.202-.264 5.551-.996.333-.346.578-.784.74-1.315.057-.19-.015-.435-.213-.738-.197-.304-.464-.506-.795-.605-.351-.106-.977.057-1.872.491-1.237.32-2.678.467-4.327.44-1.65-.027-2.977-.193-3.981-.496-2.012-.605-3.596-1.661-4.753-3.164-1.155-1.505-1.567-2.806-1.235-3.905.335-1.111 1.245-2.619 2.73-4.519 1.486-1.901 3.36-3.228 5.627-3.977 2.265-.75 4.101-.914 5.506-.491.446.134 1.029.563 1.749 1.282.72.72 1.173 1.522 1.36 2.408.055.274.136.651.249 1.128.317 1.349.334 2.493.051 3.434-.248.825-.811 1.508-1.687 2.045-.878.537-1.6.719-2.17.549-.247-.076-.35-.184-.306-.327.148-.494.445-1.015.892-1.563.764-.888 1.181-1.451 1.251-1.687.232-.759-.088-1.271-.964-1.534-.134-.04-.254-.056-.359-.045l.044-.143c.109-.361-.059-.803-.501-1.333-.441-.526-1.216-.956-2.325-1.292-1.178-.354-2.741.132-4.689 1.458-1.948 1.327-3.146 2.732-3.591 4.212-.192.636-.044 1.366.447 2.192s1.134 1.36 1.934 1.602c.52.157 1.3.197 2.338.123 1.037-.076 1.932-.227 2.683-.455.515.9 1.181 1.473 1.997 1.721.295.09 1.019.111 2.17.065 1.154-.045 2.27-.546 3.35-1.504 1.082-.957 1.818-2.087 2.212-3.386.34-1.129.413-2.497.221-4.104-.194-1.606-.806-3.109-1.845-4.508-1.037-1.401-2.344-2.338-3.919-2.814-2.383-.719-4.902-.559-7.562.482zm4.072 8.838c-.317.349-.509.664-.572.945l-.337 1.372c-.072.239-.523.458-1.355.656-.833.199-1.403.253-1.716.157-.323-.098-.553-.203-.682-.315-.133-.112-.159-.289-.086-.538.136-.456.775-1.157 1.909-2.104 1.134-.943 2.139-1.342 3.014-1.193.071.073.134.16.188.258.041.097.093.18.156.25-.028-.007-.201.165-.519.512z"/><path d="m48.639 51.241c1.195.05 3.097.47 5.707 1.258.274.084.537.026.789-.173.254-.2.418-.426.495-.681.14-.465.13-.838-.031-1.113-.159-.275-.662-.54-1.507-.795-.949-.287-2.302-.554-4.057-.807.119-.159.283-.417.495-.766.201-.261.358-.487.469-.682.168-.321.397-.667.685-1.034.853-1.11 1.333-1.845 1.442-2.207.1-.333.076-.658-.077-.98-.153-.318-.419-.535-.797-.649-.551-.166-1.061-.066-1.534.298-.229.147-.987 1.399-2.267 3.756-.507.925-.859 1.526-1.06 1.807-2.035-.354-3.183-.545-3.444-.574.09-.128.214-.278.368-.447 1.12-1.205 1.768-2.101 1.945-2.689.207-.684.002-1.119-.616-1.303-.53-.161-1-.131-1.411.093-.41.221-.899.719-1.475 1.487-.884 1.151-1.598 1.868-2.138 2.149-.529-.138-1.388-.268-2.585-.392-.463-.046-.944-.114-1.445-.203-1.874-.308-2.92-.099-3.138.622-.22.74.406 1.331 1.884 1.781.504.15 1.199.281 2.088.394.998.125 1.661.223 1.993.291-.221.288-.537.78-.944 1.484-.254.495-.537.952-.85 1.374-.135-.038-.612-.22-1.438-.541-.835-.316-1.421-.521-1.752-.623-.492-.149-1.069-.133-1.723.046-.654.181-1.037.453-1.146.814-.234.776.444 1.407 2.041 1.889l2.065.56.408.141c-.817.923-1.377 1.892-1.684 2.907-.082.275-.048.546.101.814.151.27.396.453.726.553.787.239 2.021-.909 3.699-3.448l3.224.476c-.023.075-.084.172-.18.287-.467.554-.832 1.267-1.096 2.141-.093.312-.068.713.08 1.204.149.489.392.785.733.888.444.135.869.062 1.27-.215.398-.279.665-.646.804-1.099l.171-.772c.075-.249.236-.528.487-.847.242-.32.542-.733.903-1.235.598.18 1.29.302 2.078.364.778.068 1.394.171 1.849.309.094.028.287.159.58.393.292.232.504.37.637.409.417.127.821.117 1.211-.03.393-.147.633-.37.726-.675.113-.37.123-.803.042-1.3-.082-.495-.699-.916-1.846-1.264-.164-.048-1.465-.176-3.906-.385.104-.176.242-.393.414-.651.73-1.103 1.24-1.908 1.538-2.409zm-3.45.513-1.308 1.872c-.52.112-1.386.012-2.598-.304-.238-.06-.556-.135-.955-.224.599-1.093 1.236-2.055 1.911-2.887.737.026 1.932.206 3.58.537-.15.298-.359.633-.63 1.006z"/><path d="m70.068 61.175c-.891-.27-1.933.062-3.129.997-1.192.934-1.946 1.926-2.266 2.98-.174.58-.178 1.283-.009 2.117.168.831.864 1.433 2.088 1.801.588.178 1.15.284 1.69.319.538.032 1.124-.043 1.761-.229.636-.187 1.221-.388 1.752-.605.533-.218.951-.56 1.264-1.026.311-.463.532-.919.669-1.365.316-1.044.081-2.037-.701-2.985-.778-.943-1.819-1.611-3.119-2.004zm.372 5.252c-1.051.357-1.66.507-1.833.457l-.778-.297-.22-.052c.128-.83.433-1.532.916-2.108.486-.572.902-.807 1.255-.699.107.156.243.3.411.434.66.553.946.981.853 1.283-.121.409-.324.734-.604.982z"/><path d="m74.263 51.912c-3.675-1.409-5.972-2.327-6.89-2.748-.379-.665-.831-1.074-1.353-1.231-1.186-.358-2.393-.327-3.622.095-1.23.42-2.245 1.167-3.046 2.241-.8 1.073-1.26 1.809-1.38 2.207-.309 1.024-.312 1.907-.007 2.645.304.739.894 1.241 1.767 1.506.739.223 1.642.227 2.707.009 1.065-.217 2.017-.712 2.856-1.484.837-.771 1.381-1.569 1.63-2.396.093-.303.149-.632.174-.988.778.233 1.214.364 1.312.381.097.02.58.274 1.448.764-3.503 3.063-5.374 4.682-5.612 4.859-1.658 1.27-3.138 2.707-4.44 4.312-1.303 1.605-2.023 2.635-2.161 3.093-.272.899.009 1.475.845 1.728.408.121.971-.075 1.686-.594.611-.655 1.323-1.453 2.138-2.398 1.531-1.784 3.253-3.471 5.159-5.058 1.065-.89 1.646-1.388 1.739-1.492l-.018.01c1.656-1.334 2.972-2.489 3.951-3.467.701-.159 1.125-.487 1.276-.981.068-.22.013-.558-.159-1.013zm-10.222.579c-.168.55-.524 1.057-1.074 1.518-.547.461-.996.638-1.349.532-.293-.09-.586-.27-.875-.545-.156-.265-.195-.536-.114-.811.19-.626.642-1.274 1.357-1.943.714-.67 1.385-.91 2.011-.72l.255.076c-.04.921-.109 1.552-.211 1.893z"/><path d="m81.755 65.108c.289-.887.858-2.016 1.705-3.383.812-1.32 1.667-2.772 2.566-4.358.898-1.587 1.388-2.515 1.468-2.78.099-.332.02-.69-.242-1.074-.26-.384-.582-.634-.961-.749-.351-.106-.833-.056-1.445.152-.613.21-1.071.644-1.378 1.301-.308.658-.479 1.04-.51 1.144-.317 1.052-1.028 2.566-2.131 4.542-1.01 1.829-1.714 3.691-2.122 5.587.405.546 1.08.964 2.029 1.25.459-.422.798-.965 1.021-1.632z"/><path d="m78.43 68.714c-.494-.147-1.04-.003-1.638.44-.601.439-.966.878-1.096 1.313-.349 1.158-.001 1.895 1.041 2.21.351.107.842.072 1.477-.104.633-.178 1.086-.566 1.361-1.167l.409-.839c.064-.218-.097-.558-.486-1.017-.389-.46-.747-.738-1.068-.836z"/><path d="m96.256 45.577-66.902-45.577-5.453 7.285 71.773 40.8z"/><path d="m.87 99.413 80.543-18.134-1.257-2.245-80.156 11.32z"/><path d="m80.176 169.747c-.575 4.381 2.511 8.397 6.892 8.972.353.047.703.069 1.05.069 3.955 0 7.395-2.934 7.922-6.961 1.963-14.966 4.79-25.988 7.824-34.104l-15.657-3.692c-3.528 9.972-6.218 21.892-8.031 35.716z"/><path d="m117.248 164.584c-3.471 1.585-6.026 4.668-6.941 8.372l-14 56.666c-1.656 6.702 2.435 13.478 9.137 15.133 1.007.249 2.015.368 3.008.368 5.614 0 10.719-3.81 12.125-9.505l12.552-50.803 1.751-.8-15.241-20.523z"/><path d="m188.496 167.152c.465-.789.826-1.343 1.039-1.66.102-.155.172-.254.199-.288l.005-.01c2.097-2.83 2.813-6.258 2.278-9.484-.021-.946-.164-1.921-.45-2.896-6.868-23.518-14.423-46.799-28.543-66.369 5.894-2.583 12.937-6.399 18.077-11.48l-13.017-9.746c-4.943 3.791-13.454 7.925-20.485 9.888-.499.139-.971.326-1.418.549-1.779.204-3.451.629-4.773 1.216 3.341 11.217-1.701 23.596-12.501 29.068-1.456.738-2.986 1.333-4.546 1.768-6.375 1.78-12.989.86-18.496-2.161-1.776 1.489-3.638 3.325-5.528 5.637-4.152 5.077-7.751 11.525-10.798 19.268l15.74 3.712c3.145-7.391 6.399-11.919 9.065-14.67 13.966 7.598 23.477 14.633 28.914 33.209l-19.903 9.09 15.241 20.523 20.096-9.179c-1.119 3.416-2.175 7.198-3.085 11.344-1.176 5.356-2.102 11.319-2.604 17.862l24.829 3.158c.404-6.177 1.274-11.661 2.369-16.451 1.336-5.849 3.006-10.662 4.578-14.4 1.436-3.408 2.786-5.921 3.717-7.498z"/><path d="m177.653 209.511-24.896-3.166c-.792 16.64 1.261 36.682 8.714 59.601 2.132 6.566 9.183 10.16 15.752 8.026 5.016-1.63 8.297-6.132 8.615-11.094.098-1.532-.087-3.107-.591-4.657-6.229-19.193-7.994-35.411-7.594-48.71z"/><path d="m188.156 61.224c1.046-15.743-19.232-24.434-25.896-27.29-4.059-1.741-8.763.14-10.505 4.202-1.74 4.061.142 8.764 4.202 10.504 16.079 6.892 16.237 11.479 16.234 11.523-.048.727-.502 1.56-1.261 2.452l12.712 9.518c2.531-3.21 4.243-6.841 4.514-10.909z"/><ellipse cx="117.746" cy="83.912" rx="22.496" ry="22.495" transform="matrix(.892 -.452 .452 .892 -25.215 62.288)"/><path d="m106.867 31.878.453 1.727c5.136-1.349 8.324-3.724 9.476-7.056 1.897-5.488-2.516-11.403-2.705-11.652l-1.423 1.078c.04.053 4.029 5.394 2.441 9.991-.945 2.734-3.718 4.723-8.242 5.912z"/><path d="m124.458 23.135c-4.319-2.412-4.897-9.27-4.903-9.339l-1.78.135c.024.32.649 7.873 5.806 10.759 1.287.72 2.726 1.08 4.312 1.08 2.253 0 4.8-.726 7.617-2.176l-.818-1.587c-4.233 2.177-7.676 2.556-10.234 1.128z"/><path d="m136.482 29.135-.309-1.758c-5.345.941-8.698 3.049-9.966 6.267-2.169 5.508 2.701 12.059 2.91 12.335l1.425-1.075c-.045-.06-4.478-6.035-2.672-10.611 1.026-2.597 3.924-4.333 8.612-5.158z"/><path d="m107.865 37.43.912 1.535c4.24-2.52 7.652-3.118 10.147-1.776 4.322 2.325 4.726 9.789 4.729 9.865l1.784-.083c-.016-.347-.451-8.543-5.662-11.351-3.084-1.663-7.092-1.053-11.91 1.81z"/><path d="m43.099 265.127-4.127-3.912-5.573 1.178.04 6.412 8.06.21z"/><path d="m32.549 243.058 2.553 3.847 4.937-3.053-4.598-3.702z"/><path d="m43.851 239.833 3.275 1.651.476-3.699-2.522-.598z"/><path d="m59.472 275.903 3.022-1.869-2.815-2.266-1.77 1.78z"/><path d="m80.013 265.435 3 .875 1.125-2.25-5-5.375-1.5 5.625.75 3.5z"/><path d="m132.289 245.027-23.223 12.297.054.02.067 3.729-3.88-1.759-3.654 1.935 2.339 4.419 30.637-16.222z"/><path d="m30.808 191.007c-2.306-.559-4.29-.318-5.896.713-2.482 1.592-3.074 4.488-3.099 4.61-.105.541.246 1.063.785 1.171.066.013.132.02.197.02.466 0 .883-.328.979-.802.005-.022.469-2.205 2.23-3.324 1.128-.717 2.585-.864 4.334-.444.529.135 1.077-.199 1.206-.737.131-.537-.199-1.078-.736-1.207z"/><path d="m32.1 187.828c.15-.532-.158-1.085-.689-1.234-3.403-.963-6.362-.734-8.798.674-3.707 2.144-4.774 6.237-4.818 6.41-.135.535.189 1.079.726 1.214.082.021.164.03.245.03.447 0 .854-.302.969-.756.009-.034.896-3.441 3.88-5.167 1.952-1.129 4.392-1.288 7.252-.481.53.15 1.083-.158 1.233-.69z"/><path d="m101.13 272.861c.21.021.417.031.619.031 2.628 0 4.584-1.646 4.672-1.721.42-.358.47-.99.11-1.409-.358-.42-.992-.469-1.409-.11-.018.014-1.732 1.42-3.793 1.22-1.335-.134-2.576-.923-3.688-2.346-.34-.434-.97-.514-1.404-.172-.435.341-.512.969-.172 1.404 1.462 1.869 3.166 2.914 5.065 3.103z"/><path d="m101.514 277.877c3.585 0 6.283-2.032 6.409-2.129.438-.336.52-.961.186-1.399s-.961-.523-1.4-.189c-.028.021-2.883 2.144-6.271 1.639-2.221-.333-4.228-1.72-5.963-4.124-.322-.448-.947-.55-1.396-.226-.448.323-.549.948-.226 1.396 2.068 2.866 4.529 4.526 7.313 4.936.46.066.91.096 1.348.096z"/></g></svg>