<?xml version="1.0" encoding="iso-8859-1"?>
<!-- Uploaded to: SVG Repo, www.svgrepo.com, Generator: SVG Repo Mixer Tools -->
<!DOCTYPE svg PUBLIC "-//W3C//DTD SVG 1.1//EN" "http://www.w3.org/Graphics/SVG/1.1/DTD/svg11.dtd">
<svg fill="#000000" version="1.1" id="Capa_1" xmlns="http://www.w3.org/2000/svg" xmlns:xlink="http://www.w3.org/1999/xlink" 
	 width="800px" height="800px" viewBox="0 0 781.582 781.582"
	 xml:space="preserve">
<g>
	<path id="Fill-19" d="M641.138,173.812c-11.902-7.241-27.403-3.474-34.645,8.406l-46.275,75.953
		l-110.823,16.462c-8.599,0.871-91.08,11.937-105.178,13.894l-98.695,15.535l-72.242-76.235l67.773-82.617
		c25.706,5.261,56.639-8.033,76.688-35.538c25.559-35.018,23.918-79.856-3.643-99.962s-70.76-7.977-96.318,27.042
		c-20.049,27.494-23.274,61.006-10.421,83.884l-59.569,92.223c-6.099,0.102-12.174,2.319-16.938,6.833
		c-10.104,9.583-10.534,25.537-0.951,35.64l88.172,93.015c4.797,5.058,11.427,7.863,18.295,7.863c1.301,0,2.613-0.102,3.915-0.305
		l110.755-17.436c0.113,0.702,0.17,1.403,0.306,2.104l39.521,204.325c1.516,7.863,4.808,14.912,9.345,20.886l-15.342,87.177
		l-40.675,93.343c-5.556,12.774,0.283,27.607,13.045,33.174c3.27,1.437,6.687,2.104,10.047,2.104c9.73,0,18.985-5.657,23.115-15.139
		l41.874-96.081c0.792-1.833,1.369-3.733,1.72-5.702l13.985-79.551c0.418-0.067,0.837-0.113,1.256-0.181l46.75,80.704l37.778,93.015
		c3.96,9.787,13.396,15.728,23.342,15.728c3.146,0,6.37-0.6,9.481-1.855c12.887-5.239,19.099-19.937,13.871-32.823l-38.423-94.644
		c-0.441-1.087-0.951-2.127-1.551-3.146l-52.396-90.458c2.693-7.999,3.474-16.768,1.743-25.661L451.07,325.379l128.225-19.042
		c7.388-1.109,13.928-5.442,17.819-11.824l52.42-86.034C656.786,196.554,653.018,181.054,641.138,173.812L641.138,173.812z
		 M233.054,47.896c19.404-26.6,50.768-36.885,69.9-22.923c19.144,13.962,18.929,46.965-0.475,73.565
		c-19.404,26.588-50.756,36.874-69.9,22.912C213.447,107.488,213.662,74.484,233.054,47.896L233.054,47.896z M314.562,173.79
		c0-39.589,32.099-71.688,71.687-71.688c39.601,0,71.688,32.099,71.688,71.688c0,39.588-32.087,71.687-71.688,71.687
		C346.661,245.477,314.562,213.378,314.562,173.79L314.562,173.79z M597.442,90.505c0-16.892,13.702-30.583,30.583-30.583
		s30.571,13.69,30.571,30.583c0,16.881-13.69,30.571-30.571,30.571S597.442,107.386,597.442,90.505L597.442,90.505z"/>
</g>
</svg>