<svg id="icons" enable-background="new 0 0 64 64" height="512" viewBox="0 0 64 64" width="512" xmlns="http://www.w3.org/2000/svg"><g><path d="m55.994 58.499c0-2.691-1.946-4.935-4.504-5.405v-2.095c0-.553-.447-1-1-1h-4.998v-1.105c2.556-.472 4.5-2.714 4.5-5.404s-1.944-4.933-4.5-5.404v-2.096c0-.553-.447-1-1-1h-11.492v-1.99c0-.553-.447-1-1-1s-1 .447-1 1v1.989h-11.492c-.553 0-1 .447-1 1v2.095c-2.558.471-4.504 2.714-4.504 5.405 0 1.929 1.001 3.626 2.508 4.608.016.009.028.019.044.026.585.373 1.242.64 1.948.77v1.105h-4.998c-.553 0-1 .447-1 1v2.096c-2.556.472-4.5 2.714-4.5 5.404 0 1.929 1.001 3.626 2.508 4.608.016.009.028.019.044.026.854.545 1.863.865 2.948.865 3.032 0 5.5-2.468 5.5-5.5 0-2.69-1.944-4.933-4.5-5.404v-1.096h9.996v1.097c-2.554.474-4.496 2.715-4.496 5.403 0 1.929 1.001 3.626 2.508 4.608.016.009.028.019.044.026.854.545 1.863.865 2.948.865 3.032 0 5.5-2.468 5.5-5.5 0-2.691-1.946-4.935-4.504-5.405v-2.095c0-.553-.447-1-1-1h-4.998v-1.105c2.556-.472 4.5-2.714 4.5-5.404 0-2.688-1.942-4.93-4.496-5.403v-1.097h22.984v1.096c-2.556.472-4.5 2.714-4.5 5.404 0 1.932 1.004 3.632 2.516 4.612.012.008.022.016.034.021.585.374 1.243.64 1.95.771v1.105h-4.998c-.553 0-1 .447-1 1v2.096c-2.556.472-4.5 2.714-4.5 5.404 0 1.932 1.004 3.632 2.516 4.612.012.008.022.016.034.021.854.546 1.864.866 2.95.866 3.032 0 5.5-2.468 5.5-5.5 0-2.69-1.944-4.933-4.5-5.404v-1.096h9.996v1.097c-2.554.474-4.496 2.715-4.496 5.403 0 1.932 1.004 3.632 2.516 4.612.012.008.022.016.034.021.854.546 1.864.866 2.95.866 3.032.005 5.5-2.463 5.5-5.495zm-42.988.001c0-.275.225-.5.5-.5s.5.225.5.5-.225.5-.5.5-.5-.225-.5-.5zm-.785 3.247c.26-.446.733-.747 1.285-.747.55 0 1.023.302 1.284.747-.398.158-.83.252-1.284.252-.455 0-.887-.094-1.285-.252zm4.785-3.248c0 .745-.238 1.434-.637 2.002-.199-.286-.439-.535-.712-.749.216-.369.349-.794.349-1.252 0-1.379-1.121-2.5-2.5-2.5s-2.5 1.121-2.5 2.5c0 .458.133.882.348 1.251-.272.213-.513.462-.712.748-.398-.568-.636-1.256-.636-2 0-1.93 1.57-3.5 3.5-3.5s3.5 1.57 3.5 3.5zm8 .001c0-.275.225-.5.5-.5s.5.225.5.5-.225.5-.5.5-.5-.225-.5-.5zm-.785 3.247c.26-.446.733-.747 1.285-.747.55 0 1.023.302 1.284.747-.398.158-.83.252-1.284.252-.455 0-.887-.094-1.285-.252zm4.785-3.248c0 .745-.238 1.434-.637 2.002-.199-.286-.439-.535-.712-.749.216-.369.349-.794.349-1.252 0-1.379-1.121-2.5-2.5-2.5s-2.5 1.121-2.5 2.5c0 .458.133.882.348 1.251-.272.213-.513.462-.712.748-.398-.568-.636-1.256-.636-2 0-1.93 1.57-3.5 3.5-3.5s3.5 1.57 3.5 3.5zm14.202-11.762c.261-.445.733-.747 1.284-.747s1.024.301 1.285.747c-.398.158-.83.252-1.285.252-.454 0-.886-.093-1.284-.252zm.784-3.247c0-.275.225-.5.5-.5s.5.225.5.5-.225.5-.5.5-.5-.224-.5-.5zm-24.988 0c0-.275.225-.5.5-.5s.5.225.5.5-.225.5-.5.5-.5-.224-.5-.5zm.5 2.5c.55 0 1.023.302 1.284.747-.398.158-.83.252-1.284.252-.455 0-.887-.094-1.285-.252.26-.446.733-.747 1.285-.747zm3.5-2.501c0 .745-.238 1.434-.637 2.002-.199-.286-.439-.535-.712-.749.216-.369.349-.794.349-1.252 0-1.379-1.121-2.5-2.5-2.5s-2.5 1.121-2.5 2.5c0 .458.133.882.348 1.251-.272.213-.513.462-.712.748-.398-.568-.636-1.256-.636-2 0-1.93 1.57-3.5 3.5-3.5s3.5 1.571 3.5 3.5zm21.488-3.5c1.93 0 3.5 1.57 3.5 3.5 0 .745-.238 1.433-.636 2.001-.199-.286-.439-.535-.713-.749.216-.369.349-.793.349-1.251 0-1.379-1.121-2.5-2.5-2.5s-2.5 1.121-2.5 2.5c0 .458.133.882.349 1.251-.273.214-.514.464-.712.749-.398-.568-.637-1.256-.637-2.001 0-1.929 1.571-3.5 3.5-3.5zm4.718 21.758c.261-.445.733-.747 1.284-.747s1.024.301 1.285.747c-.398.158-.83.252-1.285.252-.454 0-.886-.094-1.284-.252zm.784-3.247c0-.275.225-.5.5-.5s.5.225.5.5-.225.5-.5.5-.5-.225-.5-.5zm-12 0c0-.275.225-.5.5-.5s.5.225.5.5-.225.5-.5.5-.5-.225-.5-.5zm-.784 3.247c.261-.445.733-.747 1.284-.747s1.024.301 1.285.747c-.398.158-.83.252-1.285.252-.454 0-.886-.094-1.284-.252zm4.784-3.248c0 .745-.238 1.433-.636 2.001-.199-.286-.439-.535-.713-.749.216-.369.349-.793.349-1.251 0-1.379-1.121-2.5-2.5-2.5s-2.5 1.121-2.5 2.5c0 .458.133.882.349 1.251-.273.214-.514.464-.712.749-.398-.568-.637-1.256-.637-2.001 0-1.93 1.57-3.5 3.5-3.5s3.5 1.57 3.5 3.5zm8.5-3.5c1.93 0 3.5 1.57 3.5 3.5 0 .745-.238 1.433-.636 2.001-.199-.286-.439-.535-.713-.749.216-.369.349-.793.349-1.251 0-1.379-1.121-2.5-2.5-2.5s-2.5 1.121-2.5 2.5c0 .458.133.882.349 1.251-.273.214-.514.464-.712.749-.398-.568-.637-1.256-.637-2.001 0-1.93 1.57-3.5 3.5-3.5z"/><path d="m22 1.001-3 .001c-.553 0-1 .447-1 1v1.997c0 2.43 1.744 4.456 4.046 4.903.383 4.246 3.43 7.725 7.452 8.767v3.328h-3.498c-.553 0-1 .447-1 1v8.002c0 .553.447 1 1 1h12.002c.553 0 1-.447 1-1v-8.002c0-.553-.447-1-1-1h-3.5v-3.328c4.022-1.042 7.069-4.521 7.452-8.767 2.302-.447 4.046-2.473 4.046-4.903v-1.997c0-.553-.447-1-1-1h-3v-.001c0-.553-.447-1-1-1h-18c-.553 0-1 .447-1 1zm-2 2.998v-.997h2v3.813c-1.161-.415-2-1.514-2-2.816zm17.002 25h-10.002v-6.002h10.002zm-4.5-8.002h-1.004v-3.023c.167.009.332.025.502.025s.335-.017.502-.025zm-.502-4.998c-4.411 0-8-3.589-8-8v-5.998h16v5.998c0 4.411-3.589 8-8 8zm12-12.997v.997c0 1.302-.839 2.401-2 2.815v-3.812z"/><path d="m28 25.999c0 .553.447 1 1 1h6.002c.553 0 1-.447 1-1s-.447-1-1-1h-6.002c-.553 0-1 .447-1 1z"/><path d="m32.002 4.002c-2.206 0-4 1.794-4 4s1.794 4 4 4 4-1.794 4-4-1.794-4-4-4zm0 6c-1.103 0-2-.897-2-2s.897-2 2-2 2 .897 2 2-.898 2-2 2z"/></g></svg>