<?xml version="1.0" encoding="UTF-8"?>
<svg id="b" xmlns="http://www.w3.org/2000/svg" viewBox="0 0 398.73267 228.44398">
  <g id="c">
    <rect width="398.73267" height="228.44398" style="fill:none; opacity:0; stroke-width:0px;"/>
    <circle cx="114.21617" cy="114.70463" r="103.87314" style="fill:none; stroke:currentColor; stroke-miterlimit:10; stroke-width:15px;"/>
    <circle cx="283.83193" cy="114.70463" r="103.87314" style="fill:none; stroke:currentColor; stroke-miterlimit:10; stroke-width:15px;"/>
    <path d="M276.82122,133.4822c.87891,1.69238,2.0459,3.0625,3.50195,4.11133,1.45459,1.0498,3.1626,1.82715,5.12598,2.33398,1.96191.50781,3.99219.76172,6.09033.76172,1.42139,0,2.94385-.11719,4.56787-.35547,1.62402-.23633,3.14697-.69238,4.56787-1.37012,1.42139-.67578,2.60449-1.60645,3.55273-2.79102.94678-1.18359,1.4209-2.69043,1.4209-4.51758,0-1.96191-.62646-3.55273-1.87744-4.77051-1.25293-1.21777-2.89307-2.2334-4.92334-3.04492-2.03027-.8125-4.33154-1.52344-6.90234-2.13184-2.57275-.60938-5.17676-1.28516-7.81592-2.03027-2.70752-.67578-5.34668-1.50488-7.91748-2.4873-2.57275-.97949-4.87256-2.24854-6.90234-3.80615-2.03027-1.55566-3.67188-3.50195-4.92334-5.83643-1.25293-2.33496-1.87793-5.15967-1.87793-8.47607,0-3.7207.79492-6.95312,2.38574-9.69385,1.58887-2.74023,3.66992-5.02441,6.24268-6.85156,2.5708-1.82715,5.48096-3.17969,8.72949-4.06006,3.24805-.87891,6.49609-1.31982,9.74463-1.31982,3.78906,0,7.42578.42383,10.91162,1.26904,3.48486.84668,6.58057,2.21729,9.28809,4.11084,2.70557,1.89551,4.85449,4.31396,6.44531,7.25781,1.58935,2.94385,2.38574,6.51367,2.38574,10.70898h-15.4292c-.13623-2.16504-.59326-3.95898-1.37012-5.37988-.77881-1.42139-1.81152-2.5376-3.09619-3.34961-1.28613-.81201-2.75781-1.38623-4.41553-1.72559-1.65869-.33789-3.46826-.50781-5.43066-.50781-1.28613,0-2.57227.13672-3.85693.40625-1.28613.271-2.45361.74512-3.50195,1.4209-1.0498.67725-1.9126,1.52246-2.58838,2.5376-.67725,1.01514-1.01514,2.30127-1.01514,3.85742,0,1.4209.26953,2.57227.81201,3.45117.54102.88037,1.60645,1.69238,3.19727,2.43604,1.58936.74561,3.78906,1.48926,6.59814,2.2334,2.80713.74512,6.479,1.69189,11.01318,2.8418,1.35303.27148,3.23096.76172,5.63379,1.47217,2.40137.71045,4.78662,1.84424,7.15625,3.40039,2.36768,1.55762,4.41553,3.63818,6.14111,6.24268,1.72559,2.60547,2.58838,5.93848,2.58838,9.99805,0,3.31641-.64404,6.39551-1.92871,9.2373-1.28613,2.8418-3.19727,5.2959-5.73486,7.35938-2.5376,2.06445-5.68457,3.67188-9.44043,4.82129-3.75537,1.15039-8.10449,1.72559-13.04346,1.72559-3.99365,0-7.8667-.49121-11.62256-1.47168-3.75537-.98047-7.07178-2.52051-9.94727-4.61816-2.87744-2.09766-5.16113-4.77148-6.85205-8.01953-1.69189-3.24805-2.50391-7.10547-2.43604-11.57128h15.4292c0,2.43554.43896,4.50097,1.31934,6.19139Z" style="fill:currentColor; stroke:currentColor; stroke-miterlimit:10;"/>
    <path d="M103.84614,152.61723l-24.53176-75.8252h17.09799l16.88534,53.31124h.21265l17.09799-53.31124h17.20405l-25.16918,75.8252h-18.79708Z" style="fill:currentColor; stroke-width:0px;"/>
  </g>
</svg>