<svg id="Layer_3" height="512" viewBox="0 0 64 64" width="512" xmlns="http://www.w3.org/2000/svg" data-name="Layer 3"><path d="m38 7a6 6 0 1 0 -6 6 6.006 6.006 0 0 0 6-6zm-6 4a4 4 0 1 1 4-4 4 4 0 0 1 -4 4z"/><path d="m46.967 32.745-3.822-14.527a7.007 7.007 0 0 0 -6.77-5.218h-8.75a7.007 7.007 0 0 0 -6.77 5.218l-3.822 14.527a1 1 0 0 0 .724 1.225l3.736.934-2.463 9.854a1 1 0 0 0 .97 1.242h5v16a1 1 0 0 0 1 1h12a1 1 0 0 0 1-1v-16h5a1 1 0 0 0 .97-1.242l-2.463-9.858 3.736-.934a1 1 0 0 0 .724-1.225zm-8.967 11.255a1 1 0 0 0 -1 1v16h-4v-17h-2v17h-4v-16a1 1 0 0 0 -1-1h-4.719l5.689-22.758-1.94-.484-3.052 12.206-2.753-.689 3.565-13.547a5 5 0 0 1 4.835-3.728h8.75a5 5 0 0 1 4.835 3.728l3.565 13.547-2.753.689-3.052-12.206-1.94.484 5.689 22.758z"/></svg>