<?xml version="1.0" encoding="UTF-8"?><svg id="b" xmlns="http://www.w3.org/2000/svg" xmlns:xlink="http://www.w3.org/1999/xlink" viewBox="0 0 670.70695 531.70789"><defs><filter id="d" filterUnits="userSpaceOnUse"><feOffset dx="8" dy="8"/><feGaussianBlur result="e" stdDeviation="2"/><feFlood flood-color="#11422f" flood-opacity="1"/><feComposite in2="e" operator="in"/><feComposite in="SourceGraphic"/></filter></defs><g id="c"><path d="M291.51311,85.92722c-.24854-1.05243-2.91398-10.68801-7.98558-28.9068-3.78127-13.58611-6.46782-22.83035-8.0491-27.73274-3.2418-10.05868-6.33558-19.17074-9.27067-27.3414-.29086-.80915-.52881-1.42789-.71393-1.84567-.01588-.03173-.0529-.05287-.08463-.04758l-.13747.0264c-.0846.01588-.1428.10578-.11633.19038,6.56827,21.85729,12.56535,40.86931,16.10866,52.83712,4.10915,13.87694,6.33558,21.39716,6.68463,22.55534,1.18991,3.97165,2.31106,7.40915,3.36343,10.32307.02121.0529.07408.07934.12692.06349.05294-.01059.08467-.06875.07408-.12162M347.16896,100.37c-.0529-4.50049-.0529-8.74186.00526-12.71876.16927-12.42791.03702-26.31014.12692-36.7866.13754-16.6428-.78265-35.60199-1.41198-50.39385-.00529-.12162-.00529-.18508-.00529-.19038.03702-.12162,0-.21152-.10048-.26442-.09522-.04758-.21685.01588-.22214.12692-.12162,1.43322-.1745,3.05675-.1692,4.86014.05817,16.72214.08457,25.27888.08457,25.66493.0582,9.588.4284,17.45725.39137,25.8342-.01055,2.50673.12692,8.96922.41781,19.38755.18505,6.52066.33318,13.29516.4548,20.33414.01585.99953.13747,2.38511.36491,4.15144,0,.01588.01585.02644.03173.02644.02114,0,.03173-.01585.03173-.03173M424.41765,30.46174c-3.5856,10.82019-5.89663,18.02308-6.9385,21.60868-1.12645,3.88701-1.67111,5.83846-1.64471,5.84901.02644.00529.75095-1.88266,2.16829-5.67452,1.30624-3.49567,3.75483-10.65628,7.34037-21.47647,3.58563-10.82022,5.89666-18.02838,6.9385-21.61398,1.12641-3.88701,1.67114-5.8332,1.64467-5.84379-.0264-.01055-.75092,1.88273-2.16826,5.67458-1.3062,3.49567-3.7548,10.65622-7.34037,21.47647M126.56571,7.27704c11.11108,13.87168,18.01782,22.43371,20.72022,25.67555,9.70964,11.65052,16.29907,19.51447,19.7683,23.58127.61876.72981,4.25193,5.13512,10.88896,13.22118,3.6702,4.46876,7.32983,8.80532,10.97358,13.00962.00529.00533.00529-.00526.00529-.01052v-.02647c-.00529-.03173-.02116-.06346-.04232-.09519-2.64951-3.54328-5.31491-6.95964-7.99616-10.24906-2.89279-3.54858-5.73799-7.39856-8.69425-11.05818-8.2077-10.18034-16.35194-20.76254-25.00916-30.73659-3.6702-4.22548-10.5082-12.04186-20.51398-23.43854-.02116-.02111-.05818-.0264-.08462-.00526l-.00529.00526c-.03701.03176-.0423.08463-.01057.12692" style="fill:none; stroke:#808717; stroke-miterlimit:10; stroke-width:0px;"/><path d="M469.13166,83.24593l8.07547-12.86153c.03173-.0529-.03173-.11636-.0846-.07934-.03702.02644-.06875.05817-.09522.09519-5.73268,8.04377-11.4125,16.188-17.04473,24.42745" style="fill:none; stroke:#808717; stroke-miterlimit:10; stroke-width:0px;"/><line x1="458.67638" y1="97.15463" x2="458.09463" y2="97.68877" style="fill:none; stroke:#808717; stroke-miterlimit:10; stroke-width:0px;"/><line x1="243.40388" y1="120.16477" x2="240.70148" y2="119.37676" style="fill:none; stroke:#00452b; stroke-miterlimit:10; stroke-width:0px;"/><path d="M174.83357,282.63183c-.40721,2.99331-.76154,6.00243-1.06827,9.02213-2.08895,20.5933-4.27837,42.165-6.57356,64.70975-.92548,9.07502-2.00433,17.53128-2.81876,25.56443-.24856,2.45918-1.07884,5.72216-.93605,7.95391.10578,1.69758,2.26876,1.87738,3.55915,1.85623" style="fill:none; stroke:#808717; stroke-miterlimit:10; stroke-width:0px;"/><path d="M228.35819,385.41858c1.99375.55528,4.14087.65573,6.43606.30671" style="fill:none; stroke:#808717; stroke-miterlimit:10; stroke-width:0px;"/><path d="M526.47451,93.77529l4.9183-4.80194c.03176-.03173.03706-.0846.00529-.11636l-.00529-.00529c-.03176-.03699-.08457-.04228-.12162-.01055l-10.94181,9.46108" style="fill:none; stroke:#808717; stroke-miterlimit:10; stroke-width:0px;"/><path d="M548.32651,23.98862c3.34764-3.94521,6.66869-7.90627,9.96869-11.88847.01065-.01585.00536-.03702-.01052-.03173-.01052.00529-.02111,0-.0317-.00529-.02647-.01059-.06875.01059-.11104.05287-6.19814,6.33032-11.98369,12.93035-17.65292,18.95919-3.54331,3.76539-7.1659,7.83752-10.8679,12.21106-4.48991,5.30961-10.89946,12.78222-19.2341,22.41257-5.67455,6.56824-11.34378,13.59134-16.89141,20.49808" style="fill:none; stroke:#808717; stroke-miterlimit:10; stroke-width:0px;"/><path d="M548.32651,23.98862c-9.1649,10.82022-18.36685,21.61398-27.59527,32.38133-4.08275,4.77021-10.20671,11.59758-14.17839,15.81251-1.42257,1.5072-4.74904,5.38895-9.96875,11.63993-3.1572,3.78124-6.51537,7.63126-10.06927,11.55003-.04755.05287-.12692.05817-.18508.01585s-.07401-.12166-.03699-.18512c.39134-.66106.86199-1.31153,1.41731-1.962,1.97259-2.30577,3.90286-4.65388,5.78556-7.04425" style="fill:none; stroke:#808214; stroke-miterlimit:10; stroke-width:0px;"/><path d="M520.32938,98.30222l-2.015,1.85626c-.17979.16394-.10568.46009.12692.52881l.21162.06346c.15862.04761.33318.00529.45474-.11104l7.36687-6.86442" style="fill:none; stroke:#808214; stroke-miterlimit:10; stroke-width:0px;"/><path d="M458.09463,97.68877l-7.38798,10.56106c-.10051.1428.03702.32788.20093.27501.34373-.10051.66109-.35435.95721-.76154,2.4486-3.33702,4.61686-6.44665,6.50484-9.33946.2591-.39664.35958-.81971.30674-1.26921" style="fill:none; stroke:#808214; stroke-miterlimit:10; stroke-width:0px;"/><path d="M220.46249,14.11506l24.81349,50.19818c.03173.06343.1111.08986.17456.05817l.26442-.13221c.24325-.12166-5.10871-11.45484-11.95727-25.31061l-.12689-.24861c-6.84859-13.86106-12.59716-24.99858-12.84042-24.87692l-.26442.13218c-.06875.03173-.0952.11107-.06348.17982M370.60744,108.12817l1.03126.18508c.21155.03176.40719-.10574.44421-.3173l.07934-.4548c8.31879-47.6544,17.01833-91.4112,16.54235-91.4905l-.06346-.01588c-.48127-.07934-9.9529,43.53469-18.27172,91.19438l-.07928.4548c-.03176.21155.10578.41252.3173.44421M422.53476,107.17458l1.15291.6505c.04225.02644.10048.01059.12692-.03702l25.46417-44.98734c13.63366-23.99379,24.40098-43.60874,24.05721-43.80441l-.06346-.03699c-.34899-.19567-11.67692,19.09666-25.31061,43.09574l-25.45887,44.98734c-.02644.04761-.01055.10578.03173.13218M99.44641,65.78868c16.41542,13.61781,32.96834,27.06642,49.66404,40.34047h.00528v-.00529c-16.12983-13.96157-32.39717-27.74859-48.81259-41.3664-16.4154-13.61781-32.96831-27.06642-49.66401-40.34576q-.00529,0-.00529.00529v.00529c16.12983,13.95628,32.39717,27.74859,48.81257,41.3664M306.25207,28.89631l15.10921,89.37089c.10581.59231.95724.59231,1.06299,0,.11107-.61877.11107-1.27451.01059-1.97788-.69279-4.7808-2.69718-20.35106-3.72844-25.49144-2.7606-13.80819-5.10865-26.13564-7.04428-36.98756-1.29032-7.21877-3.07786-15.52697-5.36778-24.9246-.00526-.01052-.01585-.01582-.02644-.01582-.01055.00529-.01585.01582-.01585.0264M248.34332,114.64357l.87258-.59231c.01059-.00529.01588-.02114.00533-.03173l-22.58708-33.1164c-12.48079-18.29809-22.79331-33.00004-23.03128-32.84142l-.05289.03706c-.23269.16394,9.69376,15.12501,22.17455,33.4284l22.59236,33.1111c.00529.01059.01582.01588.02644.00529M541.10773,111.83014c4.84955-3.70193,10.07986-6.97553,14.58564-10.43947,3.99805-3.07789,10.91012-8.09135,20.73071-15.03512,7.4198-5.24615,16.93905-12.55482,28.5631-21.93127.29619-.23802,2.31635-1.81924,6.0605-4.74377q.00536-.00526,0-.01055-.00523,0-.00523-.00529c-.01052-.00529-.02111-.00529-.0264,0-4.45827,2.89807-9.12261,6.23509-13.98811,10.01104-3.91871,3.04093-12.96721,9.74139-27.15622,20.10148-4.87066,3.55916-8.29758,6.1135-10.28076,7.65773-4.95536,3.87116-8.33993,6.47838-10.14331,7.82693-5.25148,3.92407-8.07021,6.06589-8.45626,6.4255-.03699.0317-.04228.08989-.01059.12692.03176.04228.08993.04758.12692.01588M196.43697,119.53011c.1851-.0264.26442-.24854.13221-.38075-15.91301-16.11395-31.86303-31.48757-48.76498-45.59718h-.00529c.02645.02114.04759.04228.06875.06346,24.88225,23.94618,40.46737,39.01832,46.75537,45.22171.56058.55525,1.16345.78268,1.81394.69276M406.33569,80.88329c.03767-.10707-.0205-.22343-.13005-.26107l-.02011-.00671c-.10829-.03496-.22462.02321-.26103.13015l-6.76924,20.23124c-.03764.10703.0205.2234.13008.26107l.02008.00671c.10833.03493.22466-.02324.26103-.13015l6.76924-20.23124M161.48547,157.72876c-13.27406-8.10723-25.05148-14.78657-39.28805-23.41204-1.82451-1.10534-5.5053-3.16256-11.03176-6.16108-10.7409-5.8279-24.40096-13.63899-32.27024-17.9491-5.97067-3.26824-14.04091-7.52019-24.21589-12.75576-2.03608-1.04185-4.92356-2.5861-8.66252-4.63274-5.06636-2.77115-7.95914-4.27835-8.67307-4.5216-.03702.24854,8.76826,5.38363,26.4053,15.41058,10.66687,6.06589,28.54189,16.17215,42.39769,23.57072,6.875,3.6702,14.49041,7.85337,22.84089,12.54953,8.96396,5.03993,19.73658,11.01589,32.31256,17.92263.03702.01588.06875.02647.10578.02117.00528,0,.02644.00529.06346.01585.01586.00529.02644-.00529.03173-.01585.00529-.01588,0-.03176-.01586-.04232M272.55412,95.17668c-.04248.01591.01036.22743.11168.47475.09964.24454.21604.42962.25819.41381.04245-.01591-.01043-.22746-.11172-.47475-.09971-.24454-.21604-.42962-.25816-.41381M273.2918,97.0241c-.03454-.07572-.12973-.10749-.20487-.07133l-.15232.07366c-.07398.03828-.10571.12821-.07133.20484l7.10764,14.70294c.03447.07572.12963.10745.20484.07133l.15235-.07366c.07392-.03828.10561-.12821.07133-.20484l-7.10764-14.70294M557.39625,151.48837c6.1452-2.65482,14.8236-6.64761,26.03513-11.9731,16.87553-8.0226,32.10105-15.62216,45.6871-22.79859,1.62347-.85673,3.09368-1.7029,4.42115-2.54379.01059-.00526.01059-.01585.00529-.02644-.00529-.00526-.01595-.01585-.02117-.02114-.0264-.02114-.06346-.02647-.08986-.01059-10.00052,4.70146-18.25581,8.57262-24.76601,11.61349-5.61629,2.62309-13.03073,6.28271-22.24321,10.98416-10.78849,5.50528-18.17653,9.22839-22.164,11.17454-1.04181.50767-3.34228,1.68173-6.90142,3.52211-.02124.01059-.03176.03702-.02124.05817.01065.02117.03699.03173.05823.02117M192.1475,152.97937c.04813-.0684.02697-.16359-.04362-.21246l-22.85238-15.06833c-.0713-.04487-.16649-.02899-.2125.04358l-.01164.01766c-.04811.06843-.02697.16362.04364.21249l22.85238,15.06833c.07129.04483.16648.02899.21249-.04358l.01164-.01769M130.75418,189.211c.01586-.05287-.01588-.11104-.06875-.12692-13.56494-4.27306-28.8592-9.25482-45.88279-14.95052-10.18027-3.40574-24.52793-7.92212-43.05342-13.54903-5.06107-1.53893-11.82501-3.46924-20.29186-5.79088-3.45335-.94666-10.24376-2.81876-20.38175-5.61635-.04232-.01059-.08993.01585-.10578.05817-.02114.06875.01585.1428.0846.16394,1.13703.38075,4.68032,1.52838,10.62455,3.44809,15.43705,4.98173,30.8106,9.87357,46.11544,14.67551,9.50869,2.98267,20.07504,5.96538,29.1289,8.81058,14.38991,4.52164,28.9491,8.8476,43.6669,12.97263.06875.02111.1428-.02117.15866-.08993l.00529-.00529M146.53893,177.14184c.02778-.07314-.00925-.15778-.08218-.1845l-31.19328-11.97398c-.07326-.03057-.15789.00646-.1845.08215l-.00378.00984c-.02778.07311.00923.15774.08216.1845l31.19331,11.97391c.07324.0306.15786-.00642.18445-.08212l.00381-.00981M552.53611,195.75813c9.82073-2.58078,15.43708-4.04569,16.85965-4.39472,13.69186-3.36875,27.2251-6.73221,40.61018-10.08512,1.03652-.25913,4.77021-1.21634,11.20101-2.86105,7.78991-1.99902,20.72019-5.41013,38.78026-10.22792.35971-.09519,1.5919-.38075,3.69141-.85673.05817-.01055.10051-.07405.08463-.13221v-.00529c-.01059-.05287-.06352-.08989-.11633-.07931-3.03028.57646-9.02216,1.89328-17.96498,3.95577-15.81254,3.63847-25.51687,5.92839-29.11828,6.86972-7.50437,1.96203-19.56734,5.14041-36.1838,9.53513-5.91247,1.56011-10.57158,2.86105-13.97733,3.90289-8.00675,2.44853-12.65534,3.84999-13.95099,4.20434-.04235.01055-.06346.04758-.05294.08986v.00533c.01588.05817.07934.09519.13751.07931M131.17344,189.41462c-.02263.03967.08313.12956.22677.2008.14724.06627.27945.08744.29911.04774.02264-.03964-.08313-.12953-.22675-.20077-.14724-.06627-.27945-.08741-.29912-.04777M137.51533,221.07601c.01866-.10771-.05537-.20819-.1595-.22614l-50.14317-8.66123c-.10423-.02037-.21003.05368-.22608.15949l-.02343.1355c-.01866.10771.05536.20819.15952.22611l50.14315,8.66126c.10423.02037.21-.05368.22608-.15949l.02343-.1355M607.78067,219.82803c-.01175-.13428-.13344-.23476-.27133-.22359l-46.58741,4.48581c-.13576.01411-.23628.13573-.22356.27127l.002.02105c.01168.13428.13337.23476.27127.22362l46.58741-4.48584c.13583-.01407.23634-.13573.22362-.27127l-.002-.02105M64.4103,236.85485c15.52697,1.61827,31.0962,3.10433,46.6972,4.45818,1.94615.16923,4.27309.34906,6.96492.53943q.01055,0,.00529,0h-.0106c-5.38894-.78268-10.78848-1.4755-16.20386-2.07307-12.44375-1.37502-24.88225-2.77645-37.33659-4.07213-12.45434-1.30098-24.91398-2.49088-37.37361-3.70722-5.42068-.53414-10.85195-.9678-16.28322-1.31682h-.01055q-.00529,0,.00529,0c2.67596.3702,4.98699.67161,6.92788.9096,15.54279,1.88799,31.08564,3.64376,46.61785,5.26203M567.7881,247.86015c0,.20096,17.09754.35432,51.28228.47068.06339,0,.12162,0,.18508-.00529h.17979c34.18468-.59231,51.27169-.98894,51.27169-1.18991s-17.09754-.35432-51.28222-.47068h-.18521c-.0581.00529-.12156.00529-.17979.00529-34.18462.59231-51.27163.98894-51.27163,1.18991M108.84933,280.45298c-7.47261.81446-11.78802,1.30629-12.9462,1.48078-2.06778.30674-3.79709.3702-5.80673.6505-5.45241.75625-9.10676,1.19518-10.96828,1.30624-.03702.00529-3.22595.37546-.05287.01057.01585-.00528.0264-.00528.03702,0,1.80865.05815,3.79182-.01057,5.95479-.19565,5.8332-.49713,13.79234-1.2957,23.87744-2.39571,10.08513-1.09472,18.02841-2.02544,23.83516-2.79228,2.14712-.28561,4.09856-.64523,5.85434-1.08942.01057-.00529.02114-.01059.03701-.01059,3.17838-.32262-.01586,0-.05287,0-1.84569.29084-5.51059.65047-10.99473,1.08411-2.0202.15865-3.72309.47068-5.81202.61348-1.16347.07932-5.48416.52885-12.96205,1.33797M642.39775,305.2559c-2.73939-.66634-4.35763-1.05237-4.84955-1.15287-15.60092-3.19952-29.34565-6.16637-45.41209-9.11732-1.08933-.19572-7.66822-1.40146-19.73118-3.61731-1.4808-.26975-5.28847-1.08415-11.42838-2.43798-3.74434-.81974-7.57842-1.52838-11.50778-2.12599.01595.00529.03176.00529.05823.0106,4.33116,1.03124,8.49331,2.05193,12.47548,3.06201,6.82743,1.73463,13.75532,3.19952,22.10047,4.83365,21.70926,4.25193,41.13374,7.80048,58.27369,10.65099.02647.00528.05817-.0159.06346-.04232.00529-.02644-.01582-.05817-.04235-.06348M124.95273,302.62229c-1.53367.32787-3.15194.62402-4.85483.88846-5.44712.84083-10.94185,2.05717-16.14041,2.99326-18.11304,3.24711-30.16546,5.35191-36.16786,6.30914-9.85242,1.57597-16.12983,2.95096-29.31928,5.63222-11.74038,2.38512-27.05051,6.00238-38.39428,8.42453-.0529.0106-.08463.06348-.07405.11633v.00529c.01059.06348.06875.1005.13221.08993,14.12552-2.5332,22.20099-4.00869,24.23177-4.42648,6.11876-1.2639,14.71253-2.57547,21.25436-3.8447,13.59667-2.6337,30.63081-5.97596,51.10249-10.03224,9.27067-1.83508,18.93803-4.2096,26.20966-5.63219.83029-.16396,1.35914-.22742,2.05193-.39137.03701-.01055.05817-.04228.04759-.07932-.00529-.03702-.04232-.05815-.07932-.05286M605.05594,348.99159c9.59852,4.16202,20.27062,8.95334,29.26108,12.50721,8.58847,3.39522,14.67015,6.12404,23.28515,9.69905.04228.02113.07934.03175.08993.03175.00529,0,.0264.00529.0581.01059.01595.00526.02647-.00529.02117-.02647-.00523-.02116-.02117-.04228-.04228-.05289-1.87737-1.01013-2.96153-1.58654-3.25242-1.72403-16.10866-7.49379-32.34424-14.92936-48.74915-22.03706-9.59859-4.15675-20.27068-8.95336-29.26115-12.50725-8.58841-3.39519-14.67015-6.12404-23.28502-9.69902-.04241-.01591-.07405-.03175-.08993-.03175-.00529,0-.02653,0-.05817-.01059-.01588-.00528-.02647.01059-.02124.02642.00536.02117.02124.04233.04241.05294,1.87737,1.01534,2.96153,1.5918,3.25236,1.72929,16.10872,7.48851,32.3443,14.9241,48.74915,22.0318M101.9373,352.74639c-14.37406,5.96538-29.15534,12.15289-43.60344,18.98562-.01588.00523-.02644.02114-.02114.04227l.02644.13752c.01055.06346.07934.10045.13747.07403,14.49042-6.08702,29.01257-12.10001,43.56642-18.02841.08993-.04227.18512-.07929.28034-.11631,14.37404-5.96544,29.15003-12.15822,43.59813-18.98564.01586-.01054.02644-.02644.02644-.04756l-.02644-.13752c-.01059-.05817-.07932-.0952-.13751-.07403-14.49041,6.09231-29.01252,12.10001-43.56644,18.0337-.09519.03696-.18508.074-.28027.11633M57.66224,372.17092c.09519-.01583.1692-.05817.21681-.12162.05817-.06877.02117-.17981-.06872-.20095-.02117-.00529-.09525.01055-.21688.05817-.06875.02116-.10574.09519-.08986.16391.02111.06877.08986.1164.15865.1005M639.40453,438.02298c-2.89284-2.163-5.52113-4.34712-8.60958-6.50483-13.2583-9.27069-24.30056-16.98655-33.12699-23.15823-4.69087-3.27355-10.00587-6.83268-15.93423-10.67737-13.42737-8.70485-22.08989-14.81301-36.04087-24.34284-.00529-.00529-.01065-.00529-.02117,0-.00529.00529-.01059.00529-.01588.00529-.01052.00529-.01052.02644,0,.03699,9.32887,7.04428,18.10778,13.43271,26.33131,19.16012,9.83131,6.84861,18.72649,13.04668,26.68567,18.59957,8.23412,5.74855,17.98603,12.18993,29.2452,19.32937,4.08268,2.59133,7.54136,5.19856,11.45484,7.70003.01582.01055.04228.00526.05287-.0106v-.00529c.03176-.0423.02117-.10047-.02117-.1322M139.24746,380.12478c-1.57068,1.01539-2.5755,1.66059-3.01443,1.9356-3.43221,2.13656-12.57069,7.76347-27.42602,16.87553-15.98704,9.81009-29.60485,18.44617-40.85343,25.91875-15.1885,10.08513-23.4755,15.59043-24.85581,16.51591-4.09327,2.74472-7.48846,5.25146-10.19089,7.52548-.04758.04232-.04758.04763.01062.01059,7.25044-4.61156,13.70767-8.76829,19.46683-12.27455,8.24474-5.02405,14.739-9.04855,19.47215-12.07359,13.61252-8.7048,34.9938-22.55001,64.14915-41.54091,1.43317-.93607,2.60721-1.76633,3.52212-2.50144.10048-.07936.12162-.22742.04759-.32791-.07932-.10574-.22212-.13218-.32788-.06346M539.4842,457.34702c-.2275-.25382-1.026-.99423-2.3904-2.22113-1.42257-1.28513-3.35294-3.27884-5.80144-5.98655-2.51732-2.78702-4.80204-5.28845-6.85384-7.51491-11.34913-12.30099-22.8727-25.01446-30.57268-32.58755-7.75818-7.63657-15.31545-14.88706-22.6717-21.74619q-.00526-.00529-.00526,0c.02644.02114.04758.0423.06872.06346,11.73515,12.03125,23.29574,24.00967,34.6765,35.92456,2.26348,2.37452,4.43703,4.61158,6.52073,6.71638,1.95145,1.97257,4.63271,4.79665,8.04368,8.46155,5.28324,5.68509,11.57124,12.02068,18.86406,19.00147.0317.03173.08457.03173.11633,0,.03176-.02644.03699-.07936.00529-.11109M392.73577,394.10876c-.0386-.09093-.14432-.13321-.23734-.09114l-.20293.09036c-.09012.04207-.13241.14787-.09115.23736l28.64202,54.82473c.03857.0909.14435.13321.23737.09114l.2029-.09036c.09012-.04207.13247-.14787.09115-.23739l-28.64202-54.82469M215.84566,406.00128l-.43366-.43364c-.02644-.02116-.06875-.02116-.08991,0l-29.28226,29.38802c-10.58751,10.61926-19.05436,19.33994-18.91685,19.48272l.02116.02116c.14278.13752,8.83174-8.36107,19.41926-18.98562l29.28226-29.38274c.02114-.02114.02114-.06348,0-.08989M493.29995,494.56728c-1.95671-3.47981-4.28894-6.73221-6.34616-10.21733-1.44374-2.44327-2.92448-4.83891-4.45285-7.1817-9.40824-14.43226-17.97551-26.95537-25.70202-37.56933-2.07836-2.85044-5.22495-7.39327-9.43458-13.62306-3.26298-4.83369-7.314-10.34428-12.14763-16.52649-.10051-.12166-.17979-.25915-.24325-.40195-.24857-.55528-.55528-1.06828-.93081-1.52834h-.00529c1.73467,2.71299,3.32121,5.33605,5.07166,7.75816,5.88607,8.13898,11.0106,16.55822,16.57408,24.5121,4.18846,5.9918,10.85721,15.5798,16.37308,23.85097,1.83512,2.75532,4.16735,6.09233,6.98605,10.02167,2.56493,3.56972,5.71161,8.49327,7.63132,11.46009,2.18414,3.37405,4.36299,6.54185,6.54184,9.50341.01582.02114.04758.02644.06872.01054.02117-.01583.02647-.04756.01585-.06875M373.42623,458.43646c1.63409,9.3606,3.30529,18.90627,5.01346,28.63177.99953,5.67455,2.30047,12.48609,3.91345,20.43466.01055.03702.04761.06346.08463.05289.01585-.00526.03173-.02116.02644-.03702-1.35914-8.57259-2.66541-17.15578-3.91877-25.76013-.37546-2.59136-1.62356-10.26492-3.74421-23.026-.02644-.1745-.05817-.34904-.0846-.52357-.03173-.16922-.06346-.34373-.09519-.51295-2.32697-12.72937-3.74954-20.3712-4.27309-22.93609-1.73463-8.51973-3.41107-17.04478-5.02934-25.56977-.00529-.01586-.02117-.02644-.03702-.02644-.04232.00526-.06878.0423-.06346.07932,1.17406,8.0226,2.25286,14.87645,3.23654,20.55628,1.68173,9.73077,3.34228,19.27646,4.97117,28.63706M299.38235,510.06778c.35429-1.68701.97835-3.0567,1.14226-5.03988.01588-.17454.04764-.34907.10581-.51826.46539-1.34859.9149-3.04089,1.34329-5.07695,2.67064-12.65001,5.42065-25.50099,8.24471-38.54768,2.84517-13.14184,5.24615-24.53847,7.20289-34.18994,1.39616-6.89088,2.40625-12.03655,3.03554-15.44763.0529-.29084.01062-.5976.01062-1.08942-.00529.04763-.01062.08463-.01588.1005-1.07354,4.46344-2.31635,9.08557-3.34228,13.70767-.65054,2.89814-2.12071,9.42937-4.42119,19.59909-4.13033,18.23996-8.25533,38.54239-12.37503,60.91261-.08463.46537-.18512,1.21637-.29615,2.25819-.11633,1.12645-.59227,2.19473-.72981,3.31588-.00529.02642.01588.04756.04235.05286.02111.00529.04758-.01057.05287-.03702M273.03519,415.55226c-1.16876,2.36395-2.163,4.28896-3.65964,6.98077-16.69567,30.0861-28.81159,52.51981-36.35294,67.30111-8.48799,16.63749-13.36396,26.2149-14.61732,28.73224-.08991.17451-.17453.4125-.25913.70338,0,.00529,0,.01583.00528.02113.01059.00531.01586,0,.02116-.00529.02644-.04227,1.56011-2.72882,4.61155-8.0649.77741-1.35385,6.11876-11.09522,16.0188-29.22408,3.6966-6.76397,11.16921-21.1063,22.41783-43.03757,1.5389-3.00383,2.97738-5.43656,4.35237-8.34521,1.76107-3.74951,2.80821-5.84906,3.13606-6.30386,2.163-2.9827,3.72837-5.84905,4.69616-8.59906.03702-.10048-.01585-.21155-.11107-.25384-.10048-.0423-.21149,0-.2591.09519M613.80838,493.12884c-.23808-.43895-6.00782-6.31443-17.31974-17.61591-9.56689-9.56156-23.86164-24.33753-34.82463-34.9938-10.31252-10.02694-18.03367-17.71111-24.50146-24.2635-.07934-.07932-.14286-.1322-.19038-.14809-.01595-.00529-.03176.0106-.02117.02644,6.84331,7.41445,11.71927,12.56013,14.63322,15.43705,7.49372,7.40387,13.93511,13.90867,19.3188,19.50919,5.33605,5.54758,9.10144,9.38173,11.30675,11.50772,7.78991,7.52017,13.64944,13.59136,21.42876,20.89475,6.64235,6.23508,10.02705,9.45579,10.14867,9.662.00529.00531.01059.00531.01588.00531.00529-.00531.01052-.01586.00529-.02114M242.9778,420.37571c.0453-.06383.02416-.15373-.03886-.19816l-.05268-.03539c-.06412-.04183-.154-.02594-.19816.03886l-17.16682,25.54687c-.04532.06383-.02416.15373.03888.19819l.05266.03536c.0641.04183.154.02597.19817-.0389l17.16681-25.54684M81.21707,492.98074c8.55145-6.9279,14.38991-11.79858,17.52597-14.61205,12.43849-11.15335,19.40871-17.36202,20.91062-18.62067,7.09186-5.95482,16.48419-14.05678,28.16641-24.30584,4.86538-4.2678,9.99521-8.75771,15.38416-13.4697.02644-.02117.02116-.0582-.00529-.0582-.00528,0-.02114.01057-.04759.03173-7.42502,5.71682-14.34762,11.43369-21.45533,17.64233-7.1553,6.25101-14.93993,12.17935-21.48176,17.94909-5.01344,4.42645-10.25435,9.18078-15.72261,14.27358-8.68369,8.08606-15.51639,13.88223-23.30629,21.13272-.01059.01057-.01059.02647,0,.03173.00529.01057.02114.01586.03173.00528M340.96027,425.89121c-.41775,9.15434-.825,18.38804-1.22693,27.69573-.41775,9.60388-.6293,14.58561-.63988,14.94522-.44951,13.61779-.69808,22.3914-.74037,26.31012-.1164,11.18514-.25384,19.10725-.41781,23.76639-.14277,4.01924.21681,8.97984.11633,12.29038q0,.00534.00529.00534s.00529,0,.00529-.00534c.16397-.7668.2803-1.81393.3385-3.13601.42304-9.85246.86199-19.67315,1.31682-29.47267,1.12112-24.00437,1.53364-48.13567,1.24275-72.39917M274.82799,476.42783l28.63321-78.91168c.01059-.0317-.00529-.06872-.04225-.07929l-.14283-.04759c-.19564-.06875-17.64908,46.04908-21.66831,57.6573l-.07934.22738c-4.02452,11.60821-7.12355,21.07459-6.92792,21.14329l.14806.05292c.03173.01057.06875-.01059.07937-.04233M639.70846,438.28705c-.02369.03738.06101.12727.17985.19593.11911.06883.2355.09529.25939.05863.02363-.03741-.06094-.12729-.17979-.19593-.11911-.06888-.2355-.09532-.25945-.05863M210.56247,446.60089c-2.69183,3.42161-5.50001,7.06537-8.42982,10.94181-3.21009,4.25195-6.08702,7.95916-8.63077,11.12695-14.19955,17.68994-23.4808,29.43561-27.84379,35.23708-7.09184,9.42932-14.07263,18.67359-20.93707,27.72214-.01057.01593-.01057.04233.00529.0582h.00529c.03702.03173.09519.0264.12692-.01054,6.93319-8.20775,13.19474-15.84958,18.77407-22.92028,5.10866-6.46779,15.31541-19.57262,30.61496-39.31449,4.97116-6.4149,10.41828-14.025,16.33608-22.83033.00529-.00529,0-.01054-.00529-.01583-.00528,0-.01057,0-.01586.00529M424.31184,530.87265c-2.79226-9.92121-5.88604-20.76785-9.28655-32.53999-4.30476-14.89761-9.33413-29.11832-14.07258-43.58229-.62936-1.9197-1.50194-4.13026-2.61254-6.63701,4.79135,16.08753,7.79523,25.44282,12.38036,40.52557,3.80767,12.53894,7.52548,24.45916,11.15866,35.77117.58172,1.80866,1.38554,3.96635,2.40622,6.47315.00533.00521.01062.01054.01588.00521.01055,0,.01055-.01054.01055-.01582M532.70434,490.09325c5.39951,6.66348,11.26976,13.89281,17.60004,21.68802,2.90337,3.56972,5.79085,6.89086,8.65716,9.96344.02647.02647.07411.02647.06352,0-.00529-.0158-.02111-.0264-.05294-.03173-8.60965-10.67211-16.58457-21.80961-25.22062-32.4712-8.63611-10.65625-17.88564-20.76778-26.53757-31.40291,0-.02647-.01062-.04759-.02114-.0529-.02647-.01583-.03706.03175-.01059.06348,2.40625,3.43749,5.06107,6.94904,7.95385,10.53462,6.30911,7.80579,12.16878,15.04569,17.56828,21.70918" style="fill:none; stroke:#808717; stroke-miterlimit:10; stroke-width:0px;"/><path d="M291.31211,85.98535c-1.05237-2.91392-2.17352-6.35143-3.36343-10.32307-.34906-1.15818-2.57548-8.6784-6.68463-22.55534-3.54331-11.96781-9.54039-30.97984-16.10866-52.83712-.02647-.0846.03173-.1745.11633-.19038l.13747-.0264c.03173-.00529.06875.01585.08463.04758.18512.41778.42307,1.03652.71393,1.84567,2.93509,8.17066,6.02887,17.28272,9.27067,27.3414,1.58128,4.90239,4.26783,14.14663,8.0491,27.73274,5.07159,18.21879,7.73703,27.85436,7.98558,28.9068.01059.05287-.02114.11104-.07408.12162-.05284.01585-.10571-.01059-.12692-.06349h0Z" style="fill:#ffc400; stroke-width:0px;"/><path d="M347.1055,100.37529c-.22743-1.76633-.34906-3.15191-.36491-4.15144-.12162-7.03898-.26975-13.81348-.4548-20.33414-.29089-10.41833-.42836-16.88082-.41781-19.38755.03702-8.37695-.33318-16.2462-.39137-25.8342,0-.38605-.0264-8.94279-.08457-25.66493-.00529-1.80339.04758-3.42692.1692-4.86014.00529-.11104.12692-.1745.22214-.12692.10048.0529.13751.1428.10048.26442,0,.00529,0,.06875.00529.19038.62933,14.79187,1.54952,33.75105,1.41198,50.39385-.08989,10.47646.04235,24.35869-.12692,36.7866-.05817,3.97691-.05817,8.21827-.00526,12.71876,0,.01588-.01059.03173-.03173.03173-.01588,0-.03173-.01055-.03173-.02644h0Z" style="fill:#ffc400; stroke-width:0px;"/><path d="M433.92628,3.31069c.02647.01059-.51826,1.95677-1.64467,5.84379-1.04185,3.5856-3.35287,10.79375-6.9385,21.61398-3.58553,10.82019-6.03413,17.9808-7.34037,21.47647-1.41734,3.79186-2.14186,5.67981-2.16829,5.67452-.0264-.01055.51826-1.962,1.64471-5.84901,1.04188-3.5856,3.3529-10.78849,6.9385-21.60868,3.58557-10.82025,6.03416-17.9808,7.34037-21.47647,1.41734-3.79186,2.14186-5.68514,2.16826-5.67458h0Z" style="fill:#ffc400; stroke-width:0px;"/><path d="M126.56571,7.27704c-.03173-.04228-.02644-.09516.01057-.12692l.00529-.00526c.02644-.02114.06346-.01585.08462.00526,10.00578,11.39668,16.84378,19.21305,20.51398,23.43854,8.65722,9.97405,16.80146,20.55625,25.00916,30.73659,2.95625,3.65961,5.80145,7.5096,8.69425,11.05818,2.68126,3.28941,5.34665,6.70578,7.99616,10.24906.02116.03173.03702.06346.04232.09519v.02647c0,.00526,0,.01585-.00529.01052-3.64375-4.20431-7.30338-8.54086-10.97358-13.00962-6.63702-8.08606-10.2702-12.49136-10.88896-13.22118-3.46924-4.0668-10.05866-11.93076-19.7683-23.58127-2.7024-3.24183-9.60914-11.80387-20.72022-25.67555h0Z" style="fill:#ffc400; stroke-width:0px;"/><path d="M548.32651,23.98862c-9.1649,10.82022-18.36685,21.61398-27.59527,32.38133-4.08275,4.77021-10.20671,11.59758-14.17839,15.81251-1.42257,1.5072-4.74904,5.38895-9.96875,11.63993-3.1572,3.78124-6.51537,7.63126-10.06927,11.55003-.04755.05287-.12692.05817-.18508.01585s-.07401-.12166-.03699-.18512c.39134-.66106.86199-1.31153,1.41731-1.962,1.97259-2.30577,3.90286-4.65388,5.78556-7.04425,5.54763-6.90674,11.21686-13.92984,16.89141-20.49808,8.33463-9.63035,14.74419-17.10296,19.2341-22.41257,3.70199-4.37354,7.32458-8.44567,10.8679-12.21106,5.66922-6.02884,11.45478-12.62887,17.65292-18.95919.04228-.04228.08457-.06346.11104-.05287.01059.00529.02117.01059.0317.00529.01588-.00529.02117.01588.01052.03173-3.3,3.9822-6.62105,7.94326-9.96869,11.88847h0Z" style="fill:#ffc400; stroke-width:0px;"/><path d="M220.46249,14.11506c-.03173-.06875-.00528-.14809.06348-.17982l.26442-.13218c.24327-.12166,5.99183,11.01586,12.84042,24.87692l.12689.24861c6.84856,13.85577,12.20052,25.18895,11.95727,25.31061l-.26442.13221c-.06346.0317-.14283.00526-.17456-.05817l-24.81349-50.19818h0Z" style="fill:#ffc400; stroke-width:0px;"/><path d="M370.60744,108.12817c-.21152-.0317-.34906-.23266-.3173-.44421l.07928-.4548c8.31882-47.65969,17.79045-91.27372,18.27172-91.19438l.06346.01588c.47598.07931-8.22356,43.83611-16.54235,91.4905l-.07934.4548c-.03702.21155-.23266.34906-.44421.3173l-1.03126-.18508h0Z" style="fill:#ffc400; stroke-width:0px;"/><path d="M422.53476,107.17458c-.04228-.0264-.05817-.08457-.03173-.13218l25.45887-44.98734c13.63369-23.99908,24.96162-43.29141,25.31061-43.09574l.06346.03699c.34376.19567-10.42355,19.81062-24.05721,43.80441l-25.46417,44.98734c-.02644.04761-.08467.06346-.12692.03702l-1.15291-.6505h0Z" style="fill:#ffc400; stroke-width:0px;"/><path d="M100.30314,64.75746c16.41542,13.61781,32.68276,27.40482,48.81259,41.3664v.00529h-.00528c-16.6957-13.27405-33.24863-26.72266-49.66404-40.34047-16.4154-13.61781-32.68274-27.41012-48.81257-41.3664v-.00529q0-.00529.00529-.00529c16.6957,13.27934,33.24861,26.72795,49.66401,40.34576h0Z" style="fill:#ffc400; stroke-width:0px;"/><path d="M306.29436,28.88572c2.28992,9.39762,4.07745,17.70582,5.36778,24.9246,1.93563,10.85192,4.28368,23.17937,7.04428,36.98756,1.03126,5.14038,3.03565,20.71064,3.72844,25.49144.10048.70338.10048,1.35911-.01059,1.97788-.10574.59231-.95718.59231-1.06299,0l-15.10921-89.37089c0-.01059.00529-.02111.01585-.0264.01059,0,.02117.00529.02644.01582h0Z" style="fill:#ffc400; stroke-width:0px;"/><path d="M248.34332,114.64357c-.01062.01059-.02114.00529-.02644-.00529l-22.59236-33.1111c-12.48079-18.30339-22.40725-33.26446-22.17455-33.4284l.05289-.03706c.23797-.15862,10.55049,14.54333,23.03128,32.84142l22.58708,33.1164c.01055.01059.00526.02644-.00533.03173l-.87258.59231h0Z" style="fill:#ffc400; stroke-width:0px;"/><path d="M541.10773,111.83014c-.03699.0317-.09516.0264-.12692-.01588-.0317-.03702-.0264-.09522.01059-.12692.38605-.35961,3.20478-2.50144,8.45626-6.4255,1.80339-1.34855,5.18796-3.95577,10.14331-7.82693,1.98318-1.54422,5.41009-4.09856,10.28076-7.65773,14.18901-10.3601,23.23751-17.06055,27.15622-20.10148,4.8655-3.77594,9.52983-7.11297,13.98811-10.01104.00529-.00529.01588-.00529.0264,0q0,.00529.00523.00529.00536.00529,0,.01055c-3.74415,2.92454-5.76432,4.50575-6.0605,4.74377-11.62405,9.37645-21.14329,16.68512-28.5631,21.93127-9.8206,6.94376-16.73266,11.95722-20.73071,15.03512-4.50579,3.46394-9.73609,6.73754-14.58564,10.43947h0Z" style="fill:#ffc400; stroke-width:0px;"/><path d="M459.98258,94.82769c5.63223-8.23945,11.31205-16.38367,17.04473-24.42745.02647-.03702.0582-.06875.09522-.09519.05287-.03702.11633.02644.0846.07934l-7.21841,11.49652" style="fill:#ffc400; stroke-width:0px;"/><polyline points="469.98872 81.88091 469.13166 83.24593 469.13166 83.24593" style="fill:#ffc400; stroke-width:0px;"/><path d="M196.43697,119.53011c-.65049.08993-1.25336-.13751-1.81394-.69276-6.288-6.2034-21.87312-21.27554-46.75537-45.22171-.02116-.02117-.0423-.04232-.06875-.06346h.00529c16.90195,14.1096,32.85197,29.48322,48.76498,45.59718.13221.13221.05289.35435-.13221.38075h0Z" style="fill:#ffc400; stroke-width:0px;"/><path d="M399.56646,101.11453c-.03638.10691-.15271.16507-.26103.13015l-.02008-.00671c-.10958-.03767-.16772-.15403-.13008-.26107l6.76924-20.23124c.03641-.10694.15274-.1651.26103-.13015l.02011.00671c.10955.03764.16772.154.13005.26107l-6.76924,20.23124h0Z" style="fill:#ffc400; stroke-width:0px;"/><path d="M161.46961,157.78692c-.03702-.01055-.05818-.01585-.06346-.01585-.03702.00529-.06875-.00529-.10578-.02117-12.57598-6.90674-23.34859-12.88271-32.31256-17.92263-8.35048-4.69616-15.96589-8.87933-22.84089-12.54953-13.8558-7.39856-31.73082-17.50482-42.39769-23.57072-17.63704-10.02695-26.44232-15.16204-26.4053-15.41058.71393.24325,3.60671,1.75045,8.67307,4.5216,3.73895,2.04664,6.62644,3.59089,8.66252,4.63274,10.17498,5.23557,18.24522,9.48752,24.21589,12.75576,7.86928,4.31012,21.52934,12.1212,32.27024,17.9491,5.52646,2.99852,9.20724,5.05574,11.03176,6.16108,14.23657,8.62546,26.01399,15.3048,39.28805,23.41204.01586.01055.02116.02644.01586.04232-.00529.01055-.01586.02114-.03173.01585h0Z" style="fill:#ffc400; stroke-width:0px;"/><path d="M526.47451,93.77529l-7.36687,6.86442c-.12156.11633-.29612.15865-.45474.11104l-.21162-.06346c-.2326-.06872-.30671-.36487-.12692-.52881l2.015-1.85626,10.94181-9.46108c.03706-.03173.08986-.02644.12162.01055l.00529.00529c.03176.03176.02647.08463-.00529.11636l-4.9183,4.80194h0Z" style="fill:#ffc400; stroke-width:0px;"/><path d="M272.55412,95.17668c.04212-.01582.15845.16927.25816.41381.10129.24728.15416.45884.11172.47475-.04216.01582-.15855-.16927-.25819-.41381-.10132-.24732-.15416-.45884-.11168-.47475h0Z" style="fill:#ffc400; stroke-width:0px;"/><path d="M280.39944,111.72704c.03428.07663.00258.16656-.07133.20484l-.15235.07366c-.07521.03612-.17036.00439-.20484-.07133l-7.10764-14.70294c-.03438-.07663-.00265-.16656.07133-.20484l.15232-.07366c.07514-.03615.17033-.00439.20487.07133l7.10764,14.70294h0Z" style="fill:#ffc400; stroke-width:0px;"/><path d="M469.98872,81.88091c-2.15639,2.56994-11.35999,16.14629-11.61909,16.54293-1.88799,2.89281-4.05625,6.00243-6.50484,9.33946-.29612.40719-.61348.66103-.95721.76154-.16391.05287-.30145-.13221-.20093-.27501l7.38798-10.56106,2.34694-3.53217,9.54715-12.27568Z" style="fill:#ffc400; stroke-width:0px;"/><path d="M557.35925,151.40903c3.55913-1.84038,5.8596-3.01443,6.90142-3.52211,3.98746-1.94615,11.3755-5.66926,22.164-11.17454,9.21247-4.70146,16.62692-8.36107,22.24321-10.98416,6.5102-3.04087,14.7655-6.91203,24.76601-11.61349.0264-.01588.06346-.01055.08986.01059.00523.00529.01588.01588.02117.02114.00529.01059.00529.02117-.00529.02644-1.32748.84088-2.79769,1.68706-4.42115,2.54379-13.58605,7.17643-28.81158,14.77599-45.6871,22.79859-11.21153,5.32549-19.88993,9.31828-26.03513,11.9731-.02124.01055-.04758,0-.05823-.02117-.01052-.02114,0-.04758.02124-.05817h0Z" style="fill:#ffc400; stroke-width:0px;"/><path d="M192.13586,152.99706c-.04601.07256-.1412.08841-.21249.04358l-22.85238-15.06833c-.07061-.04887-.09175-.14406-.04364-.21249l.01164-.01766c.04601-.07256.1412-.08844.2125-.04358l22.85238,15.06833c.07059.04887.09175.14406.04362.21246l-.01164.01769h0Z" style="fill:#ffc400; stroke-width:0px;"/><path d="M130.59022,189.30623c-14.71781-4.12503-29.277-8.451-43.6669-12.97263-9.05386-2.8452-19.62021-5.8279-29.1289-8.81058-15.30483-4.80194-30.67839-9.69378-46.11544-14.67551-5.94424-1.91972-9.48752-3.06734-10.62455-3.44809-.06875-.02114-.10574-.09519-.0846-.16394.01585-.04232.06346-.06875.10578-.05817,10.13799,2.79759,16.9284,4.6697,20.38175,5.61635,8.46685,2.32165,15.23079,4.25195,20.29186,5.79088,18.52549,5.62691,32.87315,10.14328,43.05342,13.54903,17.02359,5.69569,32.31785,10.67746,45.88279,14.95052.05287.01588.08462.07405.06875.12692l-.00529.00529c-.01586.06875-.08991.11104-.15866.08993h0Z" style="fill:#ffc400; stroke-width:0px;"/><path d="M146.53512,177.15165c-.0266.07569-.11121.11272-.18445.08212l-31.19331-11.97391c-.07293-.02676-.10994-.11139-.08216-.1845l.00378-.00984c.02661-.07569.11125-.11272.1845-.08215l31.19328,11.97398c.07293.02673.10996.11136.08218.1845l-.00381.00981h0Z" style="fill:#ffc400; stroke-width:0px;"/><path d="M552.53611,195.75813c-.05817.01588-.12162-.02114-.13751-.07931v-.00533c-.01052-.04228.01059-.07931.05294-.08986,1.29565-.35435,5.94424-1.75581,13.95099-4.20434,3.40574-1.04185,8.06485-2.34279,13.97733-3.90289,16.61646-4.39472,28.67943-7.57309,36.1838-9.53513,3.60141-.94133,13.30574-3.23125,29.11828-6.86972,8.94282-2.06248,14.9347-3.37931,17.96498-3.95577.05281-.01059.10574.02644.11633.07931v.00529c.01588.05817-.02647.12166-.08463.13221-2.09951.47598-3.3317.76154-3.69141.85673-18.06007,4.81779-30.99036,8.22889-38.78026,10.22792-6.4308,1.64471-10.16449,2.60192-11.20101,2.86105-13.38508,3.3529-26.91833,6.71636-40.61018,10.08512-1.42257.34902-7.03892,1.81394-16.85965,4.39472h0Z" style="fill:#ffc400; stroke-width:0px;"/><path d="M131.17344,189.41462c.01967-.03964.15189-.0185.29912.04777.14362.07124.2494.16113.22675.20077-.01966.0397-.15187.01853-.29911-.04774-.14364-.07124-.2494-.16113-.22677-.2008h0Z" style="fill:#ffc400; stroke-width:0px;"/><path d="M137.4919,221.21151c-.01607.10581-.12185.17985-.22608.15949l-50.14315-8.66126c-.10416-.01791-.17818-.1184-.15952-.22611l.02343-.1355c.01604-.10581.12185-.17985.22608-.15949l50.14317,8.66123c.10413.01795.17816.11843.1595.22614l-.02343.1355h0Z" style="fill:#ffc400; stroke-width:0px;"/><path d="M607.78268,219.84908c.01272.13554-.0878.25719-.22362.27127l-46.58741,4.48584c-.13789.01114-.25958-.08935-.27127-.22362l-.002-.02105c-.01272-.13554.0878-.25716.22356-.27127l46.58741-4.48581c.13789-.01117.25958.08931.27133.22359l.002.02105h0Z" style="fill:#ffc400; stroke-width:0px;"/><path d="M64.52666,235.70726c12.45434,1.29568,24.89283,2.69711,37.33659,4.07213,5.41539.59757,10.81493,1.29039,16.20386,2.07307h.0106q.00526,0-.00529,0c-2.69183-.19038-5.01877-.3702-6.96492-.53943-15.601-1.35385-31.17023-2.83991-46.6972-4.45818-15.5322-1.61827-31.07506-3.37405-46.61785-5.26203-1.94089-.23799-4.25192-.5394-6.92788-.9096q-.01059,0-.00529,0h.01055c5.43127.34902,10.86254.78268,16.28322,1.31682,12.45963,1.21634,24.91927,2.40625,37.37361,3.70722h0Z" style="fill:#ffc400; stroke-width:0px;"/><path d="M619.23952,246.66495h.18521c34.18468.11636,51.28222.26972,51.28222.47068s-17.08701.5976-51.27169,1.18991h-.17979c-.06346.00529-.12169.00529-.18508.00529-34.18474-.11636-51.28228-.26972-51.28228-.47068s17.08701-.5976,51.27163-1.18991c.05823,0,.12169,0,.17979-.00529h0Z" style="fill:#ffc400; stroke-width:0px;"/><path d="M108.9445,281.30971c-10.0851,1.10001-18.04424,1.89858-23.87744,2.39571-2.16297.18508-4.14614.2538-5.95479.19565-.01062-.00528-.02117-.00528-.03702,0-3.17308.36489.01585-.00528.05287-.01057,1.86152-.11105,5.51587-.54999,10.96828-1.30624,2.00964-.2803,3.73895-.34376,5.80673-.6505,1.15818-.1745,5.47359-.66632,12.9462-1.48078,7.47789-.80912,11.79858-1.25864,12.96205-1.33797,2.08894-.1428,3.79182-.45483,5.81202-.61348,5.48414-.43364,9.14905-.79327,10.99473-1.08411.03701,0,3.23125-.32262.05287,0-.01586,0-.02644.00529-.03701.01059-1.75578.4442-3.70722.80381-5.85434,1.08942-5.80675.76683-13.75002,1.69756-23.83516,2.79228h0Z" style="fill:#ffc400; stroke-width:0px;"/><path d="M642.37664,305.3617c-17.13995-2.85051-36.56443-6.39905-58.27369-10.65099-8.34516-1.63414-15.27304-3.09902-22.10047-4.83365-3.98217-1.01008-8.14432-2.03077-12.47548-3.06201-.02647-.00531-.04228-.00531-.05823-.0106,3.92936.59762,7.76344,1.30625,11.50778,2.12599,6.13991,1.35383,9.94758,2.16823,11.42838,2.43798,12.06297,2.21585,18.64186,3.42159,19.73118,3.61731,16.06644,2.95094,29.81117,5.9178,45.41209,9.11732.49192.1005,2.11016.48653,4.84955,1.15287.02653.00531.04764.03704.04235.06348-.00529.02642-.03699.04759-.06346.04232h0Z" style="fill:#ffc400; stroke-width:0px;"/><path d="M124.98446,302.75447c-.69279.16396-1.22164.22742-2.05193.39137-7.27163,1.42258-16.93899,3.7971-26.20966,5.63219-20.47168,4.05628-37.50582,7.39855-51.10249,10.03224-6.54184,1.26923-15.1356,2.58079-21.25436,3.8447-2.03079.41779-10.10626,1.89328-24.23177,4.42648-.06346.01057-.12162-.02645-.13221-.08993v-.00529c-.01059-.05286.02114-.10573.07405-.11633,11.34378-2.42214,26.6539-6.03941,38.39428-8.42453,13.18945-2.68126,19.46686-4.05625,29.31928-5.63222,6.0024-.95723,18.05481-3.06203,36.16786-6.30914,5.19856-.93609,10.69329-2.15243,16.14041-2.99326,1.70289-.26444,3.32116-.56059,4.85483-.88846.03701-.00529.07403.01583.07932.05286.01057.03704-.01059.06877-.04759.07932h0Z" style="fill:#ffc400; stroke-width:0px;"/><path d="M605.72752,347.39974c16.40491,7.10771,32.64049,14.54328,48.74915,22.03706.29089.13749,1.37505.7139,3.25242,1.72403.02111.0106.03706.03173.04228.05289.00529.02117-.00523.03173-.02117.02647-.0317-.00529-.05281-.01059-.0581-.01059-.01059,0-.04764-.01062-.08993-.03175-8.615-3.57501-14.69668-6.30383-23.28515-9.69905-8.99046-3.55387-19.66256-8.34519-29.26108-12.50721-16.40485-7.10771-32.64042-14.54329-48.74915-22.0318-.29083-.13749-1.37499-.71395-3.25236-1.72929-.02117-.0106-.03706-.03176-.04241-.05294-.00523-.01583.00536-.0317.02124-.02642.03163.01059.05287.01059.05817.01059.01588,0,.04751.01583.08993.03175,8.61487,3.57498,14.69662,6.30383,23.28502,9.69902,8.99046,3.55388,19.66256,8.3505,29.26115,12.50725h0Z" style="fill:#ffc400; stroke-width:0px;"/><path d="M102.32338,353.84111c-.09522.03702-.19041.07405-.28034.11631-14.55385,5.9284-29.076,11.94139-43.56642,18.02841-.05813.02642-.12692-.01057-.13747-.07403l-.02644-.13752c-.00529-.02113.00526-.03704.02114-.04227,14.4481-6.83273,29.22939-13.02024,43.60344-18.98562.09519-.04233.18508-.07937.28027-.11633,14.55391-5.9337,29.07603-11.94139,43.56644-18.0337.05818-.02117.12692.01586.13751.07403l.02644.13752c0,.02113-.01057.03702-.02644.04756-14.4481,6.82742-29.22409,13.0202-43.59813,18.98564h0Z" style="fill:#ffc400; stroke-width:0px;"/><path d="M639.40453,438.02298c.04235.03173.05294.08989.02117.1322v.00529c-.01059.01586-.03706.02116-.05287.0106-3.91348-2.50147-7.37216-5.1087-11.45484-7.70003-11.25917-7.13943-21.01108-13.58082-29.2452-19.32937-7.95917-5.55289-16.85435-11.75097-26.68567-18.59957-8.22353-5.72741-17.00244-12.11584-26.33131-19.16012-.01052-.01055-.01052-.0317,0-.03699.00529,0,.01059,0,.01588-.00529.01052-.00529.01588-.00529.02117,0,13.95099,9.52983,22.6135,15.63799,36.04087,24.34284,5.92835,3.8447,11.24336,7.40383,15.93423,10.67737,8.82643,6.17168,19.86869,13.88754,33.12699,23.15823,3.08845,2.1577,5.71674,4.34183,8.60958,6.50483h0Z" style="fill:#ffc400; stroke-width:0px;"/><path d="M139.52775,380.51616c-.91491.73511-2.08895,1.56537-3.52212,2.50144-29.15536,18.9909-50.53664,32.83611-64.14915,41.54091-4.73316,3.02504-11.22741,7.04954-19.47215,12.07359-5.75915,3.50626-12.21639,7.66299-19.46683,12.27455-.0582.03704-.0582.03173-.01062-.01059,2.70243-2.27402,6.09762-4.78077,10.19089-7.52548,1.38032-.92548,9.66731-6.43078,24.85581-16.51591,11.24859-7.47258,24.8664-16.10866,40.85343-25.91875,14.85533-9.11206,23.9938-14.73896,27.42602-16.87553.43894-.27501,1.44376-.9202,3.01443-1.9356.10576-.06872.24856-.04228.32788.06346.07403.1005.05289.24856-.04759.32791h0Z" style="fill:#ffc400; stroke-width:0px;"/><path d="M539.36257,457.45811c-7.29282-6.98079-13.58082-13.31638-18.86406-19.00147-3.41097-3.66491-6.09223-6.48898-8.04368-8.46155-2.08369-2.1048-4.25724-4.34186-6.52073-6.71638-11.38077-11.91489-22.94135-23.8933-34.6765-35.92456-.02114-.02116-.04228-.04232-.06872-.06346q0-.00529.00526,0c7.35625,6.85913,14.91352,14.10962,22.6717,21.74619,7.69998,7.57309,19.22354,20.28656,30.57268,32.58755,2.0518,2.22646,4.33652,4.72789,6.85384,7.51491,2.4485,2.70771,4.37887,4.70143,5.80144,5.98655,1.3644,1.2269,2.1629,1.96731,2.3904,2.22113.0317.03173.02647.08465-.00529.11109-.03176.03173-.08463.03173-.11633,0h0Z" style="fill:#ffc400; stroke-width:0px;"/><path d="M421.37778,448.93345c.04132.08952-.00103.19532-.09115.23739l-.2029.09036c-.09303.04207-.1988-.00024-.23737-.09114l-28.64202-54.82473c-.04125-.08949.00103-.19528.09115-.23736l.20293-.09036c.09303-.04207.19874.00021.23734.09114l28.64202,54.82469h0Z" style="fill:#ffc400; stroke-width:0px;"/><path d="M215.84566,406.00128c.02114.02642.02114.06875,0,.08989l-29.28226,29.38274c-10.58753,10.62455-19.27648,19.12314-19.41926,18.98562l-.02116-.02116c-.13751-.14278,8.32934-8.86347,18.91685-19.48272l29.28226-29.38802c.02116-.02116.06348-.02116.08991,0l.43366.43364h0Z" style="fill:#ffc400; stroke-width:0px;"/><path d="M493.21538,494.62549c-2.17885-2.96156-4.35769-6.12937-6.54184-9.50341-1.91972-2.96682-5.0664-7.89037-7.63132-11.46009-2.8187-3.92935-5.15093-7.26635-6.98605-10.02167-5.51587-8.27118-12.18462-17.85917-16.37308-23.85097-5.56348-7.95388-10.68801-16.37312-16.57408-24.5121-1.75045-2.42211-3.33699-5.04517-5.07166-7.75816h.00529c.37553.46006.68223.97306.93081,1.52834.06346.1428.14273.28029.24325.40195,4.83364,6.18221,8.88466,11.6928,12.14763,16.52649,4.20963,6.22979,7.35622,10.77261,9.43458,13.62306,7.72651,10.61396,16.29378,23.13707,25.70202,37.56933,1.52838,2.34279,3.00911,4.73843,4.45285,7.1817,2.05722,3.48512,4.38946,6.73752,6.34616,10.21733.01062.02119.00533.05292-.01585.06875-.02114.0159-.0529.0106-.06872-.01054h0Z" style="fill:#ffc400; stroke-width:0px;"/><path d="M374.71662,458.20904c.02644.17453.05817.34907.0846.52357,2.12065,12.76108,3.36875,20.43464,3.74421,23.026,1.25336,8.60435,2.55963,17.18754,3.91877,25.76013.00529.01586-.01059.03176-.02644.03702-.03702.01057-.07408-.01586-.08463-.05289-1.61298-7.94857-2.91392-14.76011-3.91345-20.43466-1.70817-9.7255-3.37937-19.27117-5.01346-28.63177-1.62889-9.3606-3.28945-18.9063-4.97117-28.63706-.98368-5.67983-2.06248-12.53368-3.23654-20.55628-.00533-.03702.02114-.07406.06346-.07932.01585,0,.03173.01057.03702.02644,1.61827,8.525,3.29471,17.05004,5.02934,25.56977.52355,2.5649,1.94612,10.20673,4.27309,22.93609.03173.16922.06346.34373.09519.51295h0Z" style="fill:#ffc400; stroke-width:0px;"/><path d="M299.28713,510.05195c.13754-1.12115.61348-2.18943.72981-3.31588.11104-1.04181.21152-1.79282.29615-2.25819,4.11971-22.37022,8.24471-42.67265,12.37503-60.91261,2.30047-10.16972,3.77065-16.70095,4.42119-19.59909,1.02593-4.6221,2.26874-9.24424,3.34228-13.70767.00526-.01586.01059-.05287.01588-.1005,0,.49182.04228.79858-.01062,1.08942-.6293,3.41109-1.63938,8.55676-3.03554,15.44763-1.95674,9.65147-4.35773,21.04811-7.20289,34.18994-2.82406,13.0467-5.57407,25.89767-8.24471,38.54768-.4284,2.03606-.8779,3.72837-1.34329,5.07695-.05817.16919-.08993.34372-.10581.51826-.16391,1.98318-.78798,3.35287-1.14226,5.03988-.00529.02645-.03176.04232-.05287.03702-.02647-.00529-.04764-.02644-.04235-.05286h0Z" style="fill:#ffc400; stroke-width:0px;"/><g style="filter:url(#d);"><path d="M513.85626,100.97818c-.42307-4.42115-3.52211-7.13414-7.85869-7.26635-1.43848-.04232-2.74998-.00529-3.93462.11104-3.90289.37549-7.78987.8779-11.66107,1.49665l-5.38892,49.5847c-.0582.52355.31197.99953.83556,1.06828.51297.06875,1.10527.07931,1.77162.02114.30955-.02524.61309-.05229.91138-.08086.09771-.00936.19144-.01985.28795-.02957.19728-.01985.39505-.03957.58727-.06088.11578-.01285.22743-.02689.34141-.04025.16882-.01979.33857-.03931.50338-.06026.1173-.01491.23066-.03099.34593-.04645.15529-.02088.31142-.04151.46303-.06343.11717-.01695.23063-.03489.3456-.05245.14486-.02211.29034-.04409.43175-.06717.11417-.01862.22495-.03825.33686-.05752.13625-.0235.27282-.0469.40571-.0713.11036-.02027.21772-.04138.32578-.0623.12966-.02508.25923-.05019.3856-.07621.10539-.02169.20816-.04412.31126-.06646.08063-.01746.16423-.03412.24344-.05197.00068-.00016.004-.00268.00497-.00307.07643-.01724.15607-.03363.23118-.05123,2.91398-.68749,5.11927-.72452,8.14429-1.59183,4.09853-1.17402,6.87498-3.62259,8.32401-7.34566,1.49668-3.82885,2.05722-7.86399,1.68706-12.10005-.05523-.64314-.17718-1.23029-.34454-1.77931-.02495-.08186-.04051-.17159-.06795-.25138-.05113-.14854-.12043-.28185-.18018-.42317-.06391-.15106-.11888-.30961-.19264-.45238-.06766-.13095-.15335-.2468-.2293-.37075-.08434-.13763-.15997-.28256-.25458-.41161-.27036-.36878-.59641-.69082-.9505-.98933-.11688-.09855-.2245-.20493-.35051-.29583-.08499-.06133-.18441-.11049-.27356-.16833-.17698-.11481-.34983-.23315-.54321-.33424-.1987-.10387-.41807-.19044-.63407-.27985-.10013-.04145-.19009-.09138-.29393-.12969-.17162-.06333-.17195-.31229-.00032-.37569.00068-.00026.00123-.00058.0019-.00084,1.90274-.70357,3.25597-2.02527,4.05954-3.96548.88313-2.13127,1.42257-4.92356,1.60768-8.38751l-.04877.03712c.03948-.06175.06301-.09916.06356-.10161.31048-1.37199.39541-2.8259.24964-4.35666ZM498.24472,104.20414c.04758-.42833.4019-.75625.83026-.76683l2.93509-.06346c.86728-.01585,1.62886.57646,1.81927,1.42263.16391.73507.18505,1.80865.06346,3.22066-.19044,2.2476-.12166,5.13512-3.02502,5.64279-1.27451.2274-2.35864.25384-3.26301.07934-.20093-.03706-.3437-.22743-.32259-.43369l.96254-9.10144ZM496.19802,124.62291c.07405-.37546.35435-.67691.71926-.77739.93081-.25913,2.17359-.40719,3.73366-.44421,1.85096-.04761,2.27407,1.03123,2.2476,2.70769-.0264,2.21584-.33844,8.32934-3.60145,8.54615-.99423.06346-2.20528.12162-3.63318.16923-.25384.01059-.46536-.19567-.46009-.44951.04761-3.45868.38079-6.7111.9942-9.75197Z" style="fill:#f6e6b5; stroke-width:0px;"/><path d="M445.41289,105.37287l-3.96635,34.84577c-.01588.13221.09516.24854.22737.23269l10.76732-1.12645c.41781-.04232.79856.24325.8779.65577.10051.53943.09519,1.29039-.01055,2.25819-.30145,2.68123-.51297,4.71731-.64518,6.10818-.0529.56587-.40196,1.05769-.92022,1.29568-.39664.18508-.94666.312-1.64471.37017-8.92168.76154-15.09328,1.24278-18.52553,1.43845-.52885.03176-.95718-.42304-.90431-.95189l4.43174-42.13323.75625-6.45194c.02114-.15868.0846-.31203.17982-.43895.36491-.47068.89898-.74566,1.60765-.825,1.96207-.20626,4.3524-.47598,7.17649-.80915.20623-.02644.38072-.01055.51297.03702.41778.15335.60286.43895.56058.85147-.17453,1.62883-.33318,3.17834-.48124,4.64323h0Z" style="fill:#f6e6b5; stroke-width:0px;"/><path d="M432.10708,109.88924c-.05817,2.11009-.35435,4.78609-.88317,8.03319-.21152,1.31682-.83559,2.06248-1.86681,2.23175-2.6178.42833-4.9236.67161-6.92262.72452-1.00479.02644-1.43319-.43369-1.29039-1.36973.35429-2.34808,1.88266-8.95338-1.82453-8.83175-2.07836.06346-3.51681,2.66012-3.72837,4.45821-1.48606,12.61828-2.26877,19.22887-2.34808,19.83173-.34376,2.60721-.50244,4.94474-.47071,7.00726.01591.75092.32265,1.48077.92548,2.18414,1.30098,1.52305,3.56972.20623,4.2678-1.16347,1.20053-2.36396,1.15818-4.70675,1.45433-8.41397.04764-.5447.33847-1.06299.87794-1.55481.10574-.09519.23799-.15335.38072-.16394l7.69472-.62404c.56061-.04228,1.04188.39134,1.05769.95721.02647,1.18991-.23266,3.64376-.78268,7.35095-.46009,3.11495-1.18458,5.44186-2.16293,6.97023-2.8981,4.53752-7.7106,5.81732-12.88806,6.10818-7.46199.42307-11.35433-3.97694-10.65095-11.25385.22743-2.38511.50244-4.76492.81974-7.13414.51297-4.91301,1.03655-9.82073,1.58125-14.72841.86199-7.84281,2.7341-16.39955,11.86204-18.30339,6.85913-1.43848,14.00389-.90963,14.89761,7.68413h0Z" style="fill:#f6e6b5; stroke-width:0px;"/><path d="M401.78301,135.26861c.12162,3.00388-.14283,6.00769-.79856,9.01687-1.40672,6.44665-5.2885,10.39712-11.65048,11.85674-3.30529.76154-6.42554.81971-9.35534.17982-6.55772-1.43848-6.40436-10.07456-5.16681-15.13034.06872-.28027.30674-.48653.5976-.51297l7.49372-.60289c.59234-.04761,1.08946.44425,1.05243,1.03655-.21152,3.22595-.21152,7.24518,4.41586,6.16105,3.1308-.73507,3.25768-5.0346,3.14665-7.54663-.06875-1.54955-.81441-2.60195-2.24234-3.16253-5.65861-2.22116-11.75623-3.43747-11.64519-10.80963.07934-5.56348-.01055-11.03703,3.47979-15.75964,4.13033-4.31538,9.03804-5.56345,14.65969-5.20916,2.3639.15339,4.25718,1.18991,5.66922,3.12021,2.45383,3.34761,1.92501,8.34522,1.00482,12.2904-.07408.30148-.32262.52355-.62933.55532l-7.90627.825c-.40722.04228-.76154-.27501-.76683-.68749-.01059-1.34329.56584-4.20437.07401-5.77503-.16391-.51826-.61871-.89375-1.16347-.95721-2.07833-.2274-3.46394.65577-4.14614,2.64953-.79853,2.3322-1.35381,6.67405,1.38561,7.84281,2.05722.8779,5.91247,1.15288,8.33463,2.86634,2.46971,1.75048,3.85525,4.33126,4.15673,7.75288h0Z" style="fill:#f6e6b5; stroke-width:0px;"/><path d="M373.43682,121.47101l-4.15147,35.34812c-.04761.41781-.38608.74569-.80915.78801-2.00964.19567-3.88701.43892-5.6375.72981-1.13703.19038-2.17359.20093-3.10962.03702-.35961-.06349-.60815-.39664-.5659-.76157l5.67458-48.2837c.0846-.50774.27495-.88849.82497-.97313,1.97262-.312,4.14088-.58172,6.49952-.81441,1.539-.15335,2.90337-.41778,2.6707,1.68702-.4548,4.10915-.92022,8.18654-1.39613,12.24282h0Z" style="fill:#f6e6b5; stroke-width:0px;"/><path d="M359.80839,113.42723c-1.41198,13.0255-2.44853,21.4236-3.10433,25.20487-1.14759,6.64761-1.88799,12.91444-2.21584,18.80051-.04764.78798-.46009,1.25336-1.23755,1.39616-2.16826.38605-4.54807.62933-7.13943.73511-.54999.02644-1.05237-.33318-1.20572-.86202-.95724-3.23657-1.80871-6.7428-2.55963-10.51348-1.0207-5.12456-2.00961-9.66205-2.96682-13.61252-.03706-.1428-.24328-.13751-.26442.01052-.49182,3.44809-1.31153,8.19716-2.45386,14.24188-.69808,3.68608-.7986,6.35146-1.14759,10.57165-.03702.46009-.40193.825-.86735.86732l-7.47261.60289c-.58701.04758-1.07354-.46009-.9995-1.04185l4.77547-38.79092,1.09472-9.6409c.01588-.13751.12162-.24325.25916-.25913,2.71299-.312,5.35719-.56584,7.93271-.7721,1.09468-.08463,1.7399.37017,1.93553,1.36443.5712,2.86634.72458,4.32067,1.54958,6.87498.83552,2.59136,1.42786,4.97647,1.77689,7.15532.53417,3.29471,1.26925,5.41009,2.0202,8.77885.02644.1111.10051.21685.21152.31733.13224.12162.34909.02644.35438-.15335.12162-3.04087.89372-7.46732,1.02064-10.77791.07934-2.24231.05817-3.87116.43366-6.1188.56061-3.32644.94666-5.62691,1.15288-6.90142.15335-.93078.63459-1.44904,1.45436-1.56011,3.00914-.41248,5.54231-.56587,7.59424-.46542.27501.01059.48653.25387.46009.52888l-.39137,4.01922h0Z" style="fill:#f6e6b5; stroke-width:0px;"/><path d="M326.40113,125.03014l-4.75436,35.42216c-.07398.52359-.4812.93607-1.00479,1.01541-2.3005.34373-4.34185.5447-6.13464.60289-.68217.02644-1.13171-.34906-1.33797-1.11589-1.90387-7.13414-3.89227-14.87647-5.96012-23.22695-.02644-.11104-.13747-.19038-.24851-.17453-.1164.01059-.20629.10578-.21158.22211-.01582.37023-.05817,1.71875-.12689,4.0404-.04764,1.37502-.17456,2.70769-.38608,4.00338-1.51779,9.31302-2.37981,14.67021-2.58074,16.07167-.07937.58172-.55528,1.03126-1.14236,1.07884l-6.81152.55002c-.53411.04228-.97309-.41252-.90963-.94136l5.45774-45.89336.38075-1.99373c.04232-.21681.21155-.38608.42304-.42836,2.41687-.48656,4.89716-.80915,7.4515-.96777,1.31682-.08463,1.7399.25384,2.00958,1.61824,1.8457,9.29714,2.84523,14.3952,3.00388,15.29428.38605,2.16297.94136,4.69087,1.66588,7.58365.04232.15865.26439.15865.30141,0,.23799-.96777.46542-2.17885.68223-3.62259.35429-2.36396.89372-6.88031,1.61827-13.55965.25384-2.35867.73511-4.70672,1.15288-7.07598.1745-.97835.85144-1.49665,2.03075-1.54426,2.21061-.08986,4.41589-.15862,6.61062-.19567.30674-.00526.5394.26446.50238.5659l-1.68173,12.67115h0Z" style="fill:#f6e6b5; stroke-width:0px;"/><path d="M485.51004,97.63587c-.89372,7.938-1.78218,15.97119-2.66012,24.09956-.28024,2.60195-.76154,6.26153-1.43842,10.97887-.68749,4.75433-1.43319,7.86925-2.24234,9.33413-3.03558,5.50532-9.31825,7.29808-15.53753,6.77453-7.81108-.65577-8.88459-6.67934-8.23945-13.19471,1.05243-10.63511,2.46971-22.69284,4.24666-36.17315.04761-.36494.30674-.66106.66109-.76157l1.70287-.4865,6.6529-.62936c.30145-.0317.57643.17982.62933.48127.12162.72452.12162,1.57066,0,2.5332-1.43322,11.25914-2.73942,22.32261-3.91881,33.19044-.15332,1.43315-.13218,2.80814.06875,4.11438.11636.77216.67165,1.35917,1.34855,1.43322,3.21014.35432,4.35243-1.9356,4.6116-4.89713.44418-5.13512.96777-8.2236,1.42257-13.58079.58701-6.86975,1.78224-14.04088,2.43798-20.19667.23273-2.20002,1.21634-4.34188,3.63318-4.47935,2.00435-.11636,3.99808-.14806,5.97596-.10048.12692.00529.24328.05287.32791.1428.26442.25913.37017.73511.3173,1.41731h0Z" style="fill:#f6e6b5; stroke-width:0px;"/><path d="M296.00831,119.19697l-.79856,4.69084c-.06346.38079-.37546.66635-.75628.7087l-11.62931,1.21102c-.16927.02117-.30674.14809-.33318.31733l-1.29568,8.83175c-.03176.19567.13751.36491.33318.34376l8.83175-.92022c.27501-.02644.5077.19038.49182.46539-.09519,1.69761-.35964,4.06154-.78801,7.09715-.20093,1.41201-.03173,2.49085-1.57066,2.54901-1.80335.07405-4.29424.46539-7.56251.77213-.49182.04761-.89379.42307-.96254.9149l-1.30094,8.86878c-.05287.35961.23802.67694.5976.64518l11.85148-.95718c.52355-.04232.94662.40719.8779.92548-.22217,1.58654-.57649,4.11967-1.05769,7.59424-.09522.6822-.53947,1.09472-1.33274,1.2269-5.28314.8832-11.62931,1.54426-19.03849,1.98318-.80912.04761-1.53364-.07931-2.18411-.39134-.30148-.1428-.48127-.47065-.43898-.80383,1.27457-10.03754,2.56493-20.826,3.8712-32.36544.19034-1.67647.63992-4.7755,1.34852-9.29711l.95724-5.56348c.07405-.43366.41778-.77742.85144-.86202,1.66585-.31203,2.97215-.5077,3.91877-.5976,4.65911-.4284,9.33939-.94666,14.04085-1.54955.80915-.10045,1.7664-.07401,2.87696.08463.35429.04758.60286.3702.56587.72452l-.36491,3.3529h0Z" style="fill:#f6e6b5; stroke-width:0px;"/><path d="M269.03711,127.39936l-7.87454.67165c-.36491.03173-.6558.31733-.69808.68223-.41781,3.65961-.97835,9.08026-1.67647,16.25675-.68749,7.04951-1.52834,13.88223-2.52787,20.49812-.13218.86202-.07934,2.09951-1.16347,2.26348-3.16779.47591-6.01825.63459-8.54089.48124-.43363-.02647-.75095-.4231-.67688-.85147,1.26389-7.24518,1.55481-13.59664,2.63362-20.87887.6558-4.43703,1.31682-9.06974,1.98847-13.89812.16397-1.1952.23799-2.3904.23269-3.59086,0-.24328-.2274-.42836-.46536-.38079-2.15244.41781-4.41589.59231-6.79041.51826-.35963-.01052-.63461-.32259-.59762-.68217l.52357-5.15096.59231-3.60677c.02644-.16391.14806-.29612.30671-.34373.44428-.12692,1.04185-.21681,1.79809-.26972,6.97553-.48124,14.19956-1.02067,21.68276-1.60768.39664-.03176,1.01534.01585,1.86155.13751.44951.06346.77739.46536.75092.92019-.16394,2.91395-.61342,5.8596-1.35911,8.83172h0Z" style="fill:#f6e6b5; stroke-width:0px;"/><path d="M240.70148,122.54984c-.17451.84088-.40722,2.36926-.69277,4.59568-.23271,1.81397-1.54955,1.82982-3.30531,2.01494-3.67549.39131-7.61012.69276-11.79858.9096-.39664.02114-.72453.32259-.7827.71393l-1.04183,7.09712c-.02644.16923.13751.31203.30145.26446,4.66971-1.35388,13.70771-3.18896,14.4375,4.32596.17456,1.8245.1428,3.54325-.09519,5.15626-.40719,2.7024-.74568,5.25145-1.00479,7.64181-.40722,3.69137-.8832,6.1981-1.43848,7.52552-2.5173,6.06057-7.98028,9.01154-14.40049,9.08556-4.23607.04761-7.60482-1.33797-9.29185-5.31487-1.19518-2.81347-.53942-6.73224.22212-9.79426.08462-.33318.35961-.57646.69808-.61877,1.76105-.21152,4.14087-.5394,7.14471-.97835.99953-.14806,1.72405-.10578,1.69761,1.07887-.03702,1.24278-.11107,4.03511,1.70289,4.04037,2.44327,0,3.52211-2.04131,3.89231-4.17258.49182-2.82406.74038-5.3784.75097-7.65773.01057-2.51202-2.9827-2.67067-4.50579-1.61827-.84616.59231-1.33269,1.65529-1.89856,2.66012-.09519.16391-.25913.27498-.44952.29615l-7.82693.81441c-.48125.0529-.88318-.35961-.81971-.84085l3.60672-27.4789c6.35146-.90963,13.94042-1.77166,22.7563-2.59133.81971-.07405,1.48604.09516,2.00961.51297.13221.10045.20098.26442.19569.42836l-.06348,1.90384h0Z" style="fill:#f6e6b5; stroke-width:0px;"/><path d="M212.37643,124.23687l-.93607,4.58513c-.07403.35961-.1851.70864-.32788,1.0524-1.38028,3.16249-2.14182,4.58509-2.98798,7.58894-.26972.96247-2.04136,6.90674-5.32549,17.838-1.77164,5.89666-3.90289,11.77214-5.49471,17.63707-.11107.41248-.44952.72449-.87261.80383l-1.85096.34376-7.26106.65047c-.31202.02647-.55001-.26968-.45482-.56584,1.40674-4.55337,4.08799-11.44955,5.69569-16.54235,1.90384-6.05001,3.76009-12.31157,6.04472-18.32456.84086-2.21587,1.42789-4.28894,1.76105-6.22983.04232-.25913-.17981-.4865-.43894-.44951-2.48029.3702-5.463.69282-8.95338.96251-1.02069.07934-1.96203.04232-2.82933-.10048-.45482-.07405-.76154-.49709-.69279-.95192l1.06827-7.27691c.04759-.31733.27501-.58175.58703-.67165.79855-.22743,1.41201-.35432,1.85096-.38079,7.49375-.39664,14.38992-1.12115,20.6832-2.17359.50241-.08457.94664.3385.88846.84091l-.15335,1.3644h0Z" style="fill:#f6e6b5; stroke-width:0px;"/><path d="M522.66684,150.7215c3.08322,1.01012,5.46303,2.90869,7.13943,5.70628,1.84567,3.21011,2.62842,6.67405,2.35341,10.39186-.30148,4.09327-.62943,7.56251-.97835,10.41297-.06875.57649-.4231,1.07887-.94136,1.34859-.62407.32259-1.41211.55532-2.36393.70864-3.74957.58704-7.11303.90434-10.07986.95195-.6293.01059-1.14769-.48653-1.16344-1.1106-.05294-1.86681.11104-4.45818.49173-7.77932.20632-1.7928.05294-5.46829-2.33214-6.00769-6.1981-1.40675-7.36154,4.4423-7.80579,9.04853-1.80865,18.56784-2.93509,29.23997-3.38993,38.17221-.13751,2.76057.4019,6.03942,3.97697,5.90192,3.60671-.13221,5.3519-2.96156,5.89659-6.1452.63995-3.72837,1.12645-7.73703,1.45962-12.02598.01585-.17453-.13221-.32259-.30671-.30674l-3.63847.29089c-.51297.04228-.9361-.39137-.8832-.90434l1.1635-11.04762c.04228-.40193.36491-.72452.76677-.76683,8.98514-.99423,13.80293-1.70817,18.02318-1.65529.14803.00529.26442.13221.25384.2803-.88856,10.57165-1.78751,19.58848-2.7024,27.03995-1.11599,9.1332-7.83226,17.56302-17.19812,19.58319-4.839,1.04185-10.74621,1.27454-14.9664-1.20575-5.19854-3.06201-7.7635-8.58847-7.27697-14.538.6505-7.91686,1.48612-16.50003,2.51206-25.7496.48127-4.37884,1.11057-11.62405,1.54955-16.44184.25913-2.82932.5976-5.00287,1.01538-6.51011,1.31679-4.73848,3.86587-8.77355,7.64181-12.10532,5.66396-5.0029,14.41105-7.14999,21.78321-5.53705h0Z" style="fill:#ffc400; stroke-width:0px;"/><path d="M455.1595,194.85383c-.0317-.04761-.10578-.03176-.11104.0264l-4.18849,41.27124c-.04232.38079-.33314.68753-.70864.74569-3.43221.52355-7.12885,1.01008-11.08461,1.45433-1.34326.14806-1.67647-.89379-1.54426-2.10483,3.46924-32.21206,6.12932-57.73951,7.97502-76.58763.03173-.30141.25913-.5394.55532-.58701,3.95577-.60289,7.89568-.97835,11.82498-1.12645,1.10004-.03699,1.49138.513,1.72931,1.49668,3.55919,14.59087,6.55772,27.06635,9.00099,37.42116.01062.0529.05817.08463.1111.07934.05287,0,.09516-.04228.10045-.09519,2.01491-20.16491,3.26298-32.90485,3.74425-38.23034.11104-1.22164.69808-1.8774,1.75574-1.95674,3.05146-.23799,6.53661-.48653,10.44476-.75095.58701-.04232,1.09472.40193,1.13174.98894.0529.77739.02644,1.66588-.07408,2.66012-.73504,7.2875-1.72398,16.3625-2.96682,27.22503-.1428,1.2216-.12162,3.22595-.27501,4.58509-.15865,1.36973-1.54419,15.1356-4.16199,41.30823-.11107,1.08416-.71396,1.67647-1.81927,1.78224-3.28409.3173-6.97549.59231-11.06347.81971-.46539.02644-.88843-.2803-.9995-.73514-2.69185-10.84133-5.70095-23.78224-9.02742-38.82791-.06872-.30148-.18508-.59231-.34906-.86202h0Z" style="fill:#ffc400; stroke-width:0px;"/><path d="M427.37392,239.51493l-10.88897.8832c-.99427.07931-1.81397-.76157-1.71346-1.75578l7.737-76.21743c.07408-.76683.68753-1.36973,1.45962-1.42789l10.88894-.88317c.99427-.07934,1.81397.76154,1.71346,1.75578l-7.73697,76.21743c-.07408.76683-.68756,1.3697-1.45962,1.42786h0Z" style="fill:#ffc400; stroke-width:0px;"/><path d="M374.8488,244.17411c-.26442-.0582-.67165-.0529-1.22164.0264-.48127.0582-.74037-.15335-.77739-.6293-1.86685-22.05293-3.00388-36.3265-4.21493-47.40586-.01059-.10048-.09519-.17979-.20093-.17979-.10581,0-.19038.07931-.201.17979l-5.01872,47.55392c-.06875.6558-.56061,1.18991-1.21111,1.31156-2.12594.38605-4.62209.76154-7.48313,1.12115-1.25336.15865-2.53846.14277-3.86061-.04761-.6293-.08989-1.07357-.66106-1.00482-1.29039l8.07024-76.47656c.06346-.60819.5447-1.08942,1.14759-1.15288l18.2346-1.89858c.34376-.03702.6505.21155.67694.55532l3.53269,43.69334c.01059.12692.1111.2274.23802.23796.12689.01588.24328-.06875.27501-.19038l11.90958-44.55536c.10051-.3702.39134-.66106.76683-.75625,1.65533-.40722,3.21543-.69279,4.69087-.85676,5.26207-.58698,9.79955-.95718,13.60199-1.09998.56587-.02114,1.04707.40722,1.08413.97309.05817.79853.0264,1.71343-.09522,2.74472-.48656,4.18317-1.39084,12.67115-2.71828,25.46926-2.36393,22.86208-4.04037,38.78036-5.02401,47.74433-.23273,2.12068-1.01008,1.85096-2.9827,2.06248-5.24615.56058-8.41924.79856-9.51925.71396-.79856-.06349-1.17406-.513-1.12645-1.34855.16391-2.73416.6822-7.89571,1.56537-15.48995,1.3697-11.80916,2.23704-20.85773,3.20481-31.00101.01062-.07934-.04758-.15339-.12692-.16923h-.00526c-.07405.00529-.14283.0529-.16394.12692l-13.92458,47.86066c-.15865.54473-.61345.94662-1.17399,1.03655l-6.9438,1.13703h0Z" style="fill:#ffc400; stroke-width:0px;"/><path d="M316.20498,175.05909c4.05095-3.50626,9.52451-5.88081,15.13031-6.01299,1.82982-.04232,2.80818-.06349,2.92983-.0582,4.54807.13221,8.02786,2.05193,10.4394,5.76445,2.15244,3.31059,3.18367,7.0548,3.09374,11.238-.0264,1.31682-.3173,4.44233-.87255,9.37645-1.24284,11.10579-2.14186,22.86208-3.33706,32.56641-.41778,3.40578-1.35911,6.63702-2.82403,9.69907-3.19426,6.67931-9.8683,11.54471-17.19282,12.56012-4.23607.58701-7.8851.37546-10.94714-.63995-6.89086-2.28459-9.78367-9.64087-9.17548-16.64806.43363-5.0082.89372-9.47167,1.37499-13.3957.96251-7.83226,1.89328-16.64809,2.787-26.44765.12162-1.31682.46539-3.14135,1.026-5.47355,1.21105-5.01875,3.73363-9.19666,7.5678-12.52839M320.47278,208.87357c-.4548,5.05578-1.01012,10.56106-1.66059,16.52118-.37023,3.35817-1.14759,10.05865,4.35766,9.41347,4.21493-.49182,5.55822-5.08221,5.93901-8.70483,1.03652-9.91588,1.60239-15.32598,1.6817-16.23558.45483-5.05581,1.01008-10.56109,1.66062-16.52121.37017-3.3582,1.14756-10.05865-4.35773-9.41347-4.21493.49182-5.55816,5.08221-5.93894,8.7048-1.03658,9.91588-1.60239,15.32601-1.68173,16.23564h0Z" style="fill:#ffc400; stroke-width:0px;"/><path d="M283.24193,226.24088c.32259-.15335.68223-.24854,1.07887-.29615,4.24659-.51297,8.39806-.84614,12.4596-1.00479.37023-.01059.67694.27498.68753.64518.02111.59231-.01591,1.21105-.1111,1.86155-.28553,1.9673-.5976,4.41057-.93601,7.32981-.87261,7.50434-4.22555,13.24761-10.06397,17.22985-2.46441,1.68173-5.06107,2.81873-7.78461,3.41633-2.91925.63992-5.76445.79327-8.53031.46009-7.44088-.89375-12.29569-6.60529-12.76108-13.86639-.03706-.59757.0264-2.35334.19038-5.27259.10574-1.93027.23799-3.67546.4019-5.24086,1.05243-10.08512,1.96733-19.25004,2.74475-27.50008.3437-3.63314.94133-8.23412,1.40143-10.69327,2.22646-11.93605,11.16399-19.97453,23.47553-20.51396,6.16105-.26439,11.06344,1.58128,13.92455,7.45147,1.34326,2.75527,1.91439,5.46826,1.71346,8.13367-.31203,4.10912-.59234,7.32981-.85147,9.66201-.06872.62404-.53414,1.12645-1.14756,1.23752-4.11974.75622-8.33467,1.21105-12.64475,1.36443-.45483.01585-.825-.3702-.78272-.825.29089-3.08319.46542-5.39954.52888-6.94906.12162-2.96682-1.21108-5.42598-4.58513-4.87069-3.49038.57116-4.56392,3.37934-5.15096,6.45194-.32259,1.69232-.5976,3.52211-.81441,5.49473-1.4808,13.2-2.61254,24.41156-3.40048,33.63995-.20096,2.36922-.06349,4.96059,2.08366,6.25094,1.8192,1.09475,4.32596-.12162,5.43653-1.75574,2.09421-3.07789,2.64424-7.48849,2.96156-11.1534.02114-.29615.20623-.56058.47594-.68749h0Z" style="fill:#ffc400; stroke-width:0px;"/><path d="M227.82934,229.63607l-2.96684,28.09765c-.05817.51829-.46009.93078-.97837.99423l-11.63463,1.45433c-.62933.07405-1.23221-.25384-1.51249-.81971-.03702-.07934-.03702-.33847,0-.77739.44423-4.94474,1.53365-15.53753,3.26298-31.77314,2.31635-21.76736,3.58558-33.87265,3.813-36.32121.33318-3.65964.58172-6.57889.74568-8.763.03701-.49182.38077-.9149.86201-1.04714,1.22693-.34373,2.3428-.58172,3.34761-.71393,7.43029-.98365,13.17886-1.47021,17.251-1.45962,2.73941.00529,5.262-.19038,7.31393.7404,7.65769,3.46924,8.47211,11.16395,7.81108,18.55196-.11104,1.22164-.46542,4.45288-1.05243,9.69904-.65573,5.78029-2.77115,11.49713-7.10241,15.38947-3.45862,3.09904-7.04951,5.30432-11.64521,5.74327-2.36393.2274-4.7649.46009-7.1976.69279-.16922.01585-.30143.14806-.3173.312M229.75434,215.80674c4.78608-.39134,9.02213-1.22164,9.76251-6.81155.35433-2.68655.63461-5.15626.85147-7.40915.32787-3.3899.77739-8.13367-3.92933-8.27118-1.38032-.04228-2.79761.02647-4.26252.21155-.25385.03173-.45482.23269-.48125.49182l-2.18414,21.53993c-.01586.1428.10048.25916.24327.24857h0Z" style="fill:#ffc400; stroke-width:0px;"/><path d="M170.47587,261.277c-3.66491-2.59662-5.80675-5.81732-6.42021-9.66205-.28029-1.75048-.31202-3.70193-.09519-5.8596.58703-5.96012,1.15288-11.92549,1.69761-17.8909.97835-10.79375,2.72356-24.90868,3.93461-37.39479.1428-1.31682.23799-2.64424.27501-3.99279.02116-.73507.55001-1.18461,1.58654-1.34855,3.16779-.50241,6.36732-.8779,9.59857-1.12645,1.09472-.08463,1.89327-.07934,2.39568.01059.63462.11633,1.07885.69805,1.02596,1.33797-.33318,3.87646-1.04712,11.05292-2.15241,21.53467-1.16345,11.01586-2.31635,22.59762-3.45866,34.75581-.30143,3.21537.54473,8.20242,5.2356,6.7428,1.77162-.54999,3.07788-1.83508,3.91876-3.85528,1.78749-4.2678,2.12067-8.03848,2.68124-13.31636,1.26395-11.90435,2.63897-24.84526,4.11443-38.82797.28029-2.7024.58173-5.57933.89375-8.63076.06346-.63992.45482-.98368,1.16876-1.03655.19567-.01588.40191-.03702.62404-.06346,3.36875-.43366,6.08174-.72981,8.13895-.88317,1.31684-.10051,2.46443-.10051,3.43751.00529.51828.05817.89905.52355.84616,1.04181-1.24279,12.15819-3.0303,29.77408-5.37309,52.85827-1.20048,11.84086-5.73799,23.00485-18.09715,26.72262-5.80145,1.74519-11.12693,1.3697-15.97646-1.12115h0Z" style="fill:#ffc400; stroke-width:0px;"/><path d="M495.23554,310.9516l-13.95628,1.13172c-.20623.0159-.37549.17981-.40193.3861l-5.6322,48.08276c-.05817.53412-.46009.96249-.98368,1.06828-6.00237,1.17401-12.06829,1.68699-18.19761,1.54422-2.18411-.0529-1.86681-1.56012-1.7082-3.36348.60293-6.85385,1.57602-13.08896,2.2159-18.63129.84085-7.2822,1.63941-14.67551,2.39566-22.16926,1.48609-14.65964,2.72354-26.42647,3.70196-35.29528,1.71346-15.49521,2.76053-25.67548,3.13603-30.54618.21685-2.7606.41778-4.51637.59763-5.26203.26442-1.07884,1.48077-1.53367,2.6178-1.67644,5.39421-.66635,11.25914-1.10004,17.60001-1.30098.40719-.01059.77213.23799.90963.61874.09516.25913.12162.63462.08457,1.13703-1.0788,14.07261-3.11492,31.04333-4.61679,45.05248-.01591.1322.09516.24328.2274.23269l14.47451-1.16878c.201-.01583.36491-.17448.38608-.37544,1.962-18.04957,3.15723-29.20824,3.5856-33.47075.44418-4.39472,1.29571-8.5356,1.43315-12.38029.03173-.96251.51829-1.50194,1.45962-1.61827,6.92792-.85147,12.78226-1.35385,17.55776-1.51253.4865-.01585.80909-.00529.97306.03176.50767.11633.84085.59231.78268,1.10527-.26442,2.21058-.70341,6.17693-1.32212,11.89906-.99953,9.22309-2.57019,24.85579-4.72263,46.89815-1.92501,19.69427-3.83943,34.70823-6.01828,55.12175-.23269,2.20528-1.39613,2.22116-3.4745,2.50144-6.07645.81971-11.46011,1.15288-16.16156.99953-2.24763-.07408-1.79809-1.73993-1.60242-3.55387.69279-6.31447,1.96203-17.64762,3.80241-33.99956.63988-5.72742,1.0207-9.4611,1.14233-11.20099.01059-.16396-.12695-.30143-.2856-.28558h0Z" style="fill:#ffc400; stroke-width:0px;"/><path d="M397.20317,365.66081c-5.57407-3.887-8.69421-9.96344-9.35531-16.65339-.2274-2.29518.17979-5.02932.43363-7.37211,1.83515-16.96542,3.67553-34.01018,5.52649-51.12893.16394-2.41683.41778-4.90772.75092-7.46733.66635-5.10863,1.92501-10.02695,3.77071-14.74954.60819-1.56011,1.4543-3.09374,2.53849-4.60098,6.72159-9.37119,17.47309-15.35771,28.95437-15.83898,8.21295-.34373,15.94472.58175,20.68846,8.22886,2.15244,3.46924,3.37408,7.1659,3.6702,11.08465.1745,2.37981.01588,6.36732-.39664,9.16491-.21685,1.50194-.58175,4.72258-1.08413,9.66732-.08463.83028-.33844,1.57069-.76154,2.22643-.14809.23273-.37546.39664-.64518.46011-1.75581.40722-3.25768.67694-4.50053.80386-8.14952.83031-13.16824,1.24807-15.06152,1.26397-1.06299.00526-1.52838-.53945-1.39616-1.64477.63992-5.37833,1.03655-8.53555,1.18461-9.46102.50238-3.08848.17979-5.97072-.96254-8.64668-.6293-1.46488-1.87737-2.23701-3.74421-2.32691-4.13026-.19569-6.84854,1.64471-8.16007,5.52116-.73511,2.17355-1.20582,4.10914-1.42263,5.81204-.45483,3.63847-1.16873,10.29131-2.13656,19.96394-.97306,9.71493-2.25815,22.11113-3.85525,37.18327-.22743,2.13124-.33318,3.47453-.32791,4.04038.02117,2.95096,1.88273,6.05003,5.06107,6.10288,2.79762.04763,4.74907-1.1793,6.30917-3.64375,3.19419-5.04519,3.73363-9.29714,4.60098-15.82842.2591-1.93553,3.05143-1.89325,4.84952-2.02546,8.562-.64519,13.44854-1.01539,14.67021-1.10529.76151-.05817,1.29568-.01586,1.60765.12693.36491.1692.57646.55528.52359.95192-.46539,3.58558-1.07884,10.4659-1.72931,14.39523-2.31635,13.91396-12.77167,25.74956-26.50052,28.54183-8.28709,1.68175-15.98181,1.55481-23.10007-3.04615h0Z" style="fill:#ffc400; stroke-width:0px;"/><path d="M342.35117,356.03584l8.06488-76.91551c.01062-.11636-.0846-.21685-.20093-.20626l-16.60581,1.34323c-.48656.04233-.92022-.32257-.96247-.8091-.06875-.75623-.06875-1.50723.01052-2.25819.42836-4.03511.88846-8.29761,1.3909-12.7875.20626-1.83512.44954-3.37934.72452-4.62741.08989-.41781.39664-.75099.80386-.8832,1.24807-.40719,2.68126-.6822,4.29424-.825,8.92691-.80383,17.85914-1.58654,26.79138-2.34279,7.04954-.65577,14.10963-1.28509,21.16976-1.88269,1.51246-.12692,4.66973-.50241,4.33126,1.96203-.80918,5.91247-1.59716,11.90435-2.364,17.9808-.19564,1.53365-.71919,1.74516-2.12062,1.91972-4.96588.61871-9.78367,1.09472-14.4534,1.43319-.13221.01054-.23802.11631-.25384.24854-.75099,6.02885-1.34862,11.17452-1.78751,15.43705-.96254,9.22308-3.70193,34.49137-8.2236,75.80495-.21685,1.962-1.26395,3.04612-3.14665,3.25236-4.38942.4813-8.451.89908-12.18462,1.25867-2.64956.25385-4.59042.29614-5.82264.13223-.76677-.1005-1.10524-.56059-1.0259-1.38028.53937-5.27788,1.06292-10.56111,1.57066-15.85482h0Z" style="fill:#ffc400; stroke-width:0px;"/><path d="M318.38912,260.79573c.56584,4.3207.98365,8.44044,1.25336,12.35386.34899,5.0611.52355,7.59955.52355,7.61544,4.17261,51.74767,6.53651,80.69675,7.08127,86.84723.18508,2.09426.17982,4.07744-.02117,5.94422-.06872.60293-.50238,1.10001-1.08942,1.23755-1.68176.40722-3.56972.68217-5.66922.81971-6.76394.44421-11.31205.7245-13.64957.84085-.51826.02647-1.10001,0-1.7399-.08993-.47065-.06346-.825-.46009-.83556-.93071l-.43366-20.14381c-.00529-.14804-.13224-.26441-.2803-.25385l-18.94857,1.53365c-.12162.0106-.2274.0952-.26442.21685-2.05193,7.56251-3.73898,14.13079-5.06636,19.70485-.34373,1.43845-1.05773,2.30049-2.13124,2.59133-.95724.25915-2.70247.53416-5.23563.825-3.58027.41253-7.29279.70869-11.13752.8832-1.16873.05289-2.01491-.16393-2.76057-.99422-.29615-.32788-.42836-.77214-.35435-1.21108.15339-.95192.37549-1.85098.66638-2.70242,1.82453-5.3625,3.31056-10.22793,4.45288-14.59615,1.14762-4.40001,2.8769-9.1438,4.19901-14.03562,1.19523-4.41589,3.38993-12.44375,6.57886-24.07839,2.26348-8.23945,5.17747-16.73274,7.4779-25.51689,3.00917-11.50242,7.06542-24.951,9.75197-34.36449.14806-.513.59757-.8779,1.12645-.92019l15.95001-1.23752c3.73892-.48653,7.26106-.59757,10.5558-.33847M301.37612,291.9131c-.00529-.05818-.04764-.10045-.10581-.10574-.05287-.00531-.10574.03173-.12162.08459l-11.68751,45.67653c-.03176.13747.07405.26439.21685.25387l13.52788-1.09472c.15339-.01059.26972-.14282.25913-.29617l-2.08892-44.51836h0Z" style="fill:#ffc400; stroke-width:0px;"/><path d="M234.79425,383.6099c-2.29519.34902-4.44231.24857-6.43606-.30671-.0952-1.01013-.08991-2.03608.02114-3.0885,1.69761-15.92358,3.39521-31.10677,5.08749-45.5443.90963-7.75818,1.6659-16.13511,2.27936-23.35915.10576-1.27457.53942-2.78174.47596-4.1832,0-.0529-.0423-.09519-.09519-.1005-.04761-.00529-.0952.02644-.11107.07406-2.18942,7.54133-4.21491,15.34715-6.42549,22.52359-3.72309,12.08414-6.90674,22.85144-9.55098,32.29141-1.90385,6.79566-4.8654,15.22018-6.34616,20.92117-.4125,1.58123-1.43317,2.53848-3.06731,2.88221-3.30529.69279-6.75339,1.10001-10.34426,1.22693-1.15816.03701-1.80335-.44952-1.89327-1.58128-.70865-8.69954-1.20048-14.38461-1.48077-17.05001-1.8351-17.42553-3.60674-35.71304-5.31492-54.8626-.01586-.18512-.25384-.24854-.36491-.10045-.03701.05817-.06346.14278-.07932.26441-3.10433,30.00679-5.62692,53.50343-7.57837,70.49003-.31202,2.69181-.17981,4.06682-3.05146,4.37356-4.48991.48122-9.00097.86204-13.52261,1.14231-1.29039.02116-3.45337-.15865-3.55915-1.85623-.14278-2.23175.68749-5.49473.93605-7.95391.81443-8.03316,1.89328-16.48941,2.81876-25.56443,2.29519-22.54475,4.48461-44.11644,6.57356-64.70975.30672-3.0197.66106-6.02882,1.06827-9.02213.16394-1.94084.33318-3.88172.5077-5.81204.07932-.82497.26442-1.40669.56058-1.74516.13221-.14809.31202-.24857.50769-.28558,2.12068-.41779,4.02452-.69277,5.70626-.825,5.85962-.47067,10.0428-.80387,12.54953-.99951,2.62309-.20626,6.63175-.23273,9.02742-.32262.94664-.03699,1.44904.34904,1.51251,1.14762,1.49134,18.86396,3.44278,40.73707,5.85432,65.60873.02116.201.29615.22743.35433.03704,1.44904-4.87597,2.89809-9.95818,4.34712-15.24665,3.08317-11.25914,7.00193-24.35871,9.94232-35.40633,1.48606-5.58464,3.34761-11.14806,5.0928-17.17165.28029-.9678,1.06299-1.53365,2.35338-1.69759,4.7649-.59763,12.94615-1.31153,24.54905-2.14182.714-.04761,1.37502-.01588,1.98847.09519.4284.0846.73511.46539.72452.90963-.03702,1.09468-.30674,1.97256-.42307,3.11487-2.08892,20.05392-3.29471,31.52461-3.6173,34.40679-1.65,14.60677-2.93509,27.06113-3.85528,37.36833-1.23225,13.74476-2.23178,21.59283-4.13033,38.68514-.16391,1.4491-.92016,2.19476-2.27933,2.23706-1.53893.04759-5.3096.42307-11.31203,1.13702h0Z" style="fill:#ffc400; stroke-width:0px;"/></g><path d="M273.40536,415.7109c-.9678,2.75001-2.53317,5.61635-4.69616,8.59906-.32785.4548-1.37499,2.55436-3.13606,6.30386-1.37499,2.90864-2.81347,5.34137-4.35237,8.34521-11.24862,21.93127-18.72123,36.2736-22.41783,43.03757-9.90003,18.12886-15.24139,27.87023-16.0188,29.22408-3.05144,5.33608-4.58511,8.02263-4.61155,8.0649-.00529.00529-.01057.0106-.02116.00529-.00528-.00529-.00528-.01583-.00528-.02113.0846-.29088.16922-.52886.25913-.70338,1.25336-2.51733,6.12934-12.09475,14.61732-28.73224,7.54135-14.7813,19.65727-37.21501,36.35294-67.30111,1.49665-2.69181,2.49088-4.61682,3.65964-6.98077.04761-.09519.15862-.13749.2591-.09519.09522.04228.14809.15335.11107.25384h0Z" style="fill:#ffc400; stroke-width:0px;"/><path d="M613.78721,493.14468c-.12162-.20621-3.50632-3.42692-10.14867-9.662-7.77932-7.30339-13.63886-13.37458-21.42876-20.89475-2.20532-2.12599-5.9707-5.96013-11.30675-11.50772-5.38369-5.60052-11.82508-12.10532-19.3188-19.50919-2.91395-2.87691-7.78991-8.0226-14.63322-15.43705-.01059-.01583.00523-.03173.02117-.02644.04751.0159.11104.06877.19038.14809,6.46779,6.55239,14.18894,14.23657,24.50146,24.2635,10.96299,10.65626,25.25774,25.43224,34.82463,34.9938,11.31192,11.30147,17.08166,17.17696,17.31974,17.61591.00523.00528,0,.01583-.00529.02114-.00529,0-.01059,0-.01588-.00531h0Z" style="fill:#ffc400; stroke-width:0px;"/><path d="M225.811,445.92255c-.04417.06486-.13407.08073-.19817.0389l-.05266-.03536c-.06304-.04446-.0842-.13436-.03888-.19819l17.16682-25.54687c.04416-.0648.13404-.0807.19816-.03886l.05268.03539c.06302.04443.08417.13433.03886.19816l-17.16681,25.54684h0Z" style="fill:#ffc400; stroke-width:0px;"/><path d="M81.18534,492.94373c7.78991-7.25049,14.6226-13.04666,23.30629-21.13272,5.46826-5.0928,10.70917-9.84713,15.72261-14.27358,6.54184-5.76974,14.32646-11.69808,21.48176-17.94909,7.10771-6.20864,14.03031-11.92551,21.45533-17.64233.02645-.02116.04232-.03173.04759-.03173.02645,0,.03173.03702.00529.0582-5.38895,4.712-10.51878,9.2019-15.38416,13.4697-11.68223,10.24906-21.07456,18.35101-28.16641,24.30584-1.50191,1.25864-8.47212,7.46732-20.91062,18.62067-3.13606,2.81347-8.97452,7.68415-17.52597,14.61205-.01059.01059-.02644.00529-.03173-.00528-.01059-.00526-.01059-.02116,0-.03173h0Z" style="fill:#ffc400; stroke-width:0px;"/><path d="M340.96027,425.89121c.29089,24.2635-.12162,48.3948-1.24275,72.39917-.45483,9.79952-.89379,19.62021-1.31682,29.47267-.0582,1.32209-.17453,2.36921-.3385,3.13601,0,.00534-.00529.00534-.00529.00534q-.00529,0-.00529-.00534c.10048-3.31054-.2591-8.27114-.11633-12.29038.16397-4.65914.30141-12.58124.41781-23.76639.04228-3.91873.29086-12.69233.74037-26.31012.01059-.35961.22214-5.34134.63988-14.94522.40193-9.30769.80918-18.54139,1.22693-27.69573h0Z" style="fill:#ffc400; stroke-width:0px;"/><path d="M274.82799,476.42783c-.01062.03175-.04764.0529-.07937.04233l-.14806-.05292c-.19564-.0687,2.9034-9.53508,6.92792-21.14329l.07934-.22738c4.01922-11.60821,21.47267-57.72605,21.66831-57.6573l.14283.04759c.03696.01057.05284.04759.04225.07929l-28.63321,78.91168h0Z" style="fill:#ffc400; stroke-width:0px;"/><path d="M639.70846,438.28705c.02395-.03668.14035-.01025.25945.05863.11885.06864.20342.15852.17979.19593-.02389.03665-.14028.0102-.25939-.05863-.11885-.06866-.20355-.15855-.17985-.19593h0Z" style="fill:#ffc400; stroke-width:0px;"/><path d="M210.58363,446.61143c-5.9178,8.80533-11.36492,16.41543-16.33608,22.83033-15.29956,19.74187-25.5063,32.8467-30.61496,39.31449-5.57933,7.0707-11.84088,14.71253-18.77407,22.92028-.03173.03694-.08989.04227-.12692.01054h-.00529c-.01586-.01586-.01586-.04227-.00529-.0582,6.86444-9.04855,13.84523-18.29282,20.93707-27.72214,4.36299-5.80147,13.64425-17.54714,27.84379-35.23708,2.54375-3.16779,5.42068-6.875,8.63077-11.12695,2.92982-3.87644,5.73799-7.52021,8.42982-10.94181.00529-.00529.01059-.00529.01586-.00529.00529.00529.01059.01054.00529.01583h0Z" style="fill:#ffc400; stroke-width:0px;"/><path d="M424.28541,530.88326c-1.02067-2.50679-1.8245-4.66448-2.40622-6.47315-3.63318-11.31201-7.35099-23.23223-11.15866-35.77117-4.58513-15.08274-7.58901-24.43803-12.38036-40.52557,1.1106,2.50675,1.98318,4.71731,2.61254,6.63701,4.73845,14.46397,9.76782,28.68467,14.07258,43.58229,3.40051,11.77214,6.49429,22.61878,9.28655,32.53999,0,.00528,0,.01582-.01055.01582-.00526.00533-.01055,0-.01588-.00521h0Z" style="fill:#ffc400; stroke-width:0px;"/><path d="M533.75152,489.24178c8.63605,10.66159,16.61097,21.79909,25.22062,32.4712.03183.00533.04764.01593.05294.03173.01059.02647-.03706.02647-.06352,0-2.86631-3.07258-5.75379-6.39373-8.65716-9.96344-6.33028-7.79522-12.20054-15.02455-17.60004-21.68802-5.39951-6.66349-11.25917-13.90339-17.56828-21.70918-2.89278-3.58558-5.5476-7.09713-7.95385-10.53462-.02647-.03173-.01588-.07931.01059-.06348.01052.00531.02114.02644.02114.0529,8.65193,10.63512,17.90146,20.74666,26.53757,31.40291h0Z" style="fill:#ffc400; stroke-width:0px;"/><path d="M462.36401,406.98717c8.63605,10.66159,16.61097,21.79909,25.22062,32.4712.03183.00533.04764.01593.05294.03173.01059.02647-.03706.02647-.06352,0-2.86631-3.07258-5.75379-6.39373-8.65716-9.96344-6.33028-7.79522-12.20054-15.02455-17.60004-21.68802-5.39951-6.66349-11.25917-13.90339-17.56828-21.70918-2.89278-3.58558-5.5476-7.09713-7.95385-10.53462-.02647-.03173-.01588-.07931.01059-.06348.01052.00531.02114.02644.02114.0529,8.65193,10.63512,17.90146,20.74666,26.53757,31.40291h0Z" style="fill:#ffc400; stroke-width:0px;"/></g></svg>