<?xml version="1.0" encoding="UTF-8"?>
<svg id="OBJECTS" xmlns="http://www.w3.org/2000/svg" xmlns:xlink="http://www.w3.org/1999/xlink" viewBox="0 0 672.70247 450.93989">
  <defs>
    <style>
      .cls-1 {
        stroke: #b5f4e1;
      }

      .cls-1, .cls-2, .cls-3, .cls-4, .cls-5, .cls-6, .cls-7, .cls-8, .cls-9, .cls-10, .cls-11, .cls-12, .cls-13, .cls-14, .cls-15, .cls-16, .cls-17, .cls-18, .cls-19, .cls-20 {
        fill: none;
      }

      .cls-1, .cls-2, .cls-3, .cls-5, .cls-6, .cls-7, .cls-8, .cls-9, .cls-10, .cls-11, .cls-21, .cls-12, .cls-13, .cls-14, .cls-22, .cls-15, .cls-16, .cls-17, .cls-23, .cls-24, .cls-18, .cls-19, .cls-20 {
        stroke-miterlimit: 10;
      }

      .cls-1, .cls-6, .cls-8, .cls-16, .cls-24, .cls-19 {
        stroke-width: 1.5px;
      }

      .cls-2, .cls-3, .cls-25, .cls-10, .cls-21, .cls-14, .cls-22, .cls-24 {
        stroke: #fff;
      }

      .cls-2, .cls-25, .cls-22 {
        stroke-width: 2px;
      }

      .cls-3 {
        stroke-linecap: round;
      }

      .cls-3, .cls-11, .cls-21, .cls-14 {
        stroke-width: 3px;
      }

      .cls-26 {
        fill: #afd4b8;
      }

      .cls-26, .cls-4, .cls-27, .cls-28, .cls-29, .cls-30, .cls-31, .cls-32, .cls-33, .cls-34, .cls-35, .cls-36, .cls-37, .cls-38, .cls-39, .cls-40, .cls-41, .cls-42, .cls-43 {
        stroke-width: 0px;
      }

      .cls-44 {
        clip-path: url(#clippath);
      }

      .cls-27 {
        fill: #46415b;
      }

      .cls-5, .cls-15, .cls-23 {
        stroke: #000;
      }

      .cls-5, .cls-20 {
        stroke-width: .75px;
      }

      .cls-6 {
        stroke: #c4eced;
      }

      .cls-7 {
        stroke: #ffe978;
      }

      .cls-8 {
        stroke: #aaffd7;
      }

      .cls-28 {
        fill: #ddecdf;
      }

      .cls-25 {
        stroke-linejoin: round;
      }

      .cls-25, .cls-24, .cls-38, .cls-41 {
        fill: #b5c2e3;
      }

      .cls-45, .cls-22, .cls-39 {
        fill: #dcebd7;
      }

      .cls-9 {
        stroke: #a0372b;
      }

      .cls-29 {
        fill: #b5f4e1;
      }

      .cls-11 {
        stroke: #bdcdf4;
      }

      .cls-46 {
        clip-path: url(#clippath-1);
      }

      .cls-47 {
        clip-path: url(#clippath-2);
      }

      .cls-30, .cls-23 {
        fill: #e9725b;
      }

      .cls-21 {
        fill: #9190c3;
      }

      .cls-31 {
        fill: #f9caaa;
      }

      .cls-32 {
        fill: #000;
      }

      .cls-12 {
        stroke-width: 2.5px;
      }

      .cls-12, .cls-16 {
        stroke: #d1402c;
      }

      .cls-13 {
        stroke: #68374a;
      }

      .cls-33 {
        fill: #14131c;
      }

      .cls-34 {
        fill: #ffe978;
      }

      .cls-35 {
        fill: #acc4da;
      }

      .cls-36 {
        opacity: .25;
      }

      .cls-36, .cls-40 {
        fill: #fff;
      }

      .cls-48 {
        opacity: .75;
      }

      .cls-37 {
        fill: #432572;
      }

      .cls-17 {
        stroke: #646072;
      }

      .cls-38 {
        opacity: .65;
      }

      .cls-18 {
        stroke: #38121f;
      }

      .cls-19 {
        stroke: #bfffc8;
      }

      .cls-20 {
        stroke: #e6ebff;
      }

      .cls-42 {
        fill: #38121f;
      }

      .cls-43 {
        fill: #d1402c;
      }
    </style>
    <clipPath id="clippath">
      <path class="cls-39" d="M359.39157,87.45378c-7.9558-.506-15.9033,1.5621-23.2039,4.764s-14.0486,7.5167-20.8016,11.7531c-8.0366,5.0415-23.926,15.1491-23.926,15.1491,8.7445,14.8516,18.8964,25.7706,33.83791,34.3605,15.44459-5.3431,28.51269-11.2375,47.62419-13.5442"/>
    </clipPath>
    <clipPath id="clippath-1">
      <path class="cls-39" d="M419.00117,122.11708c3.6203-2.1359,7.4024-1.9339,12.635-1.9039,8.7325.05,19.8707,1.2062,29.0636,1.8321-4.4629-12.1451-5.3034-25.6165-1.6575-38.0314,1.2971-4.417,3.3228-8.9624,7.2263-11.4028-13.5257-1.2571-31.4347-3.8164-45.0065-4.3918-5.5508-.2354-11.1357-.355-16.6392.4061-7.0632.9767-13.8696,3.3873-20.9363,4.3385"/>
    </clipPath>
    <clipPath id="clippath-2">
      <path class="cls-4" d="M324.68268,74.74658c-.4841.0176-.667-.0144-.6744-.016-1.9032-.4347-3.8411-5.0403-4.38229-8.9002-.36781-2.6202.23739-4.322.756-4.8817,2.43659-1.2415,18.28569-5.5145,21.82039-6.3713,1.052-.2551,1.9099-.3918,2.6223-.4176,1.48731-.054,2.72631.1566,3.9905,3.3257,2.194,5.4992,2.0171,9.0326.8252,10.5515-1.192,1.519-19.1895,6.5003-24.9572,6.7096h-.0005Z"/>
    </clipPath>
  </defs>
  <g>
    <path class="cls-35" d="M436.59237,331.27178c-30.5249,14.7737-60.0833,32.049-93.0731,39.3306-24.41429,5.3887-49.517,5.0077-74.35,6.3049-22.1028,1.1545-50.8062,1.775-68.9186,16.5464-5.6958,4.6452-9.8172,11.9201-8.6961,19.1839,1.9563,12.675,17.2857,17.9508,30.068,18.9975,16.853,1.38,33.7986-.0551,50.7073.0992,66.4201.6062,131.9962,25.6787,197.92659,17.6056,22.2366-2.7228,44.40851-9.4336,62.5121-22.6296,18.10341-13.1958,31.7561-33.44,33.8159-55.7473,1.8163-19.6694-6.7153-40.0876-22.581-52.026-19.3714-14.5762-45.0464-11.3837-66.8018-4.4528-13.9572,4.4466-27.3741,10.3819-40.6093,16.7876Z"/>
    <path class="cls-1" d="M463.82917,334.46478c-18.8653-.9794-37.8965.6748-56.2051,4.8854-22.3792,5.1468-43.5154,14.0395-65.845,19.358-11.8058,2.8119-24.08109,6.8276-36.1654,6.9094-16.7439.1133-33.4955-.0716-50.2399-.1074-14.9021-.0319-29.9311-.0515-44.5217,2.9797-14.5906,3.0311-28.9004,9.3804-39.0041,20.3343-4.1841,4.5363-7.6873,10.1031-8.0499,16.2637-.7112,12.0809,10.724,21.6126,22.2636,25.2581,24.7627,7.8229,51.2015-1.603,76.9417-5.0421,59.1742-7.9063,116.5349,19.7063,175.7376,14.8664,24.41209-1.9957,50.859-12.4948,69.33939-28.6393,13.39161-11.6989,22.9247-33.4363,15.7752-51.1464-9.3291-23.102-38.92659-24.8243-60.0264-25.9198Z"/>
    <g>
      <path class="cls-32" d="M429.34857,272.24878c-5.7007-.6592-38.3905,2.5084-38.6799,7.8725-.2893,5.3641,17.40931,8.3288,35.66831,10.2448,18.25909,1.9159,31.82259,4.9155,29.204-2.0091-2.61851-6.9246-4.58551-13.6097-26.19241-16.1082Z"/>
      <path class="cls-30" d="M361.19287,299.00518c-8.5642-17.5485-18.0934-27.4552-17.8032-28.3829.29031-.9276,42.7549-36.0423,42.7549-36.0423l-53.0817-28.9785s-13.191,11.2833-32.6725,29.9425c-6.0793,5.8227-14.5419,23.5448-6.1467,39.4293,7.42431,14.0475,21.6308,33.663,25.9008,39.526,7.81,10.7235,32.3088,42.0631,32.3088,42.0631l30.2494-20.3069s-12.94569-19.7017-21.5098-37.2503Z"/>
      <path class="cls-34" d="M377.73007,168.22128l-10.51209,11.2201s-42.85011,28.3716-63.00951,51.3762c5.72251,4.3314,9.1031,10.6709,13.91951,15.9916,2.865,3.1651,5.98139,5.8802,9.39229,8.4476,7.98571,6.0106,12.5572,6.641,27.4628,9.9978,4.4781-3.3112,11.5711-8.1503,12.6477-9.0069,4.1784-3.3244,8.362-6.6423,12.56621-9.9339,7.99089-6.2563,16.50489-11.9673,24.17809-18.4958,4.6457-3.9527,9.762-7.3196,14.4585-11.2117,4.09-3.3896,7.67141-7.4401,10.3103-12.0623,2.8517-4.995,3.91611-10.2394,4.9866-15.8136.8626-4.492,1.5302-9.0647,1.2481-13.6503"/>
      <path class="cls-14" d="M343.90158,262.29628c21.2326-17.7004,43.2801-34.7447,64.5126-52.4451"/>
      <path class="cls-30" d="M446.54767,329.80148c-5.2102-18.8188-12.7668-30.3013-12.3118-31.1602s17.7563-61.7593,17.7563-61.7593l-56.9526,22.1496c-.7945,11.851-3.8954,23.455-4.0569,35.3604-.2149,15.8359,5.7032,29.1639,12.3752,43.1348,5.717,11.9711,24.0399,45.9868,24.0399,45.9868l33.4841-13.1561s-9.124-21.7371-14.3342-40.556Z"/>
      <path class="cls-34" d="M460.96067,181.79958c-.3826,5.8159,2.6472,11.0812,3.5016,16.7118.8149,5.3702-.0594,10.6596-.5064,15.9887-1.4375,17.1376-4.28589,34-6.7415,51.0112-1.0916,7.5622.0807,16.5097-1.3842,24.7283-.7015-4.3392-19.162-9.8929-29.2783-11.2-11.801-1.5249-28.0943-2.3879-35.8832,1.0817,0,0,3.1087-23.2853,4.1065-33.3351.49881-5.025,1.0663-10.0431,1.7023-15.0525.551-4.3406.7204-11.4409.701-15.8144-.0229-5.1522-1.0794-7.6778-4.7354-11.3081-.8556-3.4464-.2966-7.9839.7254-11.3847,3.4716-11.5525,8.0669-22.767,13.6999-33.4338"/>
      <path class="cls-15" d="M396.09137,234.84608s1.1563-20.5646.9027-21.9688c-.2535-1.4041-2.1477-8.6139-2.1477-8.6139"/>
      <path class="cls-14" d="M452.22367,169.97178c2.9636,5.487,4.5784,25.4702,4.6334,31.7062.4474,50.7282-7.62609,48.2839-6.6033,83.1434"/>
      <g>
        <path class="cls-40" d="M452.26967,347.79908s-6.108,5.8182-18.4799,10.0394c-12.3717,4.2213-18.7943,2.8542-18.7943,2.8542,6.02951,11.7273,12.2088,22.994,16.9143,34.4264l31.365-20.1641-11.0051-27.1559Z"/>
        <g>
          <path class="cls-40" d="M480.18167,397.49148c-.4293-2.4573-2.3801-4.7074-4.8531-5.0338l-78.6193,30.7196c-.49229,1.5294.2953,3.2179,1.4455,4.3399,1.7477,1.7047,4.04821,2.954,6.3564,3.692,4.8005,1.535,9.9325,2.2133,14.943,1.4708,5.1881-.7689,9.6346-3.4799,14.4706-5.3136,4.5027-1.7074,9.62-2.545,13.3339-5.8334,1.6909-1.497,2.9659-3.4897,4.913-4.6337,1.5164-.8909,3.305-1.1821,5.0552-1.3564,1.3599-.1355,2.7317-.2114,4.0644-.5145,1.4619-.3324,2.8488-.932,4.2015-1.5786,2.4705-1.181,4.8606-2.5301,7.14821-4.035,2.084-1.3709,4.11409-2.9018,5.59689-4.9078,1.4827-2.0059,2.37311-4.5582,1.9438-7.0155Z"/>
          <path class="cls-43" d="M468.21098,402.74778c2.84719-1.3279,7.46289-3.5177,8.30949-6.8397.7967-3.1262-.6782-7.0673-2.4684-9.5999-1.8662-2.6401-3.7395-5.4069-5.8442-7.8161-2.3067-2.6405-4.54589-5.5053-5.4444-8.9608-.2061-.7928-.3436-1.6199-.7497-2.3312-2.1334-3.737-5.4256,1.6536-6.2754,3.5031-1.206,2.6251-1.4715,5.7312-3.3162,7.9544-1.8166,2.1892-4.7695,3.0334-7.5706,3.5297-4.1532.7359-8.5278,1.5349-12.7602.9088-1.5612-.231-3.0613-.7833-4.6231-1.0105-1.5617-.2272-3.2856-.0783-4.5008.9295-2.3257,1.9294.48651,5.5197.13,7.932-.2043,1.383-1.4503,3.0845-2.1438,4.2811-1.635,2.8212-3.5974,5.4467-5.7621,7.8823-4.32659,4.8678-9.424,8.983-14.5842,12.9564-2.9976,2.3082-5.0173,6.8049-2.8083,9.1202,1.0737,1.1253,7.6056,2.3898,10.47691,2.3734,9.12379-.0523,18.50109-1.4581,26.46579-6.1677,4.3051-2.5457,8.0371-5.9552,12.2401-8.6661,6.5787-4.2433,14.13411-6.6701,21.22911-9.9789Z"/>
          <path class="cls-15" d="M406.14547,412.05328c-.5241.6909-1.0482,1.3819-1.5723,2.0728-.4845.6387-.9906,1.3373-1.0027,2.1389-.014.9359.6578,1.7469,1.4069,2.3081,1.3739,1.0291,3.0999,1.5164,4.8142,1.6056,1.7143.0893,3.42741-.1982,5.0973-.5963,3.8557-.9194,7.5514-2.4292,11.4084-3.3431s8.0262-1.1974,11.69371.3062c.69869.2864,1.38109.6414,1.93319,1.1565"/>
          <path class="cls-15" d="M470.33247,381.48798c-1.8177,2.4523-4.26249,4.3601-6.3168,6.618-2.0542,2.258-3.7799,5.098-3.62669,8.1467.07479,1.4887.59609,2.9681.36569,4.4407-.2538,1.6223-1.37169,2.9558-2.44569,4.1978-1.01051,1.1685-2.02091,2.337-3.03141,3.5054"/>
          <path class="cls-3" d="M412.97977,403.73138c2.59021.4877,5.1909.9782,7.68421,1.8327,2.49329.8546,4.89349,2.0929,6.79949,3.9134"/>
          <path class="cls-3" d="M417.67917,398.45668c5.9264-1.154,12.3185.3433,17.1159,4.0093"/>
          <path class="cls-3" d="M422.10098,391.10058c5.41429-.2908,10.88329.4747,16.00959,2.2411"/>
        </g>
        <path class="cls-7" d="M417.26037,364.93768c6.5811.8928,13.3203-.4471,19.4863-2.9146,6.166-2.4675,11.82831-6.0294,17.3439-9.7289"/>
      </g>
      <g>
        <path class="cls-40" d="M371.87267,318.14198s-5.0468,6.7593-16.5365,12.9938c-11.4896,6.2345-18.2398,5.9661-18.2398,5.9661,7.9091,10.5513,16.0782,20.62,22.63261,31.1024l27.54319-25.1341-15.3995-24.9282Z"/>
        <g>
          <path class="cls-40" d="M407.71607,362.45538c-.8349-2.3507-3.13509-4.2422-5.6279-4.1495l-72.3609,43.4578c-.2291,1.5903.8303,3.1229,2.1522,4.0363,2.0086,1.3879,4.4859,2.234,6.8851,2.5749,4.9898.7089,10.163.5178,14.9782-1.0537,4.9859-1.6273,8.9153-5.0449,13.3758-7.663,4.153-2.4377,9.0576-4.1208,12.1681-7.985,1.4161-1.7592,2.3392-3.9373,4.0671-5.3914,1.3457-1.1324,3.06021-1.7191,4.7564-2.1842,1.318-.3614,2.6577-.6661,3.92081-1.1882,1.38559-.5726,2.65239-1.3962,3.87759-2.2603,2.2377-1.5782,4.368-3.3087,6.3711-5.1756,1.8249-1.7007,3.5698-3.55,4.6955-5.7761s1.5759-4.8914.7409-7.242Z"/>
          <path class="cls-43" d="M396.79527,369.64298c2.5845-1.7861,6.768-4.7183,7.0461-8.1352.26161-3.2155-1.8528-6.8539-4.042-9.0507-2.2822-2.2901-4.5926-4.7039-7.0712-6.7264-2.7164-2.2167-5.404-4.6658-6.8688-7.9219-.336-.747-.6102-1.5394-1.1297-2.1727-2.7293-3.3267-5.0718,2.5393-5.5998,4.505-.749,2.7901-.4903,5.8968-1.9365,8.3977-1.4241,2.4626-4.1939,3.7896-6.8722,4.7482-3.97119,1.4214-8.1501,2.942-12.4275,3.0339-1.5778.0339-3.1493-.2594-4.7271-.2216-1.5777.0377-3.2523.4733-4.2814,1.6704-1.9695,2.2918,1.4044,5.3602,1.4571,7.7981.0303,1.3977-.913,3.284-1.3962,4.5798-1.1392,3.0552-2.6339,5.9725-4.36,8.7363-3.4498,5.5239-7.7857,10.435-12.20709,15.2168-2.56851,2.7778-3.80621,7.5493-1.24061,9.4618,1.2471.9295,7.8985,1.0818,10.7264.5845,8.9861-1.5802,17.9953-4.5373,25.0584-10.5149,3.8176-3.2309,6.9256-7.2176,10.615-10.5944,5.77481-5.2856,12.81681-8.9439,19.2571-13.3947Z"/>
          <path class="cls-15" d="M337.16628,389.21588c-.4009.769-.8019,1.538-1.2028,2.307-.3706.7108-.75249,1.4844-.6301,2.2766.143.925.9411,1.612,1.7737,2.0398,1.52691.7844,3.3102.9755,5.0152.7763s3.34571-.7696,4.9252-1.4419c3.6472-1.5524,7.0377-3.6602,10.6871-5.2074,3.64941-1.5472,7.712-2.5252,11.5797-1.6574.7368.1653,1.469.401,2.0996.8163"/>
          <path class="cls-15" d="M395.32477,348.32828c-1.3812,2.7222-3.47179,5.0126-5.1187,7.5828-1.6469,2.5702-2.8723,5.6592-2.2105,8.6392.3232,1.4551,1.085,2.8262,1.1046,4.3167.0216,1.6418-.8571,3.1437-1.7078,4.5482-.80039,1.3212-1.6008,2.6425-2.4012,3.9638"/>
          <path class="cls-3" d="M342.50968,379.86658c2.6352.0468,5.2814.0946,7.8826.5193,2.6013.4248,5.175,1.2434,7.3591,2.7188"/>
          <path class="cls-3" d="M346.25878,373.87908c5.6493-2.1306,12.202-1.7255,17.5457,1.0848"/>
          <path class="cls-3" d="M349.38568,365.88608c5.289-1.1939,10.809-1.3554,16.1588-.4729"/>
        </g>
        <path class="cls-7" d="M339.95688,340.88788c6.6377-.2225,13.33011-2.6564,18.9955-6.1221,5.6654-3.4657,10.6509-7.9259,15.4687-12.4973"/>
      </g>
      <path class="cls-15" d="M343.45908,270.23048c-1.41209,2.4939-3.1893,4.7805-5.2575,6.7644"/>
      <path class="cls-15" d="M434.54027,299.15768c-.0226,2.4855-.6159,4.964-1.7211,7.1903"/>
      <path class="cls-15" d="M353.74907,236.40128c11.8233.3527,23.498-2.3676,35.0135-5.0708"/>
      <path class="cls-15" d="M374.16257,225.73168c5.10741.1201,10.2148.2401,15.3222.3601"/>
      <path class="cls-15" d="M455.69127,271.02378c-3.3936-10.8938-4.4122-22.1099-3.0105-33.1519"/>
    </g>
    <g>
      <path class="cls-32" d="M454.21287,77.90138s8.824-5.3768,12.0557-5.2903c3.2318.0864,6.8702,11.2939,6.2138,23.102-.6563,11.808-5.06239,29.0697-11.7826,26.3322-6.7201-2.7374-12.1906-16.3667-12.9427-22.4874-.75209-6.1208,3.1134-13.2128,6.4558-21.6565Z"/>
      <path class="cls-30" d="M311.33808,108.17588l-32.1896,20.1613-67.5496,1.1645,2.6028,25.5032s43.8027,9.0023,59.2706,9.0027c12.9981.0003,24.7707-1.8369,34.811-5.9014,10.0403-4.0645,42.8094-18.6148,42.8094-18.6148l-39.7546-31.3155Z"/>
      <g>
        <path class="cls-45" d="M359.39157,87.45378c-7.9558-.506-15.9033,1.5621-23.2039,4.764s-14.0486,7.5167-20.8016,11.7531c-8.0366,5.0415-23.926,15.1491-23.926,15.1491,8.7445,14.8516,18.8964,25.7706,33.83791,34.3605,15.44459-5.3431,28.51269-11.2375,47.62419-13.5442"/>
        <g class="cls-44">
          <path class="cls-22" d="M294.81828,114.41338c9.456,15.3859,22.06371,29.7195,38.24771,38.1979"/>
        </g>
      </g>
      <path class="cls-30" d="M451.49037,72.02098c14.05661,1.962,29.8741,2.1456,42.5197,7.8901,8.9554,4.0681,17.5504,10.0209,24.8918,16.5669,16.1549,14.4046,38.23211,36.3997,38.23211,36.3997l-22.19511,16.9431s-47.655-30.788-57.1854-33.9607c-5.4873-1.8267-15.3423-2.4154-30.3039-3.2142"/>
      <path class="cls-30" d="M532.20998,150.54248c2.73239,1.9748,6.01719,8.5027,7.59709,12.9406,1.3206,3.7095,2.5284,6.4501,7.2484,7.1125,2.2407.3145,4.947-.6756,4.947-.6756,0,0,3.823,4.0034,6.175,4.0918,1.822.0684,3.6651-1.4286,4.8107-3.6678,1.5364,1.0581,2.7873,1.4412,4.0903.6939,1.3031-.7473,2.1234-3.7004,1.4764-5.056,2.086,1.4914,4.8017-1.3982,3.9213-5.44.9673.3044,2-.5165,2.2916-1.4878.2915-.9712-.0574-4.0917-.3313-5.0681-3.7652-13.4204-13.6766-18.368-22.3586-26.1019"/>
      <path class="cls-39" d="M470.50207,177.00628c-.7739-7.9948-2.9186-9.4428-6.794-16.1891-1.7578-3.06-10.56309-17.3598-12.2106-20.7335-4.015-8.2217-12.2924-23.0769-16.0682-31.3674-1.5832-3.4762-2.1925-7.4514-3.7181-11.0162-1.60019-3.7391-3.5917-7.3112-5.9356-10.6351-1.0313-1.4624-2.1307-2.8768-3.2947-4.2361-2.098-2.45-4.4498-4.7594-7.3147-6.2416-3.2026-1.657-6.8569-2.1872-10.4447-2.5472-6.2246-.6244-12.4931-.8103-18.7437-.5557-4.3952.1791-8.4109,3.2948-12.2691,5.4076-4.0912,2.2405-7.936,4.8995-11.7721,7.5531-4.5215,3.1278-9.043,6.2555-13.5644,9.3833-2.8806,1.9926-5.7741,3.9957-8.3146,6.4069-6.89659,6.5457-10.7289,15.615-14.1309,24.494l1.0365,4.7971c5.5527-.438,10.0191,4.2555,13.5772,8.5408,5.2364,6.3064,10.4754,12.6151,15.445,19.1358,2.3142,3.0366,4.7801,6.0919,6.8929,9.2617,1.8119,2.7184,1.1226,7.1776,1.2526,10.3848.0196.4842.0406.9758.1925,1.436.6185,1.8739,2.985,2.282,4.9254,2.6413,17.779,3.2917,30.5424,5.2268,63.7197,2.4635,4.4666-.0618,25.4657,3.2841,29.6319,4.8956,4.3888-3.2722,8.4214-7.9115,7.9017-13.2796Z"/>
      <path class="cls-30" d="M345.64968,86.53308l6.441,10.4865s13.1151,14.4665,19.1958,13.7657c6.0806-.7008,12.7829-34.5965,12.7829-34.5965l-16.4328-14.7915-21.9869,25.1358Z"/>
      <polygon class="cls-34" points="386.85777 132.11228 380.77898 133.96918 368.07967 110.16988 374.15847 108.31298 386.85777 132.11228"/>
      <g>
        <path class="cls-45" d="M419.00117,122.11708c3.6203-2.1359,7.4024-1.9339,12.635-1.9039,8.7325.05,19.8707,1.2062,29.0636,1.8321-4.4629-12.1451-5.3034-25.6165-1.6575-38.0314,1.2971-4.417,3.3228-8.9624,7.2263-11.4028-13.5257-1.2571-31.4347-3.8164-45.0065-4.3918-5.5508-.2354-11.1357-.355-16.6392.4061-7.0632.9767-13.8696,3.3873-20.9363,4.3385"/>
        <g class="cls-46">
          <path class="cls-22" d="M461.48617,69.36888c-6.6733,5.5622-8.601,15.9397-9.32019,24.1861-1.04091,11.934.31949,24.2128,4.38489,35.4882"/>
        </g>
      </g>
      <path class="cls-15" d="M551.86727,169.93518c-1.0037-.8868-2.0406-1.7359-3.1079-2.5451-1.3623-1.033-2.8589-2.0331-4.5613-2.1908"/>
      <path class="cls-15" d="M562.87787,170.55468c-.86089-4.5074-3.0903-8.7442-6.318-12.0062"/>
      <path class="cls-15" d="M568.70647,166.35878c-.1402-.8504-.2876-1.6997-.4421-2.5476-.5526-3.0317-1.2758-6.2065-3.3631-8.4736"/>
      <path class="cls-15" d="M572.47927,160.95118c-.2064-3.502-.69-6.9205-2.7469-9.7624"/>
      <path class="cls-28" d="M519.99407,139.42408c-.5247,1.2317-.9532,2.7206-.0886,3.7927.7237.8975,2.0803,1.1399,3.0769,1.7924.7581.4963,1.2875,1.2173,1.8933,1.861,1.7296,1.8382,3.8676,4.2812,6.5039,4.6782.2283.0344.466.0621.6879.0041.5229-.1365.7537-.668.9519-1.1239,1.13461-2.6105,3.7331-5.8367,5.7827-7.9451,4.7671-4.9039,8.5953-9.9132,14.7967-13.2813.2875-.1561.1138-.4474.0101-1.3783-.0792-.7102-1.247-1.4919-1.8593-1.974-1.2138-.9557-3.0169-2.5735-4.6053-4.67-1.0985-1.4498-2.5835-3.5865-4.6552-3.9607-3.0292-.5467-5.7472,2.6159-7.8159,4.118-4.21519,3.0607-7.8517,6.7649-10.7093,10.9055-1.5695,2.2741-2.9045,4.6803-3.9698,7.1814Z"/>
      <path class="cls-2" d="M525.84627,147.76618c6.3275-10.0952,12.7868-17.358,22.9505-24.451"/>
      <path class="cls-34" d="M390.25557,70.58208l-10.0488,1.0956c-.351,11.5806-2.16479,22.3706-6.519,36.9481,6.86921-1.0312,17.2944-.5113,23.9627,1.5783-1.1109-9.7368-3.45349-30.9438-7.3949-39.622Z"/>
      <path class="cls-34" d="M368.08407,109.98208s-12.5532-7.4324-20.203-19.8161l-5.4518,1.4577s4.7778,22.2441,15.3415,33.5546c4.3987-9.8648,10.3133-15.1962,10.3133-15.1962Z"/>
      <path class="cls-15" d="M441.65617,121.15368s-13.785-1.1104-15.9083-.8831c-2.1234.2272-5.2226,1.0882-5.2226,1.0882"/>
      <path class="cls-15" d="M345.70048,146.02678s-9.0453-10.9129-11.7094-12.352c-2.664-1.4391-7.3938-3.842-7.3938-3.842"/>
      <line class="cls-15" x1="371.85477" y1="114.88428" x2="375.89098" y2="113.64348"/>
      <line class="cls-15" x1="375.44737" y1="121.89788" x2="379.48367" y2="120.65698"/>
      <line class="cls-15" x1="379.04007" y1="128.91138" x2="383.07637" y2="127.67058"/>
      <path class="cls-2" d="M387.01167,70.98748c4.67031,12.5029,6.1925,37.8785,6.1925,37.8785"/>
      <path class="cls-2" d="M344.85578,89.75128c1.75921,9.1063,8.8259,23.7209,14.87121,30.7547"/>
      <path class="cls-15" d="M433.68787,183.92628c8.2014-1.9682,16.77411-2.3775,25.1257-1.1995"/>
      <path class="cls-15" d="M396.89087,180.01178c15.6593-1.9264,30.8219-7.7661,43.7278-16.8414"/>
      <g>
        <path class="cls-30" d="M222.80508,129.62118c-.8684-.2784-1.7367-.5569-2.6051-.8353-6.9916-2.242-13.9832-4.4839-20.9748-6.7259-1.3443-.4311-2.726-.8673-4.1356-.789-1.7083.0949-3.2789.9341-4.7408,1.823-1.8213,1.1074-3.5768,2.3228-5.2545,3.6376-1.3775,1.0795-2.6659,2.4471-2.7418,4.2927-.0513,1.2476.545,1.5184.9243,2.708.8781,2.7542,1.8371,3.8317,2.3914,6.6688.2162,1.1062,1.0022,3.3146,1.282,4.4065.4559,1.7793,2.3776,2.8849,3.4234,4.3949,1.0872,1.5696.2205,3.2403,1.9313,3.5721,1.9362.3755,3.8229,1.4788,5.7652,1.8764,3.0136.6169,8.7672,1.3321,11.6483,2.4101.7998.2993,1.6073.5936,2.4485.741,3.841.6733,6.3012-.2095,11.1521-1.563"/>
        <g>
          <g>
            <line class="cls-20" x1="120.10428" y1="33.64458" x2="135.25968" y2="69.89168"/>
            <line class="cls-20" x1="122.72938" y1="23.30888" x2="146.29918" y2="79.68058"/>
            <line class="cls-20" x1="126.00468" y1="14.52828" x2="154.63828" y2="83.01108"/>
            <line class="cls-20" x1="130.68388" y1="9.10538" x2="162.38978" y2="84.93598"/>
            <line class="cls-20" x1="136.10728" y1="5.46228" x2="169.56178" y2="85.47508"/>
            <line class="cls-20" x1="142.02018" y1="2.98998" x2="175.16838" y2="82.27018"/>
            <line class="cls-20" x1="148.42258" y1="1.68858" x2="180.50398" y2="78.41718"/>
            <line class="cls-20" x1="172.80958" y1="10.17208" x2="189.94388" y2="51.15218"/>
            <line class="cls-20" x1="163.36578" y1="4.19988" x2="187.92448" y2="62.93658"/>
            <line class="cls-20" x1="155.56918" y1="2.16688" x2="184.71948" y2="71.88518"/>
            <line class="cls-20" x1="127.09898" y1="12.61598" x2="154.23428" y2="1.27028"/>
            <line class="cls-20" x1="122.18798" y1="21.33798" x2="163.33778" y2="4.13268"/>
            <line class="cls-20" x1="119.79188" y1="29.00848" x2="170.17728" y2="7.94158"/>
            <line class="cls-20" x1="119.39358" y1="35.84368" x2="175.18268" y2="12.51748"/>
            <line class="cls-20" x1="120.41058" y1="42.08708" x2="180.22128" y2="17.07938"/>
            <line class="cls-20" x1="122.33718" y1="47.95028" x2="182.44728" y2="22.81738"/>
            <line class="cls-20" x1="125.19878" y1="53.42238" x2="185.11498" y2="28.37058"/>
            <line class="cls-20" x1="127.57218" y1="59.09878" x2="187.19398" y2="34.16998"/>
            <line class="cls-20" x1="131.26038" y1="64.22528" x2="188.15588" y2="40.43648"/>
            <line class="cls-20" x1="135.02128" y1="69.32148" x2="189.08198" y2="46.71788"/>
            <line class="cls-20" x1="139.23448" y1="74.22858" x2="189.16418" y2="53.35218"/>
            <line class="cls-20" x1="145.68088" y1="78.20188" x2="189.18808" y2="60.01088"/>
            <line class="cls-20" x1="151.28558" y1="82.52718" x2="186.85588" y2="67.65468"/>
            <line class="cls-20" x1="159.34498" y1="85.82608" x2="183.37448" y2="75.77888"/>
          </g>
          <rect class="cls-43" x="189.53643" y="107.32387" width="12.1758" height="63.02402" transform="translate(-38.41567 86.20928) rotate(-22.69074)"/>
          <path class="cls-43" d="M213.33208,165.40538c.5637,1.3484-1.4939,3.4929-4.5959,4.7899s-6.0737,1.2554-6.6375-.093,1.4938-3.4929,4.5958-4.7899c3.1021-1.297,6.0738-1.2554,6.6376.093Z"/>
          <ellipse class="cls-43" cx="183.46848" cy="109.76283" rx="6.0879" ry="2.64626" transform="translate(-28.14136 79.26957) rotate(-22.69067)"/>
          <rect class="cls-37" x="178.58746" y="105.48865" width="7.76174" height="3.76426" transform="translate(-27.29588 78.69759) rotate(-22.69039)"/>
          <path class="cls-37" d="M186.73348,107.51128c.3594.8596-.9523,2.2267-2.9297,3.0535-1.9775.8268-3.8719.8002-4.2312-.0594-.3594-.8595.9522-2.2266,2.9297-3.0534,1.9774-.8268,3.8718-.8002,4.2312.0593Z"/>
          <path class="cls-37" d="M185.32278,104.13728c.3594.8596-.9523,2.2266-2.9297,3.0534-1.9775.8268-3.8719.8003-4.2313-.0593-.3594-.8595.9523-2.2266,2.9298-3.0534,1.9774-.8268,3.8718-.8002,4.2312.0593Z"/>
          <path class="cls-12" d="M184.47378,27.24998c9.2933,22.2267,4.9724,49.9111-11.7186,56.8899-16.6911,6.9788-39.4317-9.3909-48.7249-31.6175-9.2933-22.2267-1.6201-41.8935,15.0709-48.8723,16.691-6.9788,36.0793,1.3733,45.3726,23.5999Z"/>
          <g>
            <path class="cls-12" d="M157.48348,84.81258s7.3551,1.3768,14.6659,9.731c5.5545,6.3473,7.8956,11.8005,7.8956,11.8005"/>
            <path class="cls-12" d="M183.97708,73.78168s-4.1861,6.2023-3.3747,17.2739c.6166,8.412,2.8538,13.9087,2.8538,13.9087"/>
          </g>
          <path class="cls-9" d="M193.07058,117.37558c-.7488,1.5554-1.7148,3.006-2.8612,4.2965-.52.5854-1.0807,1.1429-1.4978,1.8056-.9863,1.5671-.31,3.3525.9926,4.5532.7314.6741,1.6151,1.1553,2.4415,1.7088,1.4452.9678,2.766,2.2209,3.4381,3.825,1.199,2.8618.124,6.0961-.285,9.1718-.1521,1.1438-.1967,2.3636.3267,3.3919.7008,1.3765,2.2349,2.0844,3.677,2.6375,1.4422.5531,2.997,1.1195,3.8955,2.3761,2.2873,3.199-.5817,7.1776-1.5841,10.28-.5916,1.831-.7532,3.9606.2976,5.5725"/>
          <path class="cls-5" d="M179.02038,107.69198c1.8213.3157,3.7808-.3165,5.0743-1.6371.2799-.2858.5351-.6108.6536-.993"/>
          <path class="cls-5" d="M178.40788,112.96648c3.9742.8131,8.3538-.9319,10.6798-4.2552"/>
        </g>
        <g>
          <path class="cls-30" d="M183.36578,128.16598c-1.1531.7308-1.8486,2.4165-2.0356,3.7688-.2223,1.6082.5835,2.9794,1.8963,3.9376-1.0087.8461-1.2133,2.9596-.79,4.0507.4232,1.0911,1.3012,1.9976,2.3782,2.4555.0705.0299-.2308,2.0761-.2286,2.2928.0245,2.4051,2.2981,3.4331,4.1714,4.2989-.4181,1.4944.4542,3.1257,1.7398,3.9947,2.4408,1.6498,5.3283,1.095,7.8807.0703,1.9984-.8023,4.2737-1.4894,6.0005-2.8093,1.1331-.866,2.0386-2.137,2.1296-3.5602.0494-.7722-.2086-1.6401-.8894-2.0079.3798-.7963.6954-1.6456.7135-2.5277.018-.882-.3022-1.807-.9991-2.3479-.5799-.4501-1.3498-.5881-2.0833-.5595.7362-1.0051.9476-2.3738.5491-3.5542-.3986-1.1804-1.3964-2.1407-2.5912-2.4939.528-1.0423.6031-2.1401-.0185-3.1398-.6688-1.0755-2.082-1.68-3.3068-1.3036-1.4535.4466-2.8518.9683-4.3661,1.2732-3.2651.6575-6.6236.8532-9.9426.5712"/>
          <path class="cls-15" d="M183.18558,135.83288c1.3435.6158,2.8516.7536,4.3277.827,1.7455.0868,3.5028.0952,5.232-.1577,3.029-.4431,5.8837-1.7365,8.3557-3.5203.5026-.3627.5418-1.0832.5332-1.703-.0028-.2025-.0063-.4092-.074-.6001-.0695-.1962-.2021-.3627-.3359-.5222-.6936-.8272-1.5437-1.6104-2.6033-1.8169"/>
          <path class="cls-15" d="M184.62568,142.46148c3.0725.7644,6.3143.8221,9.4165.1965,1.8363-.3703,3.6408-.9,5.3927-1.5625,1.1131-.4208,2.2754-.8659,3.3244-1.4282.5704-.3057.6512-.6877.9113-1.2213.1718-.3525.3448-.7083.4376-1.0893.2201-.9035-.0413-1.8807-.5651-2.6491-.5238-.7683-1.2882-1.3461-2.1058-1.7891"/>
          <path class="cls-15" d="M188.42148,148.87418c2.4927.4243,5.0597.283,7.5416-.2003,2.0154-.3926,4.0214-.9103,5.9073-1.7344,1.5484-.6766,3.5242-1.3416,4.1408-3.1082.1873-.5367.2004-1.1162.2116-1.6845.009-.4567.0153-.9286-.1594-1.3507-.2041-.4928-.6376-.8622-1.1164-1.0972-.4788-.235-1.0057-.3511-1.5267-.4651"/>
          <path class="cls-15" d="M206.21728,148.10098c.9029-1.3608.3274-2.8578-.352-4.1572"/>
        </g>
        <path class="cls-23" d="M199.90358,123.43548c-3.0389,1.2726-6.9693,2.7426-8.8513,5.6286-1.7158,2.631-1.7315,6.7965-2.2977,9.829-.1287.6894-.2431,1.4583.141,2.0451.7488,1.1438,3.2139.9073,4.2765.0472,1.5397-1.2464,2.0792-3.2203,2.7817-5.0726.1791-.4724.3737-1.0103.8376-1.2104.2644-.114.5651-.0908.8519-.0655,1.6717.1474,3.3435.2947,5.0152.442,1.824,3.4404,5.1755,7.052,8.5526,8.9905,3.3772,1.9385,4.1534,1.3255,7.9334,2.2609"/>
      </g>
      <path class="cls-15" d="M279.28138,128.51788c2.2278,1.8067,4.0482,4.113,5.2881,6.6995"/>
      <path class="cls-15" d="M477.85187,115.69948c-.3052-2.4001-.3131-4.8378-.0232-7.2397"/>
    </g>
    <g>
      <path class="cls-30" d="M363.07887,60.60438c-.8046-6.3842-3.4814-14.1702-9.1353-17.3648-5.4811-3.0969-12.5389-3.2084-18.61859-2.1504-5.19741.9044-10.22311,3.3842-12.54871,8.3692-1.446,3.0994-1.061,6.8088-.3116,10.052,1.7614,7.6225,3.547,15.4611,6.4079,22.7606,1.9262,4.9146,5.26741,9.2138,10.7145,10.1448,9.3451,1.5972,16.67991-5.2306,20.5007-12.9724,3.09521-6.2717,3.885-11.7464,2.9911-18.839Z"/>
      <path class="cls-42" d="M371.77827,48.31218c-.0599-.1335-.1179-.2678-.1736-.4032-.6604-1.603-.8585-3.3428-1.45769-4.9669-.728-1.9732-1.65691-3.8881-2.92721-5.5725-1.5039-1.9942-3.8136-3.6865-6.5751-4.106-2.3735-.3604-4.7789.2395-7.0754.833l.5419,5.9418c.1881,2.7413.7616,5.4666,1.7047,8.1013.612,1.7096,1.47511,3.4878,3.2278,4.5051.3742.2172.7851.3968,1.10631.6675.73009.6155.84839,1.5525,1.07709,2.3974.5408,1.9984,1.6565,4.0827,3.1446,5.5273,1.4475,1.4053,2.546,3.1337,4.09131,4.4891.79209.6948,2.35669,1.9617,3.49129,1.3303.3082-.1715.54271-.4511.7325-.7485,1.1953-1.8732,1.5936-4.7622,1.8284-6.938.2494-2.3102.20581-4.783-.7008-6.958-.5879-1.4105-1.4118-2.7071-2.0361-4.0997Z"/>
      <g>
        <path class="cls-30" d="M359.26367,61.64688c1.10331-1.8459,3.1469-3.0949,5.2927-3.2346,2.1459-.1398,4.3343.8333,5.6678,2.5204,1.1951,1.5123,1.6836,3.4941,1.6681,5.4215-.0276,3.4056-1.7216,6.8893-4.702,8.5371s-6.1216,1.1074-7.5726-2.4577"/>
        <path class="cls-15" d="M371.95427,67.05638c-1.3772,7.095-4.8956,8.3258-7.0378,8.613-2.4457.3279-4.3747-.965-5.2988-3.2358"/>
        <path class="cls-15" d="M359.26367,61.64688c.5131-.8585,2.4906-3.3015,7.1464-2.9814"/>
        <path class="cls-15" d="M369.13707,65.17028c-.507-1.1313-1.468-2.0688-2.6416-2.4684-1.2134-.4133-2.5423-.1188-3.5288.6806-1.0042.8138-1.71469,2.0769-2.093,3.3008"/>
        <path class="cls-15" d="M365.21798,62.77438c.80709,1.2039,1.418,2.5915,1.45209,4.0602.0364,1.5649-.63209,3.1688-1.4185,4.4916"/>
      </g>
      <path class="cls-42" d="M355.51098,29.16768c-4.16-1.8785-8.92141-2.3963-13.38791-1.4559-4.6825.9858-8.839,3.4734-12.8293,6.0105-2.0064,1.2758-3.9942,2.5833-6.0541,3.7728-1.9136,1.105-6.4328,1.4288-7.0281,4.0047-.3051,1.3205,2.4911,1.9988,3.3636,2.1949-.327.6525-.905,1.1459-1.2781,1.7732-.898,1.5097-.2844,3.7134,1.2646,4.5417.7887.4217,1.712.5013,2.6061.5192,3.9531.0795,7.9226-.903,11.3821-2.8174.17911-.099.3714-.2039.5752-.1849.4246.0395.8505.5918,1.2168.8048.6058.3522,1.3517.5691,2.0219.7599,1.76521.5023,3.6208.5905,5.4444.4565,3.1273-.2298,6.2449-1.2252,8.7946-3.078,3.1194-2.2668,3.9698-5.3763,5.7223-8.6271l3.406-4.5484c-1.2089-1.8975-3.1697-3.2005-5.22009-4.1265Z"/>
      <path class="cls-15" d="M333.18278,64.53888s1.5184,5.8353,1.0461,10.7095c-.1294,1.3354.2526,2.8031,1.5459,3.3093,1.44021.5637,3.8847-.2592,5.284-.9065"/>
      <path class="cls-40" d="M347.76958,77.83318l-7.7757,3.5178s2.1745,2.7777,4.8229,1.9635,3.722-2.601,2.9528-5.4813Z"/>
      <path class="cls-15" d="M348.86938,91.77498c5.0528-2.6219,9.0742-7.5662,11.5772-12.679"/>
      <path class="cls-18" d="M315.06648,43.03038c2.7834.9428,5.8811.929,8.656-.0386"/>
      <path class="cls-18" d="M316.44038,35.87908c4.3199,1.2377,8.9804-.1414,13.0434-2.0162,4.0631-1.8748,7.9365-4.2766,12.329-5.2514,3.0834-.6842,6.3428-.6258,9.3975.1683"/>
      <path class="cls-13" d="M334.33118,47.12038c2.4212-1.2569,4.9116-2.5688,6.6446-4.6756"/>
      <path class="cls-13" d="M354.53227,43.09268c2.2049-2.528,4.0889-5.3356,5.5925-8.3342"/>
      <path class="cls-13" d="M321.27428,47.10788c1.5142.0226,2.9869-.4644,4.4014-1.0055,5.1786-1.9809,10.0467-4.771,14.3737-8.2379"/>
      <path class="cls-13" d="M342.33108,48.03398c4.74591-2.1705,8.81391-5.7971,11.5128-10.2638"/>
      <g>
        <path class="cls-33" d="M344.58648,46.94408c-1.4804.3591-21.285,5.5056-22.9483,6.8993-1.66319,1.3936-5.5805,6.8404-5.1181,10.137s5.6644,7.9875,9.9244,8.9598c4.26.9724,23.5461-1.1884,25.5294-2.6158,1.3277-.9556,5.6338-1.8059,5.77311-7.0406.10279-3.8606-1.94771-8.855-3.05431-11.6281-2.1366-5.3545-5.3623-5.8621-10.1062-4.7116Z"/>
        <path class="cls-27" d="M341.49538,51.66188c-1.48039.3591-21.2851,5.5057-22.9483,6.8993-1.6632,1.3937-2.3543,4.3894-1.8919,7.686s2.4382,10.4385,6.6982,11.4109c4.2599.9723,26.6372-5.9063,28.6205-7.3337,2.6915-1.9372,1.8114-8.4783-.3723-13.9508-2.1367-5.3546-5.3624-5.8622-10.1062-4.7117Z"/>
        <path class="cls-29" d="M324.68268,74.74658c-.4841.0176-.667-.0144-.6744-.016-1.9032-.4347-3.8411-5.0403-4.38229-8.9002-.36781-2.6202.23739-4.322.756-4.8817,2.43659-1.2415,18.28569-5.5145,21.82039-6.3713,1.052-.2551,1.9099-.3918,2.6223-.4176,1.48731-.054,2.72631.1566,3.9905,3.3257,2.194,5.4992,2.0171,9.0326.8252,10.5515-1.192,1.519-19.1895,6.5003-24.9572,6.7096h-.0005Z"/>
        <g class="cls-47">
          <g>
            <g class="cls-48">
              <rect class="cls-40" x="301.83644" y="65.03048" width="44.58118" height="4.00045" transform="translate(171.37152 360.65836) rotate(-74.19922)"/>
            </g>
            <g class="cls-48">
              <rect class="cls-40" x="321.28675" y="64.39321" width="44.58156" height="4.00043" transform="translate(186.14636 378.91388) rotate(-74.20058)"/>
            </g>
            <g class="cls-48">
              <rect class="cls-40" x="311.03124" y="63.87761" width="44.58052" height="7.99943" transform="translate(177.20471 370.09927) rotate(-74.19106)"/>
            </g>
            <path class="cls-15" d="M318.93088,66.03608s.0823-1.4814,4.29211-2.9532c4.20989-1.4718,17.72879-4.8275,20.05889-5.3334,3.43111-.7448,6.21811-.7522,6.21811-.7522"/>
          </g>
        </g>
        <path class="cls-33" d="M370.00027,41.83088c-3.8639,4.9485-9.8726,8.6975-16.6669,10.3993l2.7494,6.6884c6.7974-1.8342,12.8125-5.8598,16.6849-11.1665l-2.7674-5.9212Z"/>
        <path class="cls-17" d="M354.84017,52.00258c.8389,2.1543,1.6616,4.9315,2.1469,6.5887"/>
      </g>
      <path class="cls-36" d="M348.81518,57.48548c-1.26419-3.1691-2.5031-3.3797-3.9904-3.3257-.7125.0258-1.5704.1625-2.6224.4176-3.5328.8564-19.3662,5.125-21.8163,6.3692-4.07209,2.0679-8.3299,3.9489-12.2953,6.1892-6.27979,3.5479-9.0495,9.7953-14.256,14.7432-6.9507,6.6057-17.042,8.3964-26.4987,9.9833-47.0826,7.9006-95.4713,18.8274-133.5489,47.6246-14.6416,11.073-27.7856,25.2074-33.4198,42.6786-5.63424,17.4713-2.2868,38.6473,11.5808,50.6763,12.5584,10.8931,29.6565,14.9311,45.9434,12.6032,17.95-2.5659,30.9426-14.7726,46.0068-23.5314,14.1974-8.2548,31.4474-8.4895,47.5782-11.5726,12.9051-2.4666,25.643-6.9989,36.0567-15.0103,10.41371-8.0113,18.3226-19.7954,19.8365-32.8467.8189-7.0597-.2154-14.192-.1991-21.2991.0164-7.1071,1.2724-14.623,5.8928-20.0233,3.0629-3.58,7.4038-5.9833,10.075-9.8651,6.07351-8.8272,8.5274-19.2217,15.1487-28.0763,3.7806-5.0558,7.456-10.2167,11.3532-15.1832,1.1919-1.519,1.3688-5.0523-.8252-10.5515Z"/>
      <path class="cls-36" d="M193.98978,263.22078c2.8462,4.7552,8.5058,7.1346,13.9939,7.9048,3.3388.4687,6.7986.4482,10.0157-.5606,3.2172-1.0087,6.1792-3.0807,7.8229-6.0245.9561-1.7123,1.4406-3.6515,1.7067-5.5945,1.5766-11.5137-8.2079-20.0559-19.5135-20.0871-10.9993-.0303-19.7061,14.8716-14.0257,24.3619Z"/>
      <path class="cls-36" d="M237.57268,72.66288c-7.1103,3.1748-14.3999,6.9697-18.679,13.4755-4.279,6.5057-4.2647,16.4573,2.0066,21.0741,5.8782,4.327,13.5026,2.7159,20.242,2.539,9.5699-.2511,22.6985.8383,28.2132-8.8159,3.486-6.1029,3.9689-14.0043.6083-20.1771-6.1918-11.3734-21.8665-12.795-32.3911-8.0956Z"/>
    </g>
    <g>
      <path class="cls-26" d="M171.74178,180.70508c4.2499,8.6102.7151,19.0354-7.8951,23.2854-8.6103,4.2499-19.0355.7151-23.2854-7.8951-4.2499-8.6103-.7152-19.0355,7.8951-23.2854,8.6102-4.25,19.0354-.7152,23.2854,7.8951Z"/>
      <path class="cls-10" d="M139.92918,182.70248c4.6461.9527,8.7832,4.133,10.8984,8.378s2.1628,9.463.1254,13.7459"/>
      <path class="cls-10" d="M157.98858,171.61988c.0918,4.8949,1.847,10.6828,5.7783,14.6827,2.5471,2.5916,5.812,4.3118,9.1144,4.8023"/>
      <line class="cls-21" x1="141.38618" y1="191.10488" x2="131.43438" y2="191.10488"/>
      <line class="cls-21" x1="128.48088" y1="184.13868" x2="118.52908" y2="184.13868"/>
      <line class="cls-21" x1="177.38718" y1="184.13868" x2="170.39148" y2="184.13868"/>
      <line class="cls-21" x1="118.52908" y1="204.82638" x2="111.53348" y2="204.82638"/>
      <line class="cls-11" x1="138.97268" y1="191.10488" x2="143.97678" y2="191.10488"/>
      <line class="cls-11" x1="152.44818" y1="176.68228" x2="163.19138" y2="176.68228"/>
      <line class="cls-11" x1="168.21008" y1="184.13868" x2="172.88128" y2="184.13868"/>
    </g>
  </g>
  <g>
    <g>
      <circle class="cls-1" cx="562.25324" cy="304.95393" r="37.04972" transform="translate(89.04364 735.30062) rotate(-70.75848)"/>
      <path class="cls-1" d="M545.44967,338.32268c5.133-4.0932,11.5848-6.5054,18.1441-6.7838,6.5594-.2784,13.1923,1.5784,18.6538,5.2219"/>
      <path class="cls-1" d="M539.76198,334.39458c2.00229-3.7023,4.26789-5.992,7.97159-7.9919,5.2318-2.825,11.375-3.3909,17.3208-3.4039,7.0304-.0154,14.6621.8386,21.38761-1.6882,7.29909-2.7424,11.76479-9.6317,12.85749-17.1664"/>
      <path class="cls-1" d="M534.91207,329.95618c-.3796-3.2251.36391-6.3388,2.263-8.9731,4.0983-5.6846,11.4235-7.9867,18.02-9.1894,6.02991-1.0995,12.27791-1.6463,17.8271-4.2492,10.9277-5.1257,17.7703-13.681,13.49381-30.5903"/>
      <path class="cls-1" d="M563.97198,267.81718c6.05629,7.1056,5.09019,17.0868-2.21161,22.7737-6.2518,4.869-14.4376,6.1586-20.6603,11.1784-8.1565,6.5799-10.8258,12.605-10.11909,23.0608"/>
      <path class="cls-1" d="M540.41777,274.82088c2.3496,3.7429,1.2848,8.5245-.8225,12.1013-1.8816,3.1937-4.7096,5.6673-6.8427,8.6755-2.2827,3.2192-3.96,6.8735-4.9208,10.7072-.8694,3.4693-.8116,8.3077-.2139,11.8295"/>
    </g>
    <polygon class="cls-31" points="250.07538 315.22018 252.15558 333.83378 265.71378 320.91208 255.34278 336.50808 274.03478 335.32448 256.06518 340.60538 271.14488 351.71368 253.98498 344.20848 258.39638 362.41098 250.07538 345.63148 241.75438 362.41098 246.16578 344.20848 229.00578 351.71368 244.08548 340.60538 226.11598 335.32448 244.80798 336.50808 234.43698 320.91208 247.99508 333.83378 250.07538 315.22018"/>
    <polygon class="cls-29" points="214.72438 291.30338 210.64588 300.62828 220.53738 298.23108 211.41918 302.75288 220.53738 307.27458 210.64588 304.87738 214.72438 314.20228 208.68798 306.00778 205.81828 315.77268 206.46138 305.61518 197.98638 311.25098 205.00818 303.88328 194.89328 302.75288 205.00818 301.62238 197.98638 294.25478 206.46138 299.89048 205.81828 289.73298 208.68798 299.49788 214.72438 291.30338"/>
    <polygon class="cls-29" points="448.66517 15.80418 444.58677 25.12908 454.47817 22.73188 445.35998 27.25358 454.47817 31.77538 444.58677 29.37808 448.66517 38.70308 442.62877 30.50858 439.75907 40.27338 440.40227 30.11598 431.92717 35.75168 438.94898 28.38398 428.83417 27.25358 438.94898 26.12318 431.92717 18.75548 440.40227 24.39128 439.75907 14.23378 442.62877 23.99868 448.66517 15.80418"/>
    <polygon class="cls-29" points="628.54187 383.21138 624.46337 392.53638 634.35487 390.13908 625.23667 394.66088 634.35487 399.18258 624.46337 396.78538 628.54187 406.11028 622.50547 397.91578 619.63577 407.68068 620.27887 397.52318 611.80387 403.15898 618.82567 395.79128 608.71077 394.66088 618.82567 393.53038 611.80387 386.16278 620.27887 391.79848 619.63577 381.64098 622.50547 391.40588 628.54187 383.21138"/>
    <polygon class="cls-34" points="645.49507 246.01438 646.66377 256.47208 654.28117 249.21228 648.45447 257.97458 658.95617 257.30958 648.86037 260.27648 657.33257 266.51748 647.69157 262.30088 650.17007 272.52758 645.49507 263.10028 640.82007 272.52758 643.29857 262.30088 633.65757 266.51748 642.12977 260.27648 632.03398 257.30958 642.53567 257.97458 636.70898 249.21228 644.32627 256.47208 645.49507 246.01438"/>
    <polygon class="cls-34" points="33.52128 274.45388 29.46378 282.14468 38.04168 280.71988 29.98988 284.00318 37.47688 288.42558 29.19838 285.76518 32.09098 293.96538 27.45938 286.60608 24.40428 294.74718 25.58678 286.13248 18.01338 290.40508 24.45668 284.56598 15.90868 282.97098 24.59788 282.63958 19.07498 275.92318 25.94438 281.25458 26.03078 272.55948 27.86598 281.05918 33.52128 274.45388"/>
    <g>
      <path class="cls-25" d="M119.51728,128.77348c-3.5312,7.7511-32.84645,1.9836-65.4775-12.8822C21.40878,101.02548-2.18122,82.69088,1.34998,74.93978c3.5311-7.7512,32.8464-1.9836,65.4774,12.8822,32.631,14.8658,56.2211,33.2004,52.6899,40.9515Z"/>
      <circle class="cls-41" cx="61.31515" cy="99.92158" r="34.33393" transform="translate(-15.05075 10.97149) rotate(-9.11228)"/>
      <path class="cls-24" d="M29.63848,114.79968c2.6038-2.0506,6.2425-2.1515,9.179-3.6884,4.3836-2.2942,6.585-8.0527,4.8497-12.6861-1.3075-3.4914-4.3585-5.9647-6.9394-8.6551-2.5809-2.6905-3.8973-6.4158-3.1668-10.0718"/>
      <path class="cls-24" d="M44.40468,70.39848c-1.9549,7.4486.6225,15.8999,6.4014,20.9899,2.6588,2.3419,5.9813,4.0856,7.8091,7.1208,1.0755,1.7862,1.5296,3.8643,2.1762,5.8465.682,2.0908,1.5929,4.1067,2.7112,6.0003,1.5296,2.5901,4.0432,5.2078,7.0202,4.7762,1.9458-.282,3.5099-1.883,4.2332-3.7112s.7357-3.8566.588-5.8171c-.6028-8.0009-3.669-15.5831-6.7267-23.0012-.4842-1.1747-.9764-2.382-1.0095-3.6521-.033-1.2701.4937-2.6363,1.609-3.245.6375-.348,1.386-.4141,2.0801-.628,2.5182-.7761,4.094-3.7868,3.2967-6.2983"/>
      <path class="cls-24" d="M88.57411,78.60048c-2.64032,3.1056-5.3728,6.395-6.18542,10.3894-1.53928,7.5663,4.23285,15.2417,2.56907,22.7816-.85804,3.8886-3.66385,7.1585-7.06308,9.2326-3.3993,2.0741-7.355,3.0651-11.3015,3.5957-5.8538.7871-12.3704.8447-16.7155,4.8456-.831.7651-1.5955,1.8239-1.3754,2.9318"/>
      <path class="cls-25" d="M119.51728,128.77348c-3.5312,7.7511-32.84645,1.9836-65.4775-12.8822C21.40878,101.02548-2.18122,82.69088,1.34998,74.93978"/>
    </g>
    <g>
      <ellipse class="cls-16" cx="623.8587" cy="190.30033" rx="36.05846" ry="8.56526" transform="translate(-6.63079 357.32395) rotate(-31.80114)"/>
      <circle class="cls-31" cx="623.23637" cy="189.29668" r="19.06832" transform="translate(298.30352 753.81014) rotate(-76.97055)"/>
      <path class="cls-16" d="M654.50417,171.29848c2.49281,4.0203-9.2068,15.7869-26.1318,26.2813s-32.6663,15.7427-35.1591,11.7224"/>
    </g>
    <circle class="cls-38" cx="527.36357" cy="197.80458" r="11.1064"/>
    <circle class="cls-34" cx="538.03317" cy="379.86658" r="2.9128"/>
    <circle class="cls-34" cx="509.47998" cy="231.33048" r="2.9128"/>
    <circle class="cls-34" cx="300.84438" cy="194.19008" r="2.9128"/>
    <path class="cls-29" d="M237.05558,35.84368c0,1.6087-1.3041,2.9128-2.9127,2.9128-1.6088,0-2.9129-1.3041-2.9129-2.9128s1.3041-2.9128,2.9129-2.9128c1.6086,0,2.9127,1.3041,2.9127,2.9128Z"/>
    <circle class="cls-29" cx="632.93667" cy="290.23958" r="2.9128"/>
    <circle class="cls-38" cx="127.68198" cy="273.61268" r="2.9128"/>
    <path class="cls-40" d="M163.32588,366.74058c2.1233-5.8527.2909-13.0333-4.578-16.9748-5.343-4.3253-13.7486-4.2771-19.0416.1094,1.0789-7.0505.1376-11.26-.6137-16.8262-.6188-4.5853-3.2299-8.7434-6.4695-12.2571-8.0229-8.7018-22.9543-6.1513-32.0403-1.1292-20.29668,11.2188-30.5555,29.5445-30.5555,29.5445,0,0-2.6427-12.049-20.3123-4.6772-9.4486,3.9419-21.3156,12.2958-29.2462,22.2106h142.8571Z"/>
    <path class="cls-40" d="M634.22837,56.69168c5.3918-17.2214-9.8356-28.2731-23.2777-28.4116-10.7229-.1105-21.6541,1.745-30.8569,8.1258,1.4467-9.0029.614-16.0938-4.9932-20.0433-5.6071-3.9495-15.5231-3.5017-22.0963-1.544-14.6668,4.3683-34.3148,14.1249-57.3796,41.8731h138.6037Z"/>
    <circle class="cls-1" cx="100.10947" cy="286.0179" r="9.02308" transform="translate(-202.90483 282.78002) rotate(-70.09717)"/>
    <line class="cls-6" x1="618.65617" y1="71.64228" x2="660.20398" y2="71.64228"/>
    <line class="cls-6" x1="205.34208" y1="2.98998" x2="246.88988" y2="2.98998"/>
    <line class="cls-19" x1="2.62068" y1="387.98388" x2="44.16848" y2="387.98388"/>
    <line class="cls-6" x1="159.73008" y1="329.95618" x2="178.40788" y2="329.95618"/>
    <line class="cls-6" x1="177.38718" y1="336.95548" x2="190.10838" y2="336.95548"/>
    <line class="cls-8" x1="577.73627" y1="71.64228" x2="596.23537" y2="71.64228"/>
    <line class="cls-8" x1="654.20337" y1="304.95398" x2="672.70247" y2="304.95398"/>
    <line class="cls-8" x1="622.78447" y1="338.81558" x2="654.00847" y2="338.81558"/>
    <line class="cls-6" x1="649.15787" y1="329.95618" x2="660.20398" y2="329.95618"/>
    <line class="cls-6" x1="48.24308" y1="158.03298" x2="70.55158" y2="158.03298"/>
    <line class="cls-6" x1="483.92357" y1="248.21198" x2="504.20577" y2="248.21198"/>
    <rect class="cls-34" x="246.98458" y="12.51748" width="34.3612" height="5.9576"/>
    <rect class="cls-34" x="68.29698" y="380.99308" width="20.53861" height="5.9576"/>
    <rect class="cls-34" x="598.87357" y="92.59948" width="20.5385" height="5.9576"/>
  </g>
</svg>