<?xml version="1.0" encoding="UTF-8"?><svg id="b" xmlns="http://www.w3.org/2000/svg" viewBox="0 0 199.52519 176.9023"><g id="c"><polygon points="13.916 176.9023 16.9377 142.8092 0 173.6873 13.916 176.9023" style="fill:#065f46; opacity:.33; stroke-width:0px;"/><polygon points="190.6957 43.0652 179.8591 41.2134 191.1459 34.2072 175.1084 25.3548 171.4199 39.7714 159.917 37.8058 159.917 10.5991 145.4839 14.2444 155.3046 37.0176 32.9014 16.1016 31.1489 58.6228 16.19351 57.8293 26.5513 124.882 28.4098 125.0848 26.8303 163.4091 33.1228 163.8014 33.1228 171.5977 43.80451 164.4673 158.1778 171.5977 166.1423 140.1166 171.6674 140.7196 199.52519 67.5562 184.6986 66.7696 190.6957 43.0652" style="fill:#065f46; opacity:.33; stroke-width:0px;"/><path d="M157.111,162.514l-133.9551-8.3506L29.3532,3.8021l160.9521,27.5039-33.1943,131.208ZM26.1579,151.4564l128.7402,8.0263,31.8408-125.8564L32.1032,7.2024l-5.9453,144.254Z" style="fill:#065f46; stroke-width:0px;"/><polygon points="39.0873 15.2682 178.2017 39.0398 149.5332 152.3564 33.735 145.1372 39.0873 15.2682" style="fill:#065f46; stroke-width:0px;"/><polygon points="51.5233 29.7959 162.8487 48.819 139.9069 139.4999 47.2401 133.7227 51.5233 29.7959" style="fill:none; stroke:#fff; stroke-miterlimit:10; stroke-width:2.2293px;"/><polygon points="14.0199 47.2303 197.3516 56.9572 169.4938 130.1206 24.3777 114.283 14.0199 47.2303" style="fill:#ebce56; stroke-width:0px;"/><path d="M50.93164,74.80486c-.01984,2.07108-.98053,3.86819-2.47812,4.79446-1.44586.90131-3.44879.88855-6.21289.80502-2.07117-.06277-4.14246-.12375-6.21362-.18271,1.17307-6.33685,2.15793-12.74756,2.94772-19.22379,1.42157-.04288,2.84326-.08481,4.26505-.12582,2.31616-.06653,4.02979-.08777,5.2829.40897,1.60172.62564,2.62424,2.23337,2.65906,4.14233.04758,2.6391-1.45096,4.48993-3.92529,4.84326,2.39752.46979,3.69824,2.0744,3.6752,4.53827ZM42.19028,76.58901c2.49933.04739,3.80255-.22733,3.82257-2.54498.01126-1.51718-.88828-1.99277-2.81052-2.0011-.29846-.00146-.59686-.00287-.89532-.0043-.23035,1.517-.47131,3.03012-.72266,4.5394.20197.00363.40393.00723.60593.01099ZM43.26725,68.45949c2.0788-.01117,3.18744-.40179,3.15939-2.22812-.01971-1.18826-.79474-1.64658-2.37399-1.61795-.237.00409-.47394.00818-.71091.0123-.15784,1.28128-.32324,2.56003-.49619,3.8364.14056-.00095.28113-.00174.42169-.00262Z" style="fill:#065f46; stroke-width:0px;"/><path d="M59.85675,60.4341c2.09796-.0502,4.19611-.09848,6.29431-.14478,1.5593,6.95535,2.91104,13.98495,4.0495,21.07932-1.70221-.06577-3.40442-.13016-5.1066-.19336-.21835-1.32031-.44418-2.63818-.67749-3.9537-2.1944-.0563-4.38879-.1105-6.58319-.16245-.61783,1.27023-1.24271,2.53348-1.8746,3.78955-1.82513-.06265-3.65027-.12387-5.47537-.18359,3.32269-6.54901,6.45306-13.29572,9.37344-20.23099ZM63.74933,72.58669c-.28485-1.62039-.58112-3.23727-.88858-4.85062-.14023-.78375-.25638-1.56537-.29672-2.34705-.3989,1.30756-.68051,2.117-.80838,2.43613-.6503,1.58115-1.31143,3.15298-1.98325,4.7153,1.32568.01459,2.65131.03003,3.97693.04623Z" style="fill:#065f46; stroke-width:0px;"/><path d="M74.1612,60.12203c1.91409-.03751,3.82822-.07346,5.74243-.10767,1.43961,3.55945,2.827,7.15717,4.16055,10.79208.29187.83368.76544,1.97906,1.07043,3.62033.0014-.18478.00281-.3696.00394-.55438.00589-.98694.11337-2.0329.24295-3.11136.47519-3.60403.89767-7.22458,1.26651-10.86057,1.677-.02661,3.35413-.05188,5.03119-.07605-.758,7.50497-1.74115,14.94571-2.94275,22.31204-1.8428-.08133-3.6857-.1611-5.52863-.23935-1.29926-3.77655-2.6568-7.51367-4.0708-11.21014-.34436-.88403-.79797-2.03894-1.13232-3.55167.00275.20163.00531.40329.00772.60492.01062,1.05917-.08856,2.0571-.19073,2.99341-.46619,3.6424-.98743,7.26794-1.56287,10.87527-1.67599-.06787-3.35202-.13452-5.02811-.19986,1.18753-7.02487,2.1666-14.12369,2.93048-21.28702Z" style="fill:#065f46; stroke-width:0px;"/><path d="M95.68756,59.76925c1.67746-.02252,3.35501-.04382,5.03262-.06381-.32245,3.21289-.68512,6.41431-1.08771,9.60367,2.36987-3.16403,4.70062-6.38663,6.99008-9.66705,2.16962-.02155,4.33936-.04095,6.50916-.05826-2.97409,3.93301-6.00644,7.77811-9.09335,11.53415,2.13858,3.95026,4.21689,7.96411,6.23196,12.04004-1.98276-.10025-3.96561-.1987-5.94839-.29547-1.65567-3.48669-3.35825-6.92908-5.10611-10.32642-.44775,3.35107-.93951,6.68854-1.47464,10.01147-1.66708-.07837-3.33408-.15552-5.00116-.23145,1.20554-7.44458,2.19022-14.96362,2.94754-22.54688Z" style="fill:#065f46; stroke-width:0px;"/><path d="M35.94468,90.84511c-1.40225-.08652-2.80453-.17203-4.20685-.25681.32449-1.44138.63919-2.88705.94388-4.33691,4.42844.20721,8.85672.4231,13.28473.64795-.30762,1.5101-.62567,3.01596-.95398,4.51755-1.34048-.0864-2.68094-.17197-4.02142-.25674-1.06186,4.90735-2.23502,9.76843-3.51611,14.57953-1.67584-.18188-3.35187-.36249-5.02792-.54184,1.27328-4.73566,2.44022-9.52106,3.49768-14.35272Z" style="fill:#065f46; stroke-width:0px;"/><path d="M44.15348,106.47222c1.68018-6.39682,3.17316-12.87863,4.47214-19.43683,1.66599.08612,3.33194.17352,4.99786.26215,2.18277.11563,3.89072.26273,5.25055,1.05612,1.84506,1.078,2.75266,2.93079,2.5939,5.40784-.21741,3.37323-2.34131,5.67554-5.69452,5.96564,1.30042,2.79614,2.56628,5.62537,3.79642,8.48706-1.90164-.21933-3.80331-.43704-5.70526-.65308-.93033-2.69467-1.89297-5.36526-2.8869-8.01114-.58881,2.50406-1.20575,4.99612-1.85037,7.47583-1.65784-.18579-3.3158-.37024-4.97382-.55359ZM53.27884,96.50542c1.99411.16306,3.14999-.76944,3.27194-2.61469.11664-1.78882-.87378-2.53827-2.97534-2.67352-.24533-.01569-.49063-.03137-.73596-.04709-.36502,1.74203-.74362,3.47855-1.13556,5.2095.52505.04181,1.05002.08368,1.57492.12579Z" style="fill:#065f46; stroke-width:0px;"/><path d="M70.45969,88.23299c2.09488.12173,4.18973.24545,6.28452.37109.99335,7.24704,1.76825,14.55563,2.31912,21.91562-1.69156-.20499-3.38315-.40872-5.07498-.61115-.10901-1.37064-.22583-2.73941-.35052-4.10629-2.18259-.23587-4.36533-.46964-6.54822-.70123-.71957,1.25198-1.44589,2.49649-2.17877,3.73349-1.81396-.21231-3.62805-.42319-5.44232-.63257,3.85126-6.44995,7.52081-13.10901,10.99118-19.96896ZM73.35297,100.99837c-.15173-1.68304-.31543-3.36346-.49088-5.04095-.07681-.8139-.12875-1.62427-.10538-2.42792-.50342,1.30634-.84998,2.11188-1.00235,2.42859-.77689,1.56625-1.56418,3.12253-2.36148,4.66852,1.32013.12308,2.64014.2471,3.96008.37177Z" style="fill:#065f46; stroke-width:0px;"/><path d="M84.74274,89.09426c1.91055.11935,3.82101.24026,5.73145.36285,1.14777,3.75739,2.23895,7.5498,3.27197,11.37598.22208.87634.60165,2.08801.7706,3.79031.01648-.18887.0329-.37778.04919-.56668.08658-1.00787.27994-2.06897.49689-3.16144.76727-3.64749,1.48181-7.31479,2.14291-11.00061,1.67398.11078,3.34805.22278,5.02191.33606-1.36194,7.60547-2.94861,15.13306-4.75317,22.57306-1.8298-.23199-3.65982-.46252-5.48993-.69159-.98416-3.97015-2.03134-7.90466-3.13959-11.80212-.27026-.93262-.62836-2.15106-.83984-3.72736-.01398.20654-.02814.41302-.04242.61954-.07416,1.08548-.25366,2.09756-.43356,3.04709-.76135,3.689-1.57764,7.35782-2.44809,11.00507-1.66501-.20459-3.33005-.40796-4.99524-.61008,1.76248-7.09982,3.31699-14.28622,4.65692-21.55008Z" style="fill:#065f46; stroke-width:0px;"/><path d="M108.08091,109.07845c1.30972.15393,2.15469-.64331,2.2645-1.85812.12454-1.37857-.80051-2.0134-2.36145-3.26202-2.33459-1.85382-3.60968-3.40405-3.41107-6.31555.30322-4.51862,3.17804-7.61279,7.17725-7.35025,2.07657.14252,3.98221,1.20453,5.58987,3.17682-.80444,1.51633-1.61755,3.02365-2.43909,4.52188-1.21732-1.54526-2.27902-2.36136-3.25073-2.44107-1.05164-.08572-1.83734.70731-1.90591,1.75552-.08527,1.27969,1.16998,1.85172,2.76324,3.1991,2.28806,1.91443,3.26865,3.63287,2.9946,6.7269-.44971,5.00354-3.69409,8.03625-8.57419,7.37851-2.50931-.32977-4.55161-1.94434-6.0488-4.71384,1.01605-1.4241,2.02423-2.85934,3.02435-4.30548,1.32068,2.13132,2.58038,3.30112,4.17743,3.48761Z" style="fill:#065f46; stroke-width:0px;"/><path d="M121.318,91.57677c3.61847.26578,7.23669.53738,10.85471.81485-.32281,1.87814-.65833,3.75217-1.00644,5.62186-1.9425-.17493-3.88507-.34814-5.82773-.51965-.2515,1.32672-.50949,2.65118-.7738,3.97339,1.81882.17831,3.63754.35818,5.45618.53958-.34897,1.74829-.70908,3.49255-1.0802,5.23282-1.80737-.20349-3.61493-.40552-5.42252-.60611-.65637,3.11285-1.34851,6.21277-2.07593,9.29913-1.66315-.22324-3.32642-.44522-4.98978-.66599,1.85294-7.81137,3.47702-15.71146,4.86551-23.68988Z" style="fill:#065f46; stroke-width:0px;"/><path d="M142.5842,113.11358c-.40155,1.85471-.81525,3.70499-1.24103,5.5509-3.58527-.50348-7.17126-1.00116-10.75781-1.49283,1.89038-8.08752,3.54376-16.26453,4.9534-24.52042,3.60901.28021,7.21771.56628,10.82617.85818-.32825,1.9538-.66992,3.90332-1.02478,5.84854-1.93314-.18277-3.86642-.36374-5.79977-.54309-.2464,1.36176-.49933,2.72131-.75882,4.0787,1.7919.18359,3.58377.36865,5.37552.55515-.34711,1.82037-.70581,3.6369-1.07599,5.44946-1.798-.2106-3.5961-.41965-5.39429-.6272-.28729,1.37369-.5813,2.74496-.88193,4.11386,1.92661.24124,3.85306.48416,5.77933.72873Z" style="fill:#065f46; stroke-width:0px;"/><path d="M144.81583,119.15331c1.92969-8.36639,3.61414-16.82324,5.04654-25.35956,1.66409.13626,3.32803.27365,4.992.41229,2.17911.18277,3.88419.39853,5.22705,1.44489,1.82147,1.42148,2.69019,3.82706,2.46744,7.02777-.30469,4.35785-2.50366,7.32458-5.86743,7.69135,1.21381,3.63232,2.38269,7.29688,3.50543,10.99295-1.89575-.27704-3.79175-.55243-5.6879-.8262-.82858-3.49451-1.69894-6.96582-2.61029-10.41321-.66821,3.25748-1.37286,6.50235-2.1138,9.73401-1.65286-.23599-3.30588-.47073-4.95905-.70428ZM154.28345,106.17406c1.98907.22357,3.17358-.97925,3.34436-3.37109.16287-2.31915-.81039-3.30151-2.90851-3.5007-.24493-.02307-.48987-.0462-.73489-.06927-.4071,2.26129-.83167,4.51685-1.27365,6.76651.5242.05804,1.04849.11621,1.57269.17456Z" style="fill:#065f46; stroke-width:0px;"/><polygon points="167.2143 37.1145 172.9348 14.7558 188.9723 23.6082 167.2143 37.1145" style="fill:#ebce56; stroke-width:0px;"/><polygon points="143.3103 3.6454 157.7434 0 157.7434 37.1145 143.3103 3.6454" style="fill:#ebce56; stroke-width:0px;"/><polygon points="19.5402 130.1206 2.60251 160.9987 16.5184 164.2136 19.5402 130.1206" style="fill:#ebce56; stroke-width:0px;"/><polygon points="30.9492 160.9987 44.4543 151.9836 30.9492 130.1206 30.9492 160.9987" style="fill:#ebce56; stroke-width:0px;"/></g></svg>